G04*
G04 #@! TF.GenerationSoftware,Altium Limited,Altium Designer,22.1.2 (22)*
G04*
G04 Layer_Color=16711935*
%FSLAX25Y25*%
%MOIN*%
G70*
G04*
G04 #@! TF.SameCoordinates,CB3FAF70-DFB5-4037-BA8D-DCE23A76FFA9*
G04*
G04*
G04 #@! TF.FilePolarity,Positive*
G04*
G01*
G75*
%ADD10C,0.00787*%
%ADD11C,0.01000*%
%ADD69C,0.01181*%
%ADD83C,0.02000*%
%ADD85C,0.01968*%
%ADD86C,0.00591*%
%ADD87C,0.00984*%
%ADD88C,0.00394*%
%ADD89C,0.00906*%
%ADD90C,0.00500*%
D10*
X92032Y167079D02*
Y173079D01*
X91031D02*
X104032D01*
Y167079D02*
Y173079D01*
X91031Y167079D02*
X104032D01*
X91031D02*
Y173079D01*
Y150150D02*
Y156150D01*
Y150150D02*
X104032D01*
Y156150D01*
X91031D02*
X104032D01*
X92032Y150150D02*
Y156150D01*
X91031Y158417D02*
Y164417D01*
Y158417D02*
X104032D01*
Y164417D01*
X91031D02*
X104032D01*
X92032Y158417D02*
Y164417D01*
X228039Y146213D02*
Y152213D01*
Y146213D02*
X241039D01*
Y152213D01*
X228039D02*
X241039D01*
X229039Y146213D02*
Y152213D01*
X25380Y16162D02*
X24528Y15309D01*
Y13603D01*
X25380Y12751D01*
X28791D01*
X29644Y13603D01*
Y15309D01*
X28791Y16162D01*
X29644Y21278D02*
Y17867D01*
X26233Y21278D01*
X25380D01*
X24528Y20425D01*
Y18720D01*
X25380Y17867D01*
X25689Y47730D02*
X24836Y46877D01*
Y45172D01*
X25689Y44319D01*
X29100D01*
X29953Y45172D01*
Y46877D01*
X29100Y47730D01*
X29953Y49435D02*
Y51141D01*
Y50288D01*
X24836D01*
X25689Y49435D01*
D11*
X67638Y178213D02*
G03*
X67638Y178213I-500J0D01*
G01*
X81418Y63868D02*
G03*
X81418Y63868I-500J0D01*
G01*
X19729Y98028D02*
G03*
X19729Y98028I-500J0D01*
G01*
X168386Y88551D02*
G03*
X168386Y88551I-500J0D01*
G01*
X128421Y18138D02*
G03*
X128421Y18138I-500J0D01*
G01*
X50395Y85903D02*
G03*
X50395Y85903I-500J0D01*
G01*
X264146Y67508D02*
G03*
X264146Y67508I-500J0D01*
G01*
X67398Y154161D02*
G03*
X67398Y154161I-500J0D01*
G01*
X108473Y179978D02*
G03*
X108473Y179978I-500J0D01*
G01*
X108918Y170092D02*
G03*
X108918Y170092I-500J0D01*
G01*
X37539Y111784D02*
G03*
X37539Y111784I-500J0D01*
G01*
X42205Y138945D02*
G03*
X42205Y138945I-500J0D01*
G01*
X33992Y88221D02*
G03*
X33992Y88221I-500J0D01*
G01*
Y78772D02*
G03*
X33992Y78772I-500J0D01*
G01*
X34189Y69717D02*
G03*
X34189Y69717I-500J0D01*
G01*
X83933Y102980D02*
G03*
X83933Y102980I-500J0D01*
G01*
X237083Y178177D02*
G03*
X237083Y178177I-500J0D01*
G01*
X225665D02*
G03*
X225665Y178177I-500J0D01*
G01*
X248894Y162429D02*
G03*
X248894Y162429I-500J0D01*
G01*
X156181Y36976D02*
G03*
X156181Y36976I-500J0D01*
G01*
X239110Y90583D02*
G03*
X239110Y90583I-500J0D01*
G01*
X102638Y176347D02*
G03*
X102638Y176347I-500J0D01*
G01*
X239843Y138157D02*
G03*
X239843Y138157I-500J0D01*
G01*
X262344Y73373D02*
G03*
X262344Y73373I-500J0D01*
G01*
X8736Y107902D02*
G03*
X8736Y107902I-500J0D01*
G01*
X266681Y96079D02*
G03*
X266681Y96079I-500J0D01*
G01*
X106743Y27819D02*
G03*
X106743Y27819I-500J0D01*
G01*
X97492Y55309D02*
G03*
X97492Y55309I-500J0D01*
G01*
X3283Y102000D02*
G03*
X3283Y102000I-500J0D01*
G01*
X258387Y96233D02*
G03*
X258387Y96233I-500J0D01*
G01*
X112145Y32566D02*
G03*
X112145Y32566I-500J0D01*
G01*
X128421Y25618D02*
G03*
X128421Y25618I-500J0D01*
G01*
X249350Y84500D02*
X249850Y84000D01*
Y44000D02*
Y84000D01*
X109350Y44000D02*
X249850D01*
X109350D02*
Y84500D01*
X249350D01*
X172037Y95405D02*
X186037D01*
X172037D02*
Y103405D01*
X186037D01*
Y95405D02*
Y103405D01*
X70248Y36146D02*
Y39646D01*
Y29646D02*
Y33146D01*
Y36146D01*
X40748Y39646D02*
X70248D01*
X40748Y29646D02*
Y39646D01*
Y29646D02*
X70248D01*
X40488Y55228D02*
X48488D01*
X40488Y41228D02*
Y55228D01*
Y41228D02*
X48488D01*
Y55228D01*
X58980Y141091D02*
X62480D01*
Y180591D01*
X52480Y141091D02*
X55980D01*
X52480D02*
Y180591D01*
X55980Y141091D02*
X58980D01*
X52480Y180591D02*
X62480D01*
X5500Y119646D02*
Y139646D01*
X25000Y119646D02*
Y139646D01*
X5500Y119646D02*
X25000D01*
X5500Y139646D02*
X25000D01*
X262130Y160146D02*
X265630D01*
X255630D02*
X259130D01*
X262130D01*
X265630D02*
Y189646D01*
X255630D02*
X265630D01*
X255630Y160146D02*
Y189646D01*
X-1575Y63634D02*
Y94634D01*
Y63634D02*
X21925D01*
Y94634D01*
X-1575D02*
X21425D01*
X5000Y147000D02*
Y167000D01*
X35000D01*
Y147000D02*
Y167000D01*
X5000Y147000D02*
X35000D01*
X5055Y181016D02*
X13055D01*
X5055Y167016D02*
Y181016D01*
Y167016D02*
X13055D01*
Y181016D01*
X5000Y181000D02*
Y201000D01*
X35000D01*
Y181000D02*
Y201000D01*
X5000Y181000D02*
X35000D01*
X19008Y201512D02*
Y209512D01*
X5008D02*
X19008D01*
X5008Y201512D02*
Y209512D01*
Y201512D02*
X19008D01*
X68000Y205000D02*
X170000D01*
X68000Y195000D02*
Y205000D01*
Y195000D02*
X170000D01*
Y205000D01*
X174000Y195000D02*
X256000D01*
X174500Y205000D02*
X256000D01*
X174000Y195000D02*
Y205000D01*
X256000Y195000D02*
Y205000D01*
Y11500D02*
Y15000D01*
Y5000D02*
Y8500D01*
X194000Y15000D02*
X256000D01*
X194000Y5000D02*
X256000D01*
Y8500D02*
Y11500D01*
X194000Y5000D02*
Y15000D01*
X104000D02*
X186000D01*
X104000Y5000D02*
X185500D01*
X186000D02*
Y15000D01*
X104000Y5000D02*
Y15000D01*
X49886Y50177D02*
X50886D01*
X49886D02*
Y65177D01*
X76886D01*
Y50177D02*
Y65177D01*
X49886Y50177D02*
X76886D01*
X65138Y167713D02*
Y180713D01*
Y167713D02*
X80138D01*
Y180713D01*
X65138D02*
X80138D01*
X72427Y83454D02*
X80427D01*
Y97453D01*
X72427D02*
X80427D01*
X72427Y83454D02*
Y97453D01*
X81486Y97733D02*
X89486D01*
X81486Y83733D02*
Y97733D01*
Y83733D02*
X89486D01*
Y97733D01*
X20432Y4463D02*
X23932D01*
X17432Y7463D02*
X20432Y4463D01*
X17432Y7463D02*
Y27463D01*
X39432D01*
Y7963D02*
Y27463D01*
X35932Y4463D02*
X39432Y7963D01*
X23932Y4463D02*
X35932D01*
X260914Y116542D02*
Y121043D01*
X234914D02*
X260914D01*
X234914Y103542D02*
Y121043D01*
Y103542D02*
X260914D01*
Y116542D01*
X78918Y53369D02*
Y66369D01*
Y53369D02*
X93918D01*
Y66369D01*
X78918D02*
X93918D01*
X14768Y18421D02*
Y41421D01*
X1768Y18421D02*
X14768D01*
X1768D02*
Y41421D01*
X14768D01*
X16729Y96028D02*
X29729D01*
Y111028D01*
X16729D02*
X29729D01*
X16729Y96028D02*
Y111028D01*
X156886Y86551D02*
X169886D01*
X156886D02*
Y94551D01*
X169886D01*
Y86551D02*
Y94551D01*
X171740Y86551D02*
Y94551D01*
Y86551D02*
X185740D01*
Y94551D01*
X171740D02*
X185740D01*
X155992Y95606D02*
Y103606D01*
Y95606D02*
X169992D01*
Y103606D01*
X155992D02*
X169992D01*
X154811Y104705D02*
X187311D01*
X154811D02*
Y119705D01*
X187311D01*
Y104705D02*
Y119705D01*
X266724Y45567D02*
Y53567D01*
X252724D02*
X266724D01*
X252724Y45567D02*
Y53567D01*
Y45567D02*
X266724D01*
X75449Y31398D02*
X79949D01*
X75449Y5398D02*
Y31398D01*
Y5398D02*
X92949D01*
Y31398D01*
X79949D02*
X92949D01*
X125921Y16138D02*
Y29138D01*
X133921D01*
Y16138D02*
Y29138D01*
X125921Y16138D02*
X133921D01*
X24240Y36031D02*
X36240D01*
X39740Y39531D01*
Y59031D01*
X17740D02*
X39740D01*
X17740Y39031D02*
Y59031D01*
Y39031D02*
X20740Y36031D01*
X24240D01*
X63515Y83474D02*
X71515D01*
Y97474D01*
X63515D02*
X71515D01*
X63515Y83474D02*
Y97474D01*
X47895Y87903D02*
X60895D01*
Y79903D02*
Y87903D01*
X47895Y79903D02*
X60895D01*
X47895D02*
Y87903D01*
X188758Y34993D02*
Y42993D01*
X174758D02*
X188758D01*
X174758Y34993D02*
Y42993D01*
Y34993D02*
X188758D01*
X158854Y34771D02*
Y42770D01*
Y34771D02*
X172854D01*
Y42770D01*
X158854D02*
X172854D01*
X197158Y25921D02*
Y33921D01*
X183158D02*
X197158D01*
X183158Y25921D02*
Y33921D01*
Y25921D02*
X197158D01*
X173953Y19772D02*
X181953D01*
Y33772D01*
X173953D02*
X181953D01*
X173953Y19772D02*
Y33772D01*
X183354Y16472D02*
Y24472D01*
Y16472D02*
X197354D01*
Y24472D01*
X183354D02*
X197354D01*
X92106Y96598D02*
X107106D01*
Y129098D01*
X92106D02*
X107106D01*
X92106Y96598D02*
Y129098D01*
X266146Y54508D02*
Y69508D01*
X253146Y54508D02*
X266146D01*
X253146D02*
Y69508D01*
X266146D01*
X74630Y104110D02*
Y132110D01*
X46630Y104110D02*
X74630D01*
X46630Y105610D02*
Y112610D01*
Y104110D02*
Y104610D01*
Y104110D02*
Y104610D01*
Y104110D02*
Y132110D01*
X74630D01*
X64898Y152161D02*
X72898D01*
Y165161D01*
X64898D02*
X72898D01*
X64898Y152161D02*
Y165161D01*
X105973Y173978D02*
Y181978D01*
Y173978D02*
X118973D01*
Y181978D01*
X105973D02*
X118973D01*
X106419Y164092D02*
Y172092D01*
Y164092D02*
X119419D01*
Y172092D01*
X106419D02*
X119419D01*
X31039Y113784D02*
X39039D01*
X31039Y100784D02*
Y113784D01*
Y100784D02*
X39039D01*
Y113784D01*
X43705Y136945D02*
Y144945D01*
X30705D02*
X43705D01*
X30705Y136945D02*
Y144945D01*
Y136945D02*
X43705D01*
X31492Y82221D02*
Y90220D01*
Y82221D02*
X44492D01*
Y90220D01*
X31492D02*
X44492D01*
X31492Y72772D02*
Y80772D01*
Y72772D02*
X44492D01*
Y80772D01*
X31492D02*
X44492D01*
X31689Y63717D02*
Y71716D01*
Y63717D02*
X44689D01*
Y71716D01*
X31689D02*
X44689D01*
X81433Y100980D02*
X89433D01*
Y113980D01*
X81433D02*
X89433D01*
X81433Y100980D02*
Y113980D01*
X234583Y176177D02*
X242583D01*
Y189177D01*
X234583D02*
X242583D01*
X234583Y176177D02*
Y189177D01*
X223165Y176177D02*
X231165D01*
Y189177D01*
X223165D02*
X231165D01*
X223165Y176177D02*
Y189177D01*
X246394Y160429D02*
X254394D01*
Y173429D01*
X246394D02*
X254394D01*
X246394Y160429D02*
Y173429D01*
X157681Y34976D02*
Y42976D01*
X144681D02*
X157681D01*
X144681Y34976D02*
Y42976D01*
Y34976D02*
X157681D01*
X236610Y84583D02*
Y92583D01*
Y84583D02*
X249610D01*
Y92583D01*
X236610D02*
X249610D01*
X104138Y174346D02*
Y182346D01*
X91138D02*
X104138D01*
X91138Y174346D02*
Y182346D01*
Y174346D02*
X104138D01*
X241342Y136158D02*
Y144158D01*
X228343D02*
X241342D01*
X228343Y136158D02*
Y144158D01*
Y136158D02*
X241342D01*
X259844Y71373D02*
X267844D01*
Y84373D01*
X259844D02*
X267844D01*
X259844Y71373D02*
Y84373D01*
X6236Y105902D02*
X14236D01*
Y118902D01*
X6236D02*
X14236D01*
X6236Y105902D02*
Y118902D01*
X260181Y98079D02*
X268181D01*
X260181Y85079D02*
Y98079D01*
Y85079D02*
X268181D01*
Y98079D01*
X100243Y29819D02*
X108243D01*
X100243Y16819D02*
Y29819D01*
Y16819D02*
X108243D01*
Y29819D01*
X94992Y53310D02*
X102992D01*
Y66309D01*
X94992D02*
X102992D01*
X94992Y53310D02*
Y66309D01*
X783Y96000D02*
Y104000D01*
Y96000D02*
X13783D01*
Y104000D01*
X783D02*
X13783D01*
X251887Y98233D02*
X259887D01*
X251887Y85233D02*
Y98233D01*
Y85233D02*
X259887D01*
Y98233D01*
X113645Y30566D02*
Y38566D01*
X100645D02*
X113645D01*
X100645Y30566D02*
Y38566D01*
Y30566D02*
X113645D01*
X125921Y23618D02*
X133921D01*
Y36618D01*
X125921D02*
X133921D01*
X125921Y23618D02*
Y36618D01*
X24165Y91917D02*
X30165D01*
X24165Y80917D02*
Y91917D01*
Y80917D02*
X30165D01*
Y91917D01*
X24165Y69106D02*
X30165D01*
Y80106D01*
X24165D02*
X30165D01*
X24165Y69106D02*
Y80106D01*
X81433Y114850D02*
Y128850D01*
X89433D01*
Y114850D02*
Y128850D01*
X81433Y114850D02*
X89433D01*
X46655Y88879D02*
X60655D01*
X46655D02*
Y96879D01*
X60655D01*
Y88879D02*
Y96879D01*
X92409Y129858D02*
X106409D01*
X92409D02*
Y137858D01*
X106409D01*
Y129858D02*
Y137858D01*
X92016Y87339D02*
X106016D01*
X92016D02*
Y95339D01*
X106016D01*
Y87339D02*
Y95339D01*
X246394Y175677D02*
Y189677D01*
X254394D01*
Y175677D02*
Y189677D01*
X246394Y175677D02*
X254394D01*
X86283Y36898D02*
Y50898D01*
X78284Y36898D02*
X86283D01*
X78284D02*
Y50898D01*
X86283D01*
X147528Y14898D02*
X161528D01*
X147528D02*
Y22898D01*
X161528D01*
Y14898D02*
Y22898D01*
X124079Y16228D02*
Y30228D01*
X116079Y16228D02*
X124079D01*
X116079D02*
Y30228D01*
X124079D01*
X143370Y16622D02*
Y30622D01*
X135370Y16622D02*
X143370D01*
X135370D02*
Y30622D01*
X143370D01*
X92606Y184976D02*
X106606D01*
X92606D02*
Y192976D01*
X106606D01*
Y184976D02*
Y192976D01*
X158748Y25528D02*
X172748D01*
X158748D02*
Y33528D01*
X172748D01*
Y25528D02*
Y33528D01*
X89827Y166819D02*
Y180819D01*
X81827Y166819D02*
X89827D01*
X81827D02*
Y180819D01*
X89827D01*
Y68197D02*
Y82197D01*
X81827Y68197D02*
X89827D01*
X81827D02*
Y82197D01*
X89827D01*
X14803Y111609D02*
X28803D01*
X14803D02*
Y119609D01*
X28803D01*
Y111609D02*
Y119609D01*
X31386Y91276D02*
X45386D01*
X31386D02*
Y99276D01*
X45386D01*
Y91276D02*
Y99276D01*
X251905Y70756D02*
Y84756D01*
X259906D01*
Y70756D02*
Y84756D01*
X251905Y70756D02*
X259906D01*
X95339Y36898D02*
Y50898D01*
X87339Y36898D02*
X95339D01*
X87339D02*
Y50898D01*
X95339D01*
X228039Y126709D02*
X242039D01*
X228039D02*
Y134709D01*
X242039D01*
Y126709D02*
Y134709D01*
X81072Y68325D02*
Y82325D01*
X73072Y68325D02*
X81072D01*
X73072D02*
Y82325D01*
X81072D01*
X80528Y231739D02*
Y235738D01*
X82527Y237738D01*
X84526Y235738D01*
Y231739D01*
Y234738D01*
X80528D01*
X86526Y231739D02*
X89525D01*
X90524Y232739D01*
X89525Y233739D01*
X87525D01*
X86526Y234738D01*
X87525Y235738D01*
X90524D01*
X92524Y231739D02*
X95523D01*
X96522Y232739D01*
X95523Y233739D01*
X93523D01*
X92524Y234738D01*
X93523Y235738D01*
X96522D01*
X101521Y231739D02*
X99521D01*
X98522Y232739D01*
Y234738D01*
X99521Y235738D01*
X101521D01*
X102520Y234738D01*
Y233739D01*
X98522D01*
X104520Y231739D02*
Y235738D01*
X105519D01*
X106519Y234738D01*
Y231739D01*
Y234738D01*
X107519Y235738D01*
X108519Y234738D01*
Y231739D01*
X110518Y237738D02*
Y231739D01*
X113517D01*
X114517Y232739D01*
Y233739D01*
Y234738D01*
X113517Y235738D01*
X110518D01*
X116516Y231739D02*
X118515D01*
X117516D01*
Y237738D01*
X116516D01*
X121514Y235738D02*
Y232739D01*
X122514Y231739D01*
X125513D01*
Y230740D01*
X124513Y229740D01*
X123514D01*
X125513Y231739D02*
Y235738D01*
X133510Y237738D02*
X137509D01*
X135510D01*
Y231739D01*
X140508D02*
X142508D01*
X143507Y232739D01*
Y234738D01*
X142508Y235738D01*
X140508D01*
X139508Y234738D01*
Y232739D01*
X140508Y231739D01*
X145507Y229740D02*
Y235738D01*
X148506D01*
X149505Y234738D01*
Y232739D01*
X148506Y231739D01*
X145507D01*
X158502D02*
X160502D01*
X161501Y232739D01*
Y234738D01*
X160502Y235738D01*
X158502D01*
X157503Y234738D01*
Y232739D01*
X158502Y231739D01*
X164500D02*
Y236738D01*
Y234738D01*
X163501D01*
X165500D01*
X164500D01*
Y236738D01*
X165500Y237738D01*
X174497D02*
Y233739D01*
X176497Y231739D01*
X178496Y233739D01*
Y237738D01*
X180495Y231739D02*
X182495D01*
X181495D01*
Y237738D01*
X180495Y236738D01*
X185494Y237738D02*
X187493D01*
X186493D01*
Y231739D01*
X185494D01*
X187493D01*
X190492D02*
X192491D01*
X191492D01*
Y237738D01*
X190492Y236738D01*
X100213Y225139D02*
Y219141D01*
X103212D01*
X104211Y220141D01*
Y221140D01*
X103212Y222140D01*
X100213D01*
X103212D01*
X104211Y223140D01*
Y224139D01*
X103212Y225139D01*
X100213D01*
X106211Y223140D02*
Y220141D01*
X107210Y219141D01*
X110209D01*
Y218141D01*
X109210Y217142D01*
X108210D01*
X110209Y219141D02*
Y223140D01*
X118207Y219141D02*
Y225139D01*
X122205Y219141D01*
Y225139D01*
X127204Y219141D02*
X125205D01*
X124205Y220141D01*
Y222140D01*
X125205Y223140D01*
X127204D01*
X128203Y222140D01*
Y221140D01*
X124205D01*
X133202Y219141D02*
X131203D01*
X130203Y220141D01*
Y222140D01*
X131203Y223140D01*
X133202D01*
X134202Y222140D01*
Y221140D01*
X130203D01*
X136201Y219141D02*
X138200D01*
X137201D01*
Y225139D01*
X136201D01*
X141199Y219141D02*
Y220141D01*
X142199D01*
Y219141D01*
X141199D01*
X146198Y225139D02*
Y219141D01*
X149197D01*
X150196Y220141D01*
Y221140D01*
X149197Y222140D01*
X146198D01*
X149197D01*
X150196Y223140D01*
Y224139D01*
X149197Y225139D01*
X146198D01*
X158194D02*
Y221140D01*
X160193Y219141D01*
X162193Y221140D01*
Y225139D01*
X164192Y219141D02*
X166191D01*
X165192D01*
Y225139D01*
X164192Y224139D01*
X169190Y225139D02*
X171190D01*
X170190D01*
Y219141D01*
X169190D01*
X171190D01*
X174189D02*
X176188D01*
X175188D01*
Y225139D01*
X174189Y224139D01*
X65749Y34148D02*
X67749D01*
X66749D01*
Y39146D01*
X67749Y40146D01*
X68748D01*
X69748Y39146D01*
X63750Y40146D02*
Y34148D01*
X60751D01*
X59751Y35147D01*
Y37147D01*
X60751Y38146D01*
X63750D01*
X54753Y40146D02*
Y34148D01*
X57752Y37147D01*
X53753D01*
X55482Y158589D02*
Y156590D01*
Y157590D01*
X60481D01*
X61480Y156590D01*
Y155590D01*
X60481Y154591D01*
X61480Y160589D02*
X55482D01*
Y163588D01*
X56482Y164587D01*
X58481D01*
X59481Y163588D01*
Y160589D01*
X56482Y166587D02*
X55482Y167586D01*
Y169586D01*
X56482Y170585D01*
X57482D01*
X58481Y169586D01*
Y168586D01*
Y169586D01*
X59481Y170585D01*
X60481D01*
X61480Y169586D01*
Y167586D01*
X60481Y166587D01*
X10499Y134644D02*
X8499D01*
X9499D01*
Y129645D01*
X8499Y128646D01*
X7500D01*
X6500Y129645D01*
X12498Y128646D02*
Y134644D01*
X15497D01*
X16497Y133644D01*
Y131645D01*
X15497Y130645D01*
X12498D01*
X22495Y128646D02*
X18496D01*
X22495Y132644D01*
Y133644D01*
X21495Y134644D01*
X19496D01*
X18496Y133644D01*
X260132Y164644D02*
Y162645D01*
Y163645D01*
X265130D01*
X266130Y162645D01*
Y161645D01*
X265130Y160646D01*
X266130Y166644D02*
X260132D01*
Y169643D01*
X261132Y170642D01*
X263131D01*
X264131Y169643D01*
Y166644D01*
X266130Y172642D02*
Y174641D01*
Y173642D01*
X260132D01*
X261132Y172642D01*
X12423Y82635D02*
Y84635D01*
Y83635D01*
X7425D01*
X6425Y84635D01*
Y85634D01*
X7425Y86634D01*
X12423Y80636D02*
Y76637D01*
X11424D01*
X7425Y80636D01*
X6425D01*
X27001Y151002D02*
X29001D01*
X28001D01*
Y156000D01*
X29001Y157000D01*
X30000D01*
X31000Y156000D01*
X21003Y151002D02*
X23003Y152002D01*
X25002Y154001D01*
Y156000D01*
X24002Y157000D01*
X22003D01*
X21003Y156000D01*
Y155001D01*
X22003Y154001D01*
X25002D01*
X27001Y185002D02*
X29001D01*
X28001D01*
Y190000D01*
X29001Y191000D01*
X30000D01*
X31000Y190000D01*
X21003Y185002D02*
X25002D01*
Y188001D01*
X23003Y187001D01*
X22003D01*
X21003Y188001D01*
Y190000D01*
X22003Y191000D01*
X24002D01*
X25002Y190000D01*
X100499Y201498D02*
X98500D01*
X99499D01*
Y196500D01*
X98500Y195500D01*
X97500D01*
X96500Y196500D01*
X105497Y195500D02*
Y201498D01*
X102498Y198499D01*
X106497D01*
X186499Y201498D02*
X184500D01*
X185499D01*
Y196500D01*
X184500Y195500D01*
X183500D01*
X182500Y196500D01*
X188498Y200498D02*
X189498Y201498D01*
X191497D01*
X192497Y200498D01*
Y199499D01*
X191497Y198499D01*
X190498D01*
X191497D01*
X192497Y197499D01*
Y196500D01*
X191497Y195500D01*
X189498D01*
X188498Y196500D01*
X248001Y9002D02*
X250001D01*
X249001D01*
Y14000D01*
X250001Y15000D01*
X251000D01*
X252000Y14000D01*
X242003Y15000D02*
X246002D01*
X242003Y11001D01*
Y10002D01*
X243003Y9002D01*
X245002D01*
X246002Y10002D01*
X173501Y8502D02*
X175500D01*
X174501D01*
Y13500D01*
X175500Y14500D01*
X176500D01*
X177500Y13500D01*
X171502Y14500D02*
X169502D01*
X170502D01*
Y8502D01*
X171502Y9502D01*
X173811Y109707D02*
Y110706D01*
X171812Y112706D01*
X169812Y110706D01*
Y109707D01*
X171812Y112706D02*
Y115705D01*
X167813D02*
X165814D01*
X166813D01*
Y109707D01*
X167813Y110706D01*
X97108Y110098D02*
X98108D01*
X100107Y112098D01*
X98108Y114097D01*
X97108D01*
X100107Y112098D02*
X103106D01*
Y120095D02*
Y116096D01*
X99108Y120095D01*
X98108D01*
X97108Y119096D01*
Y117096D01*
X98108Y116096D01*
D69*
X59449Y109845D02*
Y115748D01*
X58268Y116929D01*
X55907D01*
X54726Y115748D01*
Y109845D01*
X47642Y116929D02*
X52364D01*
X47642Y112206D01*
Y111026D01*
X48822Y109845D01*
X51184D01*
X52364Y111026D01*
D83*
X21000Y135146D02*
G03*
X21000Y135146I-500J0D01*
G01*
X10000Y151500D02*
G03*
X10000Y151500I-500J0D01*
G01*
Y185500D02*
G03*
X10000Y185500I-500J0D01*
G01*
D85*
X245484Y79651D02*
G03*
X245484Y79651I-1265J0D01*
G01*
X43955Y32146D02*
G03*
X43955Y32146I-707J0D01*
G01*
X55687Y177091D02*
G03*
X55687Y177091I-707J0D01*
G01*
X258837Y187146D02*
G03*
X258837Y187146I-707J0D01*
G01*
X168207Y202500D02*
G03*
X168207Y202500I-707J0D01*
G01*
X254207D02*
G03*
X254207Y202500I-707J0D01*
G01*
X197207Y7500D02*
G03*
X197207Y7500I-707J0D01*
G01*
X107207D02*
G03*
X107207Y7500I-707J0D01*
G01*
X22931Y8463D02*
G03*
X22931Y8463I-1000J0D01*
G01*
X256414Y106043D02*
G03*
X256414Y106043I-500J0D01*
G01*
X90949Y26398D02*
G03*
X90949Y26398I-500J0D01*
G01*
X23240Y40031D02*
G03*
X23240Y40031I-1000J0D01*
G01*
X72837Y107110D02*
G03*
X72837Y107110I-707J0D01*
G01*
X187819Y64967D02*
Y59969D01*
X188819Y58969D01*
X190818D01*
X191818Y59969D01*
Y64967D01*
X193817Y58969D02*
X195816D01*
X194817D01*
Y64967D01*
X193817Y63967D01*
D86*
X4256Y118098D02*
G03*
X4256Y118098I-500J0D01*
G01*
X237818Y96888D02*
G03*
X237818Y96888I-500J0D01*
G01*
X8294Y38331D02*
X4358D01*
Y35707D01*
Y34395D02*
Y33083D01*
Y33739D01*
X8294D01*
X7638Y34395D01*
D87*
X256Y119598D02*
X5256D01*
X256Y105098D02*
Y119598D01*
Y105098D02*
X5256D01*
Y119598D01*
X235818Y93388D02*
Y98388D01*
Y93388D02*
X250318D01*
Y98388D01*
X235818D02*
X250318D01*
D88*
X181069Y99043D02*
X181462Y98650D01*
X182249D01*
X182643Y99043D01*
Y100617D01*
X182249Y101011D01*
X181462D01*
X181069Y100617D01*
X178707Y101011D02*
X180281D01*
X178707Y99437D01*
Y99043D01*
X179101Y98650D01*
X179888D01*
X180281Y99043D01*
X177920Y98650D02*
X176346D01*
Y99043D01*
X177920Y100617D01*
Y101011D01*
X44850Y50260D02*
X45243Y50654D01*
Y51441D01*
X44850Y51835D01*
X43275D01*
X42882Y51441D01*
Y50654D01*
X43275Y50260D01*
X42882Y49473D02*
Y48686D01*
Y49080D01*
X45243D01*
X44850Y49473D01*
X42882Y45931D02*
Y47505D01*
X44456Y45931D01*
X44850D01*
X45243Y46325D01*
Y47112D01*
X44850Y47505D01*
X9417Y176048D02*
X9810Y176441D01*
Y177228D01*
X9417Y177622D01*
X7842D01*
X7449Y177228D01*
Y176441D01*
X7842Y176048D01*
X9417Y175261D02*
X9810Y174867D01*
Y174080D01*
X9417Y173686D01*
X9023D01*
X8630Y174080D01*
X8236Y173686D01*
X7842D01*
X7449Y174080D01*
Y174867D01*
X7842Y175261D01*
X8236D01*
X8630Y174867D01*
X9023Y175261D01*
X9417D01*
X8630Y174867D02*
Y174080D01*
X14040Y205150D02*
X14434Y204757D01*
X15221D01*
X15614Y205150D01*
Y206725D01*
X15221Y207118D01*
X14434D01*
X14040Y206725D01*
X13253Y207118D02*
X12466D01*
X12859D01*
Y204757D01*
X13253Y205150D01*
X11285Y204757D02*
X9711D01*
Y205150D01*
X11285Y206725D01*
Y207118D01*
X67532Y172468D02*
Y170500D01*
X67925Y170106D01*
X68712D01*
X69106Y170500D01*
Y172468D01*
X71074Y170106D02*
Y172468D01*
X69893Y171287D01*
X71467D01*
X76065Y88421D02*
X75672Y88028D01*
Y87241D01*
X76065Y86847D01*
X77640D01*
X78033Y87241D01*
Y88028D01*
X77640Y88421D01*
X78033Y90389D02*
X75672D01*
X76852Y89209D01*
Y90783D01*
X85848Y92765D02*
X86241Y93158D01*
Y93945D01*
X85848Y94339D01*
X84273D01*
X83880Y93945D01*
Y93158D01*
X84273Y92765D01*
X85848Y91978D02*
X86241Y91584D01*
Y90797D01*
X85848Y90403D01*
X85454D01*
X85061Y90797D01*
Y91190D01*
Y90797D01*
X84667Y90403D01*
X84273D01*
X83880Y90797D01*
Y91584D01*
X84273Y91978D01*
X81312Y58124D02*
Y56156D01*
X81705Y55762D01*
X82493D01*
X82886Y56156D01*
Y58124D01*
X83673D02*
X85247D01*
Y57730D01*
X83673Y56156D01*
Y55762D01*
X24974Y98421D02*
X26942D01*
X27335Y98815D01*
Y99602D01*
X26942Y99996D01*
X24974D01*
Y102357D02*
Y100783D01*
X26155D01*
X25761Y101570D01*
Y101963D01*
X26155Y102357D01*
X26942D01*
X27335Y101963D01*
Y101176D01*
X26942Y100783D01*
X93925Y170834D02*
Y168472D01*
X95106D01*
X95499Y168866D01*
Y170440D01*
X95106Y170834D01*
X93925D01*
X97861Y168472D02*
X96287D01*
X97861Y170047D01*
Y170440D01*
X97467Y170834D01*
X96680D01*
X96287Y170440D01*
X176708Y90913D02*
X176315Y91306D01*
X175527D01*
X175134Y90913D01*
Y89338D01*
X175527Y88945D01*
X176315D01*
X176708Y89338D01*
X179070Y88945D02*
X177495D01*
X179070Y90519D01*
Y90913D01*
X178676Y91306D01*
X177889D01*
X177495Y90913D01*
X179857D02*
X180250Y91306D01*
X181037D01*
X181431Y90913D01*
Y89338D01*
X181037Y88945D01*
X180250D01*
X179857Y89338D01*
Y90913D01*
X160960Y99968D02*
X160567Y100361D01*
X159779D01*
X159386Y99968D01*
Y98394D01*
X159779Y98000D01*
X160567D01*
X160960Y98394D01*
X163322Y98000D02*
X161747D01*
X163322Y99574D01*
Y99968D01*
X162928Y100361D01*
X162141D01*
X161747Y99968D01*
X165683Y100361D02*
X164109D01*
Y99181D01*
X164896Y99574D01*
X165289D01*
X165683Y99181D01*
Y98394D01*
X165289Y98000D01*
X164502D01*
X164109Y98394D01*
X261756Y49205D02*
X262150Y48812D01*
X262937D01*
X263331Y49205D01*
Y50780D01*
X262937Y51173D01*
X262150D01*
X261756Y50780D01*
X259395Y51173D02*
X260969D01*
X259395Y49599D01*
Y49205D01*
X259788Y48812D01*
X260576D01*
X260969Y49205D01*
X258608D02*
X258214Y48812D01*
X257427D01*
X257033Y49205D01*
Y49599D01*
X257427Y49992D01*
X257033Y50386D01*
Y50780D01*
X257427Y51173D01*
X258214D01*
X258608Y50780D01*
Y50386D01*
X258214Y49992D01*
X258608Y49599D01*
Y49205D01*
X258214Y49992D02*
X257427D01*
X93925Y153905D02*
Y151543D01*
X95106D01*
X95499Y151937D01*
Y153511D01*
X95106Y153905D01*
X93925D01*
X97467Y151543D02*
Y153905D01*
X96287Y152724D01*
X97861D01*
X93925Y162172D02*
Y159811D01*
X95106D01*
X95499Y160205D01*
Y161779D01*
X95106Y162172D01*
X93925D01*
X96287Y161779D02*
X96680Y162172D01*
X97467D01*
X97861Y161779D01*
Y161385D01*
X97467Y160992D01*
X97074D01*
X97467D01*
X97861Y160598D01*
Y160205D01*
X97467Y159811D01*
X96680D01*
X96287Y160205D01*
X67153Y88442D02*
X66759Y88048D01*
Y87261D01*
X67153Y86867D01*
X68727D01*
X69121Y87261D01*
Y88048D01*
X68727Y88442D01*
X66759Y90803D02*
X67153Y90016D01*
X67940Y89229D01*
X68727D01*
X69121Y89622D01*
Y90409D01*
X68727Y90803D01*
X68334D01*
X67940Y90409D01*
Y89229D01*
X183790Y38632D02*
X184183Y38238D01*
X184970D01*
X185364Y38632D01*
Y40206D01*
X184970Y40600D01*
X184183D01*
X183790Y40206D01*
X181428Y40600D02*
X183002D01*
X181428Y39025D01*
Y38632D01*
X181822Y38238D01*
X182609D01*
X183002Y38632D01*
X179460Y40600D02*
Y38238D01*
X180641Y39419D01*
X179067D01*
X163822Y39132D02*
X163428Y39526D01*
X162641D01*
X162248Y39132D01*
Y37558D01*
X162641Y37164D01*
X163428D01*
X163822Y37558D01*
X166183Y37164D02*
X164609D01*
X166183Y38739D01*
Y39132D01*
X165790Y39526D01*
X165003D01*
X164609Y39132D01*
X166971D02*
X167364Y39526D01*
X168151D01*
X168545Y39132D01*
Y38739D01*
X168151Y38345D01*
X167758D01*
X168151D01*
X168545Y37951D01*
Y37558D01*
X168151Y37164D01*
X167364D01*
X166971Y37558D01*
X192190Y29560D02*
X192583Y29166D01*
X193370D01*
X193764Y29560D01*
Y31134D01*
X193370Y31528D01*
X192583D01*
X192190Y31134D01*
X191402Y31528D02*
X190615D01*
X191009D01*
Y29166D01*
X191402Y29560D01*
X189435Y31134D02*
X189041Y31528D01*
X188254D01*
X187860Y31134D01*
Y29560D01*
X188254Y29166D01*
X189041D01*
X189435Y29560D01*
Y29953D01*
X189041Y30347D01*
X187860D01*
X177198Y24740D02*
Y23165D01*
X178378D01*
Y23953D01*
Y23165D01*
X179559D01*
X177198Y25527D02*
X179559D01*
Y26708D01*
X179165Y27101D01*
X178772D01*
X178378Y26708D01*
Y25527D01*
Y26708D01*
X177985Y27101D01*
X177591D01*
X177198Y26708D01*
Y25527D01*
X177591Y27888D02*
X177198Y28282D01*
Y29069D01*
X177591Y29463D01*
X177985D01*
X178378Y29069D01*
Y28675D01*
Y29069D01*
X178772Y29463D01*
X179165D01*
X179559Y29069D01*
Y28282D01*
X179165Y27888D01*
X188322Y21228D02*
X186748D01*
Y20047D01*
X187535D01*
X186748D01*
Y18866D01*
X189110Y21228D02*
Y18866D01*
X190290D01*
X190684Y19260D01*
Y19653D01*
X190290Y20047D01*
X189110D01*
X190290D01*
X190684Y20440D01*
Y20834D01*
X190290Y21228D01*
X189110D01*
X193045Y18866D02*
X191471D01*
X193045Y20440D01*
Y20834D01*
X192652Y21228D01*
X191865D01*
X191471Y20834D01*
X257901Y67114D02*
X255933D01*
X255539Y66721D01*
Y65934D01*
X255933Y65540D01*
X257901D01*
Y63178D02*
X257507Y63966D01*
X256720Y64753D01*
X255933D01*
X255539Y64359D01*
Y63572D01*
X255933Y63178D01*
X256327D01*
X256720Y63572D01*
Y64753D01*
X230933Y149968D02*
Y147606D01*
X232114D01*
X232507Y148000D01*
Y149574D01*
X232114Y149968D01*
X230933D01*
X233295Y147606D02*
X234082D01*
X233688D01*
Y149968D01*
X233295Y149574D01*
X28420Y89524D02*
Y87949D01*
X28027D01*
X26453Y89524D01*
X26059D01*
Y87949D01*
Y87162D02*
Y86375D01*
Y86769D01*
X28420D01*
X28027Y87162D01*
X25910Y71500D02*
Y73074D01*
X26304D01*
X27878Y71500D01*
X28272D01*
Y73074D01*
Y75436D02*
Y73861D01*
X26697Y75436D01*
X26304D01*
X25910Y75042D01*
Y74255D01*
X26304Y73861D01*
X85071Y119818D02*
X84678Y119425D01*
Y118638D01*
X85071Y118244D01*
X86646D01*
X87039Y118638D01*
Y119425D01*
X86646Y119818D01*
X84678Y122180D02*
Y120606D01*
X85859D01*
X85465Y121393D01*
Y121786D01*
X85859Y122180D01*
X86646D01*
X87039Y121786D01*
Y120999D01*
X86646Y120606D01*
X55687Y92518D02*
X56081Y92124D01*
X56868D01*
X57261Y92518D01*
Y94092D01*
X56868Y94485D01*
X56081D01*
X55687Y94092D01*
X54900Y92124D02*
X53326D01*
Y92518D01*
X54900Y94092D01*
Y94485D01*
X101442Y133497D02*
X101835Y133103D01*
X102622D01*
X103016Y133497D01*
Y135071D01*
X102622Y135465D01*
X101835D01*
X101442Y135071D01*
X100654D02*
X100261Y135465D01*
X99474D01*
X99080Y135071D01*
Y133497D01*
X99474Y133103D01*
X100261D01*
X100654Y133497D01*
Y133890D01*
X100261Y134284D01*
X99080D01*
X101048Y90977D02*
X101441Y90583D01*
X102228D01*
X102622Y90977D01*
Y92551D01*
X102228Y92945D01*
X101441D01*
X101048Y92551D01*
X100261Y92945D02*
X99474D01*
X99867D01*
Y90583D01*
X100261Y90977D01*
X98293D02*
X97899Y90583D01*
X97112D01*
X96719Y90977D01*
Y92551D01*
X97112Y92945D01*
X97899D01*
X98293Y92551D01*
Y90977D01*
X250032Y180645D02*
X249639Y180252D01*
Y179464D01*
X250032Y179071D01*
X251606D01*
X252000Y179464D01*
Y180252D01*
X251606Y180645D01*
X252000Y181432D02*
Y182220D01*
Y181826D01*
X249639D01*
X250032Y181432D01*
X252000Y183400D02*
Y184187D01*
Y183794D01*
X249639D01*
X250032Y183400D01*
X82645Y45930D02*
X83039Y46323D01*
Y47110D01*
X82645Y47504D01*
X81071D01*
X80677Y47110D01*
Y46323D01*
X81071Y45930D01*
X80677Y45142D02*
Y44355D01*
Y44749D01*
X83039D01*
X82645Y45142D01*
Y43175D02*
X83039Y42781D01*
Y41994D01*
X82645Y41600D01*
X82251D01*
X81858Y41994D01*
Y42388D01*
Y41994D01*
X81464Y41600D01*
X81071D01*
X80677Y41994D01*
Y42781D01*
X81071Y43175D01*
X156560Y18536D02*
X156953Y18143D01*
X157740D01*
X158134Y18536D01*
Y20110D01*
X157740Y20504D01*
X156953D01*
X156560Y20110D01*
X155772Y20504D02*
X154985D01*
X155379D01*
Y18143D01*
X155772Y18536D01*
X152624Y20504D02*
Y18143D01*
X153805Y19323D01*
X152230D01*
X120440Y25260D02*
X120834Y25654D01*
Y26441D01*
X120440Y26835D01*
X118866D01*
X118472Y26441D01*
Y25654D01*
X118866Y25260D01*
X118472Y24473D02*
Y23686D01*
Y24080D01*
X120834D01*
X120440Y24473D01*
X120834Y20931D02*
Y22505D01*
X119653D01*
X120047Y21718D01*
Y21325D01*
X119653Y20931D01*
X118866D01*
X118472Y21325D01*
Y22112D01*
X118866Y22505D01*
X139732Y25654D02*
X140125Y26048D01*
Y26835D01*
X139732Y27228D01*
X138157D01*
X137764Y26835D01*
Y26048D01*
X138157Y25654D01*
X137764Y24867D02*
Y24080D01*
Y24473D01*
X140125D01*
X139732Y24867D01*
X140125Y21325D02*
X139732Y22112D01*
X138944Y22899D01*
X138157D01*
X137764Y22505D01*
Y21718D01*
X138157Y21325D01*
X138551D01*
X138944Y21718D01*
Y22899D01*
X101638Y188615D02*
X102032Y188221D01*
X102819D01*
X103213Y188615D01*
Y190189D01*
X102819Y190583D01*
X102032D01*
X101638Y190189D01*
X99277Y190583D02*
X100851D01*
X99277Y189008D01*
Y188615D01*
X99670Y188221D01*
X100458D01*
X100851Y188615D01*
X98490Y190583D02*
X97703D01*
X98096D01*
Y188221D01*
X98490Y188615D01*
X167780Y29166D02*
X168174Y28772D01*
X168961D01*
X169354Y29166D01*
Y30740D01*
X168961Y31134D01*
X168174D01*
X167780Y30740D01*
X165419Y31134D02*
X166993D01*
X165419Y29560D01*
Y29166D01*
X165812Y28772D01*
X166599D01*
X166993Y29166D01*
X163057Y31134D02*
X164631D01*
X163057Y29560D01*
Y29166D01*
X163451Y28772D01*
X164238D01*
X164631Y29166D01*
X86188Y175851D02*
X86582Y176244D01*
Y177032D01*
X86188Y177425D01*
X84614D01*
X84220Y177032D01*
Y176244D01*
X84614Y175851D01*
X84220Y173489D02*
Y175064D01*
X85795Y173489D01*
X86188D01*
X86582Y173883D01*
Y174670D01*
X86188Y175064D01*
X86582Y171128D02*
X86188Y171915D01*
X85401Y172702D01*
X84614D01*
X84220Y172309D01*
Y171522D01*
X84614Y171128D01*
X85008D01*
X85401Y171522D01*
Y172702D01*
X86188Y77229D02*
X86582Y77622D01*
Y78410D01*
X86188Y78803D01*
X84614D01*
X84220Y78410D01*
Y77622D01*
X84614Y77229D01*
X84220Y74867D02*
Y76442D01*
X85795Y74867D01*
X86188D01*
X86582Y75261D01*
Y76048D01*
X86188Y76442D01*
X84614Y74080D02*
X84220Y73687D01*
Y72900D01*
X84614Y72506D01*
X86188D01*
X86582Y72900D01*
Y73687D01*
X86188Y74080D01*
X85795D01*
X85401Y73687D01*
Y72506D01*
X23835Y115248D02*
X24229Y114854D01*
X25016D01*
X25409Y115248D01*
Y116822D01*
X25016Y117216D01*
X24229D01*
X23835Y116822D01*
X23048Y115248D02*
X22654Y114854D01*
X21867D01*
X21474Y115248D01*
Y115641D01*
X21867Y116035D01*
X22261D01*
X21867D01*
X21474Y116429D01*
Y116822D01*
X21867Y117216D01*
X22654D01*
X23048Y116822D01*
X20687Y115248D02*
X20293Y114854D01*
X19506D01*
X19112Y115248D01*
Y116822D01*
X19506Y117216D01*
X20293D01*
X20687Y116822D01*
Y115248D01*
X40418Y94914D02*
X40811Y94520D01*
X41599D01*
X41992Y94914D01*
Y96488D01*
X41599Y96882D01*
X40811D01*
X40418Y96488D01*
X39631Y94914D02*
X39237Y94520D01*
X38450D01*
X38056Y94914D01*
Y95308D01*
X38450Y95701D01*
X38844D01*
X38450D01*
X38056Y96095D01*
Y96488D01*
X38450Y96882D01*
X39237D01*
X39631Y96488D01*
X37269Y96882D02*
X36482D01*
X36876D01*
Y94520D01*
X37269Y94914D01*
X255544Y75724D02*
X255150Y75330D01*
Y74543D01*
X255544Y74150D01*
X257118D01*
X257512Y74543D01*
Y75330D01*
X257118Y75724D01*
X255544Y76511D02*
X255150Y76905D01*
Y77692D01*
X255544Y78085D01*
X255938D01*
X256331Y77692D01*
Y77298D01*
Y77692D01*
X256725Y78085D01*
X257118D01*
X257512Y77692D01*
Y76905D01*
X257118Y76511D01*
X257512Y80447D02*
Y78873D01*
X255938Y80447D01*
X255544D01*
X255150Y80053D01*
Y79266D01*
X255544Y78873D01*
X91700Y45930D02*
X92094Y46323D01*
Y47110D01*
X91700Y47504D01*
X90126D01*
X89732Y47110D01*
Y46323D01*
X90126Y45930D01*
X91700Y45142D02*
X92094Y44749D01*
Y43962D01*
X91700Y43568D01*
X91307D01*
X90913Y43962D01*
Y44355D01*
Y43962D01*
X90519Y43568D01*
X90126D01*
X89732Y43962D01*
Y44749D01*
X90126Y45142D01*
X91700Y42781D02*
X92094Y42388D01*
Y41600D01*
X91700Y41207D01*
X91307D01*
X90913Y41600D01*
Y41994D01*
Y41600D01*
X90519Y41207D01*
X90126D01*
X89732Y41600D01*
Y42388D01*
X90126Y42781D01*
X237071Y130347D02*
X237465Y129954D01*
X238252D01*
X238646Y130347D01*
Y131921D01*
X238252Y132315D01*
X237465D01*
X237071Y131921D01*
X236284Y130347D02*
X235891Y129954D01*
X235104D01*
X234710Y130347D01*
Y130741D01*
X235104Y131134D01*
X235497D01*
X235104D01*
X234710Y131528D01*
Y131921D01*
X235104Y132315D01*
X235891D01*
X236284Y131921D01*
X232742Y132315D02*
Y129954D01*
X233923Y131134D01*
X232348D01*
X77827Y77357D02*
Y78931D01*
X76646D01*
Y78144D01*
Y78931D01*
X75465D01*
X77827Y76570D02*
X75465D01*
Y75389D01*
X75859Y74996D01*
X76253D01*
X76646Y75389D01*
Y76570D01*
Y75389D01*
X77040Y74996D01*
X77433D01*
X77827Y75389D01*
Y76570D01*
X75465Y74209D02*
Y73422D01*
Y73815D01*
X77827D01*
X77433Y74209D01*
D89*
X62577Y52583D02*
X67496D01*
X68480Y53567D01*
Y55534D01*
X67496Y56518D01*
X62577D01*
X63561Y58486D02*
X62577Y59470D01*
Y61438D01*
X63561Y62422D01*
X64545D01*
X65529Y61438D01*
Y60454D01*
Y61438D01*
X66513Y62422D01*
X67496D01*
X68480Y61438D01*
Y59470D01*
X67496Y58486D01*
D90*
X167386Y93051D02*
Y89052D01*
X165386D01*
X164720Y89719D01*
Y91052D01*
X165386Y91718D01*
X167386D01*
X166053D02*
X164720Y93051D01*
X163387D02*
X162054D01*
X162721D01*
Y89052D01*
X163387Y89719D01*
X157389Y89052D02*
X158722Y89719D01*
X160055Y91052D01*
Y92385D01*
X159388Y93051D01*
X158055D01*
X157389Y92385D01*
Y91718D01*
X158055Y91052D01*
X160055D01*
X132421Y18638D02*
X128423D01*
Y20637D01*
X129089Y21304D01*
X130422D01*
X131088Y20637D01*
Y18638D01*
Y19971D02*
X132421Y21304D01*
Y25302D02*
Y22637D01*
X129755Y25302D01*
X129089D01*
X128423Y24636D01*
Y23303D01*
X129089Y22637D01*
Y26635D02*
X128423Y27302D01*
Y28635D01*
X129089Y29301D01*
X129755D01*
X130422Y28635D01*
X131088Y29301D01*
X131755D01*
X132421Y28635D01*
Y27302D01*
X131755Y26635D01*
X131088D01*
X130422Y27302D01*
X129755Y26635D01*
X129089D01*
X130422Y27302D02*
Y28635D01*
X50395Y81403D02*
Y85402D01*
X52395D01*
X53061Y84735D01*
Y83403D01*
X52395Y82736D01*
X50395D01*
X51728D02*
X53061Y81403D01*
X57060D02*
X54394D01*
X57060Y84069D01*
Y84735D01*
X56393Y85402D01*
X55060D01*
X54394Y84735D01*
X61058Y85402D02*
X59726Y84735D01*
X58393Y83403D01*
Y82070D01*
X59059Y81403D01*
X60392D01*
X61058Y82070D01*
Y82736D01*
X60392Y83403D01*
X58393D01*
X71398Y154661D02*
X67399D01*
Y156661D01*
X68065Y157327D01*
X69398D01*
X70065Y156661D01*
Y154661D01*
Y155994D02*
X71398Y157327D01*
Y158660D02*
Y159993D01*
Y159327D01*
X67399D01*
X68065Y158660D01*
X108473Y175478D02*
Y179476D01*
X110472D01*
X111139Y178810D01*
Y177477D01*
X110472Y176811D01*
X108473D01*
X109806D02*
X111139Y175478D01*
X115137D02*
X112471D01*
X115137Y178143D01*
Y178810D01*
X114471Y179476D01*
X113138D01*
X112471Y178810D01*
X108918Y165592D02*
Y169590D01*
X110918D01*
X111584Y168924D01*
Y167591D01*
X110918Y166925D01*
X108918D01*
X110251D02*
X111584Y165592D01*
X112917Y168924D02*
X113584Y169590D01*
X114917D01*
X115583Y168924D01*
Y168257D01*
X114917Y167591D01*
X114250D01*
X114917D01*
X115583Y166925D01*
Y166258D01*
X114917Y165592D01*
X113584D01*
X112917Y166258D01*
X32539Y111284D02*
X36538D01*
Y109284D01*
X35872Y108618D01*
X34539D01*
X33872Y109284D01*
Y111284D01*
Y109951D02*
X32539Y108618D01*
Y105285D02*
X36538D01*
X34539Y107285D01*
Y104619D01*
X41205Y143445D02*
Y139446D01*
X39205D01*
X38539Y140113D01*
Y141446D01*
X39205Y142112D01*
X41205D01*
X39872D02*
X38539Y143445D01*
X34540Y139446D02*
X37206D01*
Y141446D01*
X35873Y140779D01*
X35207D01*
X34540Y141446D01*
Y142778D01*
X35207Y143445D01*
X36540D01*
X37206Y142778D01*
X33992Y83720D02*
Y87719D01*
X35991D01*
X36658Y87053D01*
Y85720D01*
X35991Y85053D01*
X33992D01*
X35325D02*
X36658Y83720D01*
X40657Y87719D02*
X39324Y87053D01*
X37991Y85720D01*
Y84387D01*
X38657Y83720D01*
X39990D01*
X40657Y84387D01*
Y85053D01*
X39990Y85720D01*
X37991D01*
X33992Y74272D02*
Y78270D01*
X35991D01*
X36658Y77604D01*
Y76271D01*
X35991Y75604D01*
X33992D01*
X35325D02*
X36658Y74272D01*
X37991Y78270D02*
X40657D01*
Y77604D01*
X37991Y74938D01*
Y74272D01*
X34189Y65216D02*
Y69215D01*
X36188D01*
X36855Y68549D01*
Y67216D01*
X36188Y66549D01*
X34189D01*
X35522D02*
X36855Y65216D01*
X38188Y68549D02*
X38854Y69215D01*
X40187D01*
X40854Y68549D01*
Y67882D01*
X40187Y67216D01*
X40854Y66549D01*
Y65883D01*
X40187Y65216D01*
X38854D01*
X38188Y65883D01*
Y66549D01*
X38854Y67216D01*
X38188Y67882D01*
Y68549D01*
X38854Y67216D02*
X40187D01*
X87933Y103480D02*
X83934D01*
Y105480D01*
X84601Y106146D01*
X85934D01*
X86600Y105480D01*
Y103480D01*
Y104813D02*
X87933Y106146D01*
X87267Y107479D02*
X87933Y108145D01*
Y109478D01*
X87267Y110145D01*
X84601D01*
X83934Y109478D01*
Y108145D01*
X84601Y107479D01*
X85267D01*
X85934Y108145D01*
Y110145D01*
X241083Y178677D02*
X237084D01*
Y180676D01*
X237750Y181343D01*
X239083D01*
X239750Y180676D01*
Y178677D01*
Y180010D02*
X241083Y181343D01*
Y182676D02*
Y184009D01*
Y183342D01*
X237084D01*
X237750Y182676D01*
Y186008D02*
X237084Y186675D01*
Y188007D01*
X237750Y188674D01*
X240416D01*
X241083Y188007D01*
Y186675D01*
X240416Y186008D01*
X237750D01*
X229665Y178677D02*
X225667D01*
Y180676D01*
X226333Y181343D01*
X227666D01*
X228332Y180676D01*
Y178677D01*
Y180010D02*
X229665Y181343D01*
Y182676D02*
Y184009D01*
Y183342D01*
X225667D01*
X226333Y182676D01*
X229665Y186008D02*
Y187341D01*
Y186675D01*
X225667D01*
X226333Y186008D01*
X252894Y162929D02*
X248895D01*
Y164928D01*
X249561Y165595D01*
X250894D01*
X251561Y164928D01*
Y162929D01*
Y164262D02*
X252894Y165595D01*
Y166928D02*
Y168261D01*
Y167594D01*
X248895D01*
X249561Y166928D01*
X252894Y172926D02*
Y170260D01*
X250228Y172926D01*
X249561D01*
X248895Y172259D01*
Y170926D01*
X249561Y170260D01*
X155181Y41476D02*
Y37478D01*
X153182D01*
X152515Y38144D01*
Y39477D01*
X153182Y40143D01*
X155181D01*
X153848D02*
X152515Y41476D01*
X151182D02*
X149849D01*
X150516D01*
Y37478D01*
X151182Y38144D01*
X147850D02*
X147184Y37478D01*
X145851D01*
X145184Y38144D01*
Y38811D01*
X145851Y39477D01*
X146517D01*
X145851D01*
X145184Y40143D01*
Y40810D01*
X145851Y41476D01*
X147184D01*
X147850Y40810D01*
X239110Y86083D02*
Y90081D01*
X241110D01*
X241776Y89415D01*
Y88082D01*
X241110Y87416D01*
X239110D01*
X240443D02*
X241776Y86083D01*
X243109D02*
X244442D01*
X243775D01*
Y90081D01*
X243109Y89415D01*
X248441Y86083D02*
Y90081D01*
X246441Y88082D01*
X249107D01*
X101638Y180847D02*
Y176848D01*
X99638D01*
X98972Y177514D01*
Y178847D01*
X99638Y179514D01*
X101638D01*
X100305D02*
X98972Y180847D01*
X97639D02*
X96306D01*
X96973D01*
Y176848D01*
X97639Y177514D01*
X91641Y176848D02*
X94307D01*
Y178847D01*
X92974Y178181D01*
X92308D01*
X91641Y178847D01*
Y180180D01*
X92308Y180847D01*
X93640D01*
X94307Y180180D01*
X238843Y142657D02*
Y138659D01*
X236843D01*
X236177Y139325D01*
Y140658D01*
X236843Y141325D01*
X238843D01*
X237510D02*
X236177Y142657D01*
X234844D02*
X233511D01*
X234177D01*
Y138659D01*
X234844Y139325D01*
X231511Y138659D02*
X228846D01*
Y139325D01*
X231511Y141991D01*
Y142657D01*
X266344Y73873D02*
X262345D01*
Y75873D01*
X263011Y76539D01*
X264344D01*
X265011Y75873D01*
Y73873D01*
Y75206D02*
X266344Y76539D01*
Y77872D02*
Y79205D01*
Y78538D01*
X262345D01*
X263011Y77872D01*
Y81204D02*
X262345Y81871D01*
Y83204D01*
X263011Y83870D01*
X263678D01*
X264344Y83204D01*
X265011Y83870D01*
X265677D01*
X266344Y83204D01*
Y81871D01*
X265677Y81204D01*
X265011D01*
X264344Y81871D01*
X263678Y81204D01*
X263011D01*
X264344Y81871D02*
Y83204D01*
X12736Y108402D02*
X8738D01*
Y110401D01*
X9404Y111067D01*
X10737D01*
X11403Y110401D01*
Y108402D01*
Y109734D02*
X12736Y111067D01*
Y112400D02*
Y113733D01*
Y113067D01*
X8738D01*
X9404Y112400D01*
X12070Y115733D02*
X12736Y116399D01*
Y117732D01*
X12070Y118398D01*
X9404D01*
X8738Y117732D01*
Y116399D01*
X9404Y115733D01*
X10070D01*
X10737Y116399D01*
Y118398D01*
X261681Y95579D02*
X265679D01*
Y93580D01*
X265013Y92913D01*
X263680D01*
X263014Y93580D01*
Y95579D01*
Y94246D02*
X261681Y92913D01*
Y88915D02*
Y91580D01*
X264347Y88915D01*
X265013D01*
X265679Y89581D01*
Y90914D01*
X265013Y91580D01*
Y87582D02*
X265679Y86915D01*
Y85582D01*
X265013Y84916D01*
X262347D01*
X261681Y85582D01*
Y86915D01*
X262347Y87582D01*
X265013D01*
X101743Y27319D02*
X105742D01*
Y25320D01*
X105075Y24653D01*
X103742D01*
X103076Y25320D01*
Y27319D01*
Y25986D02*
X101743Y24653D01*
Y20654D02*
Y23320D01*
X104409Y20654D01*
X105075D01*
X105742Y21321D01*
Y22654D01*
X105075Y23320D01*
X101743Y19321D02*
Y17989D01*
Y18655D01*
X105742D01*
X105075Y19321D01*
X101492Y55809D02*
X97493D01*
Y57809D01*
X98160Y58475D01*
X99493D01*
X100159Y57809D01*
Y55809D01*
Y57142D02*
X101492Y58475D01*
Y62474D02*
Y59808D01*
X98826Y62474D01*
X98160D01*
X97493Y61808D01*
Y60475D01*
X98160Y59808D01*
X101492Y66473D02*
Y63807D01*
X98826Y66473D01*
X98160D01*
X97493Y65806D01*
Y64473D01*
X98160Y63807D01*
X3283Y97500D02*
Y101499D01*
X5283D01*
X5949Y100832D01*
Y99499D01*
X5283Y98833D01*
X3283D01*
X4616D02*
X5949Y97500D01*
X9948D02*
X7282D01*
X9948Y100166D01*
Y100832D01*
X9281Y101499D01*
X7949D01*
X7282Y100832D01*
X11281D02*
X11947Y101499D01*
X13280D01*
X13947Y100832D01*
Y100166D01*
X13280Y99499D01*
X12614D01*
X13280D01*
X13947Y98833D01*
Y98166D01*
X13280Y97500D01*
X11947D01*
X11281Y98166D01*
X253387Y95733D02*
X257386D01*
Y93733D01*
X256719Y93067D01*
X255386D01*
X254720Y93733D01*
Y95733D01*
Y94400D02*
X253387Y93067D01*
Y89068D02*
Y91734D01*
X256053Y89068D01*
X256719D01*
X257386Y89735D01*
Y91067D01*
X256719Y91734D01*
X253387Y85736D02*
X257386D01*
X255386Y87735D01*
Y85070D01*
X111145Y37066D02*
Y33067D01*
X109146D01*
X108479Y33733D01*
Y35066D01*
X109146Y35733D01*
X111145D01*
X109812D02*
X108479Y37066D01*
X104481D02*
X107147D01*
X104481Y34400D01*
Y33733D01*
X105147Y33067D01*
X106480D01*
X107147Y33733D01*
X100482Y33067D02*
X103148D01*
Y35066D01*
X101815Y34400D01*
X101148D01*
X100482Y35066D01*
Y36399D01*
X101148Y37066D01*
X102481D01*
X103148Y36399D01*
X132421Y26118D02*
X128423D01*
Y28117D01*
X129089Y28784D01*
X130422D01*
X131088Y28117D01*
Y26118D01*
Y27451D02*
X132421Y28784D01*
Y32783D02*
Y30117D01*
X129755Y32783D01*
X129089D01*
X128423Y32116D01*
Y30783D01*
X129089Y30117D01*
X128423Y34115D02*
Y36781D01*
X129089D01*
X131755Y34115D01*
X132421D01*
M02*
