G04*
G04 #@! TF.GenerationSoftware,Altium Limited,Altium Designer,22.1.2 (22)*
G04*
G04 Layer_Color=65535*
%FSLAX25Y25*%
%MOIN*%
G70*
G04*
G04 #@! TF.SameCoordinates,CB3FAF70-DFB5-4037-BA8D-DCE23A76FFA9*
G04*
G04*
G04 #@! TF.FilePolarity,Positive*
G04*
G01*
G75*
%ADD10C,0.00787*%
%ADD11C,0.01000*%
%ADD12C,0.01575*%
D10*
X249350Y67000D02*
G03*
X249350Y62000I0J-2500D01*
G01*
X46811Y193560D02*
G03*
X73832Y193983I13425J5653D01*
G01*
X109350Y84410D02*
X175041D01*
X109350Y72276D02*
Y84410D01*
X237317D02*
X249850D01*
Y67000D02*
Y84410D01*
X191401D02*
X194673D01*
X181585D02*
X184857D01*
X201216D02*
X213250D01*
X109350Y44000D02*
Y57224D01*
X119725Y44000D02*
X130475D01*
X137350D02*
X157575D01*
X249350D01*
X194673Y84410D02*
X201216D01*
X175041D02*
X181585D01*
X184857D02*
X191401D01*
X109350Y56724D02*
Y72276D01*
X213250Y84410D02*
X237317D01*
X249850Y44000D02*
Y62500D01*
X109350Y44000D02*
X119725D01*
X130475D02*
X137350D01*
X172037Y103405D02*
X186037D01*
X172037Y95405D02*
Y103405D01*
X176963Y95405D02*
X186037D01*
X172037D02*
X176963D01*
X186037Y97405D02*
Y101405D01*
Y103405D01*
Y95405D02*
Y97405D01*
X46488Y55228D02*
X48488D01*
X40488D02*
X42488D01*
X46488D01*
X48488Y41228D02*
Y46154D01*
Y55228D01*
X40488Y41228D02*
X48488D01*
X40488D02*
Y55228D01*
X5500Y119646D02*
X25000D01*
X5500Y139646D02*
X10000D01*
X25000Y131280D02*
Y136905D01*
Y139646D01*
X10000D02*
X25000D01*
Y119646D02*
Y131280D01*
X20000Y147000D02*
X35000D01*
Y155366D01*
X5000Y149741D02*
Y155366D01*
Y147000D02*
Y149741D01*
Y147000D02*
X20000D01*
X5000Y167000D02*
X35000D01*
Y155366D02*
Y167000D01*
X5000Y155366D02*
Y167000D01*
X11055Y181016D02*
X13055D01*
X5055D02*
X7055D01*
X11055D01*
X13055Y167016D02*
Y171942D01*
Y181016D01*
X5055Y167016D02*
X13055D01*
X5055D02*
Y181016D01*
X20000Y181000D02*
X35000D01*
Y189366D01*
X5000Y183741D02*
Y189366D01*
Y181000D02*
Y183741D01*
Y181000D02*
X20000D01*
X5000Y201000D02*
X35000D01*
Y189366D02*
Y201000D01*
X5000Y189366D02*
Y201000D01*
X19008Y201512D02*
Y203512D01*
Y207512D02*
Y209512D01*
Y203512D02*
Y207512D01*
X5008Y201512D02*
X9934D01*
X19008D01*
X5008D02*
Y209512D01*
X19008D01*
X72427Y83454D02*
X74427D01*
X78427D02*
X80427D01*
X74427D02*
X78427D01*
X72427Y92527D02*
Y97453D01*
Y83454D02*
Y92527D01*
Y97453D02*
X80427D01*
Y83454D02*
Y97453D01*
X87486Y97733D02*
X89486D01*
X81486D02*
X83486D01*
X87486D01*
X89486Y83733D02*
Y88659D01*
Y97733D01*
X81486Y83733D02*
X89486D01*
X81486D02*
Y97733D01*
X14768Y18421D02*
Y41185D01*
X1768Y18421D02*
Y41185D01*
X8268D02*
X14768D01*
X1768Y18421D02*
X14768D01*
X1768Y41185D02*
X8268D01*
X92032Y167079D02*
X92035D01*
X92032Y170079D02*
Y173079D01*
X104032D01*
Y167079D02*
Y173079D01*
X92035Y167079D02*
X104032D01*
X92032D02*
Y170079D01*
X91031Y167079D02*
Y173079D01*
Y167079D02*
X92032D01*
X91031Y173079D02*
X92032D01*
X169886Y86551D02*
Y94551D01*
X156886Y86551D02*
X169886D01*
X156886Y94551D02*
X169886D01*
X156886Y86551D02*
Y94551D01*
X171740Y92551D02*
Y94551D01*
Y86551D02*
Y88551D01*
Y92551D01*
X180814Y94551D02*
X185740D01*
X171740D02*
X180814D01*
X185740Y86551D02*
Y94551D01*
X171740Y86551D02*
X185740D01*
X155992Y101606D02*
Y103606D01*
Y95606D02*
Y97606D01*
Y101606D01*
X165066Y103606D02*
X169992D01*
X155992D02*
X165066D01*
X169992Y95606D02*
Y103606D01*
X155992Y95606D02*
X169992D01*
X154811Y119705D02*
X187311D01*
X154811Y104705D02*
Y119705D01*
Y104705D02*
X187311D01*
Y111746D02*
Y112663D01*
Y119705D01*
Y104705D02*
Y111746D01*
X266724Y45567D02*
Y47567D01*
Y51567D02*
Y53567D01*
Y47567D02*
Y51567D01*
X252724Y45567D02*
X257651D01*
X266724D01*
X252724D02*
Y53567D01*
X266724D01*
X125921Y16138D02*
X133921D01*
X125921D02*
Y29138D01*
X133921Y16138D02*
Y29138D01*
X125921D02*
X133921D01*
X91031Y156150D02*
X92032D01*
X91031Y150150D02*
X92032D01*
X91031D02*
Y156150D01*
X92032Y150150D02*
Y153150D01*
X92035Y150150D02*
X104032D01*
Y156150D01*
X92032D02*
X104032D01*
X92032Y153150D02*
Y156150D01*
Y150150D02*
X92035D01*
X91031Y164417D02*
X92032D01*
X91031Y158417D02*
X92032D01*
X91031D02*
Y164417D01*
X92032Y158417D02*
Y161417D01*
X92035Y158417D02*
X104032D01*
Y164417D01*
X92032D02*
X104032D01*
X92032Y161417D02*
Y164417D01*
Y158417D02*
X92035D01*
X63515Y83474D02*
X65515D01*
X69515D02*
X71515D01*
X65515D02*
X69515D01*
X63515Y92547D02*
Y97474D01*
Y83474D02*
Y92547D01*
Y97474D02*
X71515D01*
Y83474D02*
Y97474D01*
X47895Y79903D02*
Y87903D01*
X60895D01*
X47895Y79903D02*
X60895D01*
Y87903D01*
X188758Y34993D02*
Y36993D01*
Y40993D02*
Y42993D01*
Y36993D02*
Y40993D01*
X174758Y34993D02*
X179684D01*
X188758D01*
X174758D02*
Y42993D01*
X188758D01*
X158854Y40771D02*
Y42770D01*
Y34771D02*
Y36770D01*
Y40771D01*
X167928Y42770D02*
X172854D01*
X158854D02*
X167928D01*
X172854Y34771D02*
Y42770D01*
X158854Y34771D02*
X172854D01*
X197158Y25921D02*
Y27921D01*
Y31921D02*
Y33921D01*
Y27921D02*
Y31921D01*
X183158Y25921D02*
X188084D01*
X197158D01*
X183158D02*
Y33921D01*
X197158D01*
X173953Y19772D02*
X175953D01*
X179953D02*
X181953D01*
X175953D02*
X179953D01*
X173953Y28846D02*
Y33772D01*
Y19772D02*
Y28846D01*
Y33772D02*
X181953D01*
Y19772D02*
Y33772D01*
X183354Y22472D02*
Y24472D01*
Y16472D02*
Y18472D01*
Y22472D01*
X192428Y24472D02*
X197354D01*
X183354D02*
X192428D01*
X197354Y16472D02*
Y24472D01*
X183354Y16472D02*
X197354D01*
X92106Y96598D02*
X99148D01*
X100065D02*
X107106D01*
X99148D02*
X100065D01*
X92106D02*
Y129098D01*
X107106D01*
Y96598D02*
Y129098D01*
X228039Y152213D02*
X229039D01*
X228039Y146213D02*
X229039D01*
X228039D02*
Y152213D01*
X229039Y146213D02*
Y149213D01*
X229043Y146213D02*
X241039D01*
Y152213D01*
X229039D02*
X241039D01*
X229039Y149213D02*
Y152213D01*
Y146213D02*
X229043D01*
X256Y105323D02*
Y119598D01*
X5256Y105323D02*
Y119598D01*
X256Y105323D02*
X5256D01*
X235818Y93388D02*
X250093D01*
X235818Y98388D02*
X250093D01*
Y93388D02*
Y98388D01*
X64898Y165161D02*
X72898D01*
Y152161D02*
Y165161D01*
X64898Y152161D02*
Y165161D01*
Y152161D02*
X72898D01*
X118973Y173978D02*
Y181978D01*
X105973Y173978D02*
X118973D01*
X105973Y181978D02*
X118973D01*
X105973Y173978D02*
Y181978D01*
X119419Y164092D02*
Y172092D01*
X106419Y164092D02*
X119419D01*
X106419Y172092D02*
X119419D01*
X106419Y164092D02*
Y172092D01*
X31039Y100784D02*
X39039D01*
X31039D02*
Y113784D01*
X39039Y100784D02*
Y113784D01*
X31039D02*
X39039D01*
X30705Y136945D02*
Y144945D01*
X43705D01*
X30705Y136945D02*
X43705D01*
Y144945D01*
X44492Y82221D02*
Y90220D01*
X31492Y82221D02*
X44492D01*
X31492Y90220D02*
X44492D01*
X31492Y82221D02*
Y90220D01*
X44492Y72772D02*
Y80772D01*
X31492Y72772D02*
X44492D01*
X31492Y80772D02*
X44492D01*
X31492Y72772D02*
Y80772D01*
X44689Y63717D02*
Y71716D01*
X31689Y63717D02*
X44689D01*
X31689Y71716D02*
X44689D01*
X31689Y63717D02*
Y71716D01*
X81433Y113980D02*
X89433D01*
Y100980D02*
Y113980D01*
X81433Y100980D02*
Y113980D01*
Y100980D02*
X89433D01*
X234583Y189177D02*
X242583D01*
Y176177D02*
Y189177D01*
X234583Y176177D02*
Y189177D01*
Y176177D02*
X242583D01*
X223165Y189177D02*
X231165D01*
Y176177D02*
Y189177D01*
X223165Y176177D02*
Y189177D01*
Y176177D02*
X231165D01*
X246394Y173429D02*
X254394D01*
Y160429D02*
Y173429D01*
X246394Y160429D02*
Y173429D01*
Y160429D02*
X254394D01*
X144681Y34976D02*
Y42976D01*
X157681D01*
X144681Y34976D02*
X157681D01*
Y42976D01*
X249610Y84583D02*
Y92583D01*
X236610Y84583D02*
X249610D01*
X236610Y92583D02*
X249610D01*
X236610Y84583D02*
Y92583D01*
X91138Y174346D02*
Y182346D01*
X104138D01*
X91138Y174346D02*
X104138D01*
Y182346D01*
X228343Y136158D02*
Y144158D01*
X241342D01*
X228343Y136158D02*
X241342D01*
Y144158D01*
X259844Y84373D02*
X267844D01*
Y71373D02*
Y84373D01*
X259844Y71373D02*
Y84373D01*
Y71373D02*
X267844D01*
X6236Y118902D02*
X14236D01*
Y105902D02*
Y118902D01*
X6236Y105902D02*
Y118902D01*
Y105902D02*
X14236D01*
X260181Y85079D02*
X268181D01*
X260181D02*
Y98079D01*
X268181Y85079D02*
Y98079D01*
X260181D02*
X268181D01*
X100243Y16819D02*
X108243D01*
X100243D02*
Y29819D01*
X108243Y16819D02*
Y29819D01*
X100243D02*
X108243D01*
X94992Y66309D02*
X102992D01*
Y53310D02*
Y66309D01*
X94992Y53310D02*
Y66309D01*
Y53310D02*
X102992D01*
X13783Y96000D02*
Y104000D01*
X783Y96000D02*
X13783D01*
X783Y104000D02*
X13783D01*
X783Y96000D02*
Y104000D01*
X251887Y85233D02*
X259887D01*
X251887D02*
Y98233D01*
X259887Y85233D02*
Y98233D01*
X251887D02*
X259887D01*
X100645Y30566D02*
Y38566D01*
X113645D01*
X100645Y30566D02*
X113645D01*
Y38566D01*
X125921Y36618D02*
X133921D01*
Y23618D02*
Y36618D01*
X125921Y23618D02*
Y36618D01*
Y23618D02*
X133921D01*
X27087Y91917D02*
X29929D01*
X30008Y80917D02*
Y91917D01*
X24165Y80917D02*
X30008D01*
X24165D02*
Y91917D01*
X27087D01*
X24402Y69106D02*
X27244D01*
X24323D02*
Y80106D01*
X30165D01*
Y69106D02*
Y80106D01*
X27244Y69106D02*
X30165D01*
X89433Y114850D02*
Y128850D01*
X81433D02*
X89433D01*
X81433Y114850D02*
Y123924D01*
Y128850D01*
X83433Y114850D02*
X87433D01*
X89433D01*
X81433D02*
X83433D01*
X46655Y96879D02*
X60655D01*
X46655Y88879D02*
Y96879D01*
X51581Y88879D02*
X60655D01*
X46655D02*
X51581D01*
X60655Y90879D02*
Y94879D01*
Y96879D01*
Y88879D02*
Y90879D01*
X92409Y137858D02*
X106409D01*
X92409Y129858D02*
Y137858D01*
X97336Y129858D02*
X106409D01*
X92409D02*
X97336D01*
X106409Y131858D02*
Y135858D01*
Y137858D01*
Y129858D02*
Y131858D01*
X92016Y95339D02*
X106016D01*
X92016Y87339D02*
Y95339D01*
X96942Y87339D02*
X106016D01*
X92016D02*
X96942D01*
X106016Y89339D02*
Y93339D01*
Y95339D01*
Y87339D02*
Y89339D01*
X254394Y175677D02*
Y189677D01*
X246394D02*
X254394D01*
X246394Y175677D02*
Y184751D01*
Y189677D01*
X248394Y175677D02*
X252394D01*
X254394D01*
X246394D02*
X248394D01*
X78284Y36898D02*
Y50898D01*
Y36898D02*
X86283D01*
Y41824D02*
Y50898D01*
Y36898D02*
Y41824D01*
X80283Y50898D02*
X84284D01*
X78284D02*
X80283D01*
X84284D02*
X86283D01*
X147528Y22898D02*
X161528D01*
X147528Y14898D02*
Y22898D01*
X152454Y14898D02*
X161528D01*
X147528D02*
X152454D01*
X161528Y16898D02*
Y20898D01*
Y22898D01*
Y14898D02*
Y16898D01*
X116079Y16228D02*
Y30228D01*
Y16228D02*
X124079D01*
Y21155D02*
Y30228D01*
Y16228D02*
Y21155D01*
X118079Y30228D02*
X122079D01*
X116079D02*
X118079D01*
X122079D02*
X124079D01*
X135370Y16622D02*
Y30622D01*
Y16622D02*
X143370D01*
Y21548D02*
Y30622D01*
Y16622D02*
Y21548D01*
X137370Y30622D02*
X141370D01*
X135370D02*
X137370D01*
X141370D02*
X143370D01*
X92606Y192976D02*
X106606D01*
X92606Y184976D02*
Y192976D01*
X97532Y184976D02*
X106606D01*
X92606D02*
X97532D01*
X106606Y186976D02*
Y190976D01*
Y192976D01*
Y184976D02*
Y186976D01*
X158748Y33528D02*
X172748D01*
X158748Y25528D02*
Y33528D01*
X163674Y25528D02*
X172748D01*
X158748D02*
X163674D01*
X172748Y27528D02*
Y31528D01*
Y33528D01*
Y25528D02*
Y27528D01*
X81827Y166819D02*
Y180819D01*
Y166819D02*
X89827D01*
Y171745D02*
Y180819D01*
Y166819D02*
Y171745D01*
X83827Y180819D02*
X87827D01*
X81827D02*
X83827D01*
X87827D02*
X89827D01*
X81827Y68197D02*
Y82197D01*
Y68197D02*
X89827D01*
Y73123D02*
Y82197D01*
Y68197D02*
Y73123D01*
X83827Y82197D02*
X87827D01*
X81827D02*
X83827D01*
X87827D02*
X89827D01*
X14803Y119609D02*
X28803D01*
X14803Y111609D02*
Y119609D01*
X19729Y111609D02*
X28803D01*
X14803D02*
X19729D01*
X28803Y113609D02*
Y117609D01*
Y119609D01*
Y111609D02*
Y113609D01*
X31386Y99276D02*
X45386D01*
X31386Y91276D02*
Y99276D01*
X36312Y91276D02*
X45386D01*
X31386D02*
X36312D01*
X45386Y93276D02*
Y97276D01*
Y99276D01*
Y91276D02*
Y93276D01*
X259906Y70756D02*
Y84756D01*
X251905D02*
X259906D01*
X251905Y70756D02*
Y79830D01*
Y84756D01*
X253906Y70756D02*
X257906D01*
X259906D01*
X251905D02*
X253906D01*
X87339Y36898D02*
Y50898D01*
Y36898D02*
X95339D01*
Y41824D02*
Y50898D01*
Y36898D02*
Y41824D01*
X89339Y50898D02*
X93339D01*
X87339D02*
X89339D01*
X93339D02*
X95339D01*
X228039Y134709D02*
X242039D01*
X228039Y126709D02*
Y134709D01*
X232966Y126709D02*
X242039D01*
X228039D02*
X232966D01*
X242039Y128709D02*
Y132709D01*
Y134709D01*
Y126709D02*
Y128709D01*
X73072Y68325D02*
Y82325D01*
Y68325D02*
X81072D01*
Y73251D02*
Y82325D01*
Y68325D02*
Y73251D01*
X75072Y82325D02*
X79072D01*
X73072D02*
X75072D01*
X79072D02*
X81072D01*
X37402Y31890D02*
X38713D01*
X38058D01*
Y35825D01*
X37402Y35170D01*
X49268Y173378D02*
X50580D01*
X49924D01*
Y177314D01*
X49268Y176658D01*
X26917Y134723D02*
X28229D01*
X27573D01*
Y138659D01*
X26917Y138003D01*
X243779Y182559D02*
X245091D01*
X244436D01*
Y186495D01*
X243779Y185839D01*
X2362Y149606D02*
X3674D01*
X3018D01*
Y153542D01*
X2362Y152886D01*
X1973Y178893D02*
X3285Y178885D01*
X2629Y178889D01*
X2654Y182824D01*
X1994Y182173D01*
X161787Y208213D02*
Y206901D01*
Y207557D01*
X165723D01*
X165067Y208213D01*
X247787D02*
Y206901D01*
Y207557D01*
X251723D01*
X251067Y208213D01*
X202213Y1787D02*
Y3099D01*
Y2443D01*
X198277D01*
X198933Y1787D01*
X112213D02*
Y3099D01*
Y2443D01*
X108277D01*
X108933Y1787D01*
X64305Y28346D02*
X62993D01*
X63649D01*
Y25066D01*
X62993Y24410D01*
X62337D01*
X61681Y25066D01*
X65617Y24410D02*
Y28346D01*
X67585D01*
X68241Y27690D01*
Y26378D01*
X67585Y25722D01*
X65617D01*
X71521Y24410D02*
Y28346D01*
X69553Y26378D01*
X72177D01*
X67061Y146850D02*
X65749D01*
X66405D01*
Y143570D01*
X65749Y142914D01*
X65093D01*
X64437Y143570D01*
X68373Y142914D02*
Y146850D01*
X70341D01*
X70997Y146194D01*
Y144882D01*
X70341Y144226D01*
X68373D01*
X72309Y146194D02*
X72965Y146850D01*
X74277D01*
X74933Y146194D01*
Y145538D01*
X74277Y144882D01*
X73621D01*
X74277D01*
X74933Y144226D01*
Y143570D01*
X74277Y142914D01*
X72965D01*
X72309Y143570D01*
X7376Y145510D02*
X6064D01*
X6720D01*
Y142230D01*
X6064Y141574D01*
X5408D01*
X4752Y142230D01*
X8688Y141574D02*
Y145510D01*
X10656D01*
X11312Y144854D01*
Y143542D01*
X10656Y142886D01*
X8688D01*
X15248Y141574D02*
X12624D01*
X15248Y144198D01*
Y144854D01*
X14592Y145510D01*
X13280D01*
X12624Y144854D01*
X258662Y194881D02*
X257350D01*
X258006D01*
Y191602D01*
X257350Y190945D01*
X256694D01*
X256038Y191602D01*
X259974Y190945D02*
Y194881D01*
X261942D01*
X262598Y194225D01*
Y192913D01*
X261942Y192257D01*
X259974D01*
X263910Y190945D02*
X265222D01*
X264566D01*
Y194881D01*
X263910Y194225D01*
X26116Y67322D02*
X24804D01*
X25460D01*
Y64042D01*
X24804Y63386D01*
X24148D01*
X23492Y64042D01*
X27428Y67322D02*
X30051D01*
Y66666D01*
X27428Y64042D01*
Y63386D01*
X39108Y162204D02*
X37796D01*
X38452D01*
Y158924D01*
X37796Y158268D01*
X37140D01*
X36484Y158924D01*
X43044Y162204D02*
X41732Y161548D01*
X40420Y160236D01*
Y158924D01*
X41076Y158268D01*
X42388D01*
X43044Y158924D01*
Y159580D01*
X42388Y160236D01*
X40420D01*
X39108Y191732D02*
X37796D01*
X38452D01*
Y188452D01*
X37796Y187796D01*
X37140D01*
X36484Y188452D01*
X43044Y191732D02*
X40420D01*
Y189764D01*
X41732Y190420D01*
X42388D01*
X43044Y189764D01*
Y188452D01*
X42388Y187796D01*
X41076D01*
X40420Y188452D01*
X122179Y193306D02*
X120867D01*
X121523D01*
Y190027D01*
X120867Y189371D01*
X120211D01*
X119555Y190027D01*
X125459Y189371D02*
Y193306D01*
X123491Y191339D01*
X126114D01*
X198557Y192913D02*
X197245D01*
X197901D01*
Y189633D01*
X197245Y188977D01*
X196589D01*
X195933Y189633D01*
X199869Y192257D02*
X200524Y192913D01*
X201836D01*
X202492Y192257D01*
Y191601D01*
X201836Y190945D01*
X201181D01*
X201836D01*
X202492Y190289D01*
Y189633D01*
X201836Y188977D01*
X200524D01*
X199869Y189633D01*
X223753Y20865D02*
X222442D01*
X223097D01*
Y17586D01*
X222442Y16930D01*
X221786D01*
X221130Y17586D01*
X227689Y16930D02*
X225065D01*
X227689Y19554D01*
Y20210D01*
X227033Y20865D01*
X225721D01*
X225065Y20210D01*
X169685Y20865D02*
X168373D01*
X169029D01*
Y17586D01*
X168373Y16930D01*
X167717D01*
X167061Y17586D01*
X170997Y16930D02*
X172309D01*
X171653D01*
Y20865D01*
X170997Y20210D01*
D11*
X78630Y104610D02*
G03*
X78630Y104610I-500J0D01*
G01*
X40748Y29646D02*
X70248D01*
X40748Y39646D02*
X70248D01*
Y36146D02*
Y39646D01*
Y29646D02*
Y33146D01*
Y36146D01*
X64748Y29646D02*
X70248D01*
X40748D02*
Y39646D01*
X58980Y141091D02*
X62480D01*
Y180591D01*
X58980D02*
X62480D01*
X52480D02*
X55980D01*
X52480Y141091D02*
X55980D01*
X58980D01*
X52480D02*
Y144591D01*
X55980Y180591D02*
X58980D01*
X52480Y141091D02*
Y180591D01*
X5500Y119646D02*
Y125646D01*
Y133646D02*
Y139646D01*
Y125646D02*
Y133646D01*
X255630Y160146D02*
Y189646D01*
X265630Y160146D02*
Y189646D01*
X262130Y160146D02*
X265630D01*
X255630D02*
X259130D01*
X262130D01*
X255630D02*
Y165646D01*
Y189646D02*
X265630D01*
X-7075Y79134D02*
X-6075Y80134D01*
X-5575Y80634D01*
X-7075Y81134D02*
X-6075Y80134D01*
X-9575D02*
X-6075D01*
X-5575Y68134D02*
X-4075D01*
X-5575Y92634D02*
X-4075D01*
X-10075Y61134D02*
X-5575D01*
Y98134D01*
X-9575D02*
X-5575D01*
X2925Y63634D02*
Y94634D01*
X425Y63634D02*
Y94634D01*
X-1575Y63634D02*
X3925D01*
X-1575D02*
Y94634D01*
X3925D01*
X20425Y71134D02*
Y72134D01*
Y86134D02*
Y87134D01*
X13425Y63634D02*
X14425D01*
X13425Y94634D02*
X14425D01*
X170000Y195000D02*
Y205000D01*
X68000Y195000D02*
X170000D01*
X68000D02*
Y205000D01*
X70000D01*
X170000D01*
X174000Y195000D02*
Y205000D01*
X175500D02*
X256000D01*
X174000D02*
X176500D01*
X256000Y195000D02*
Y205000D01*
X174000Y195000D02*
X256000D01*
Y11500D02*
Y15000D01*
Y5000D02*
Y8500D01*
Y11500D01*
X252000Y5000D02*
X256000D01*
X194000D02*
Y15000D01*
Y5000D02*
X254500D01*
X204000D02*
X254500D01*
X194000Y15000D02*
X256000D01*
X186000Y5000D02*
Y15000D01*
X104000Y5000D02*
X184500D01*
X183500D02*
X186000D01*
X104000D02*
Y15000D01*
X186000D01*
X49886Y50177D02*
X50886D01*
X75386D02*
X76886D01*
Y65177D01*
X71386D02*
X76886D01*
X49886D02*
X55386D01*
X49886Y50177D02*
Y65177D01*
X76138Y172713D02*
Y175713D01*
X69638Y167713D02*
X76138D01*
X69138Y180713D02*
X76138D01*
X39432Y7963D02*
Y27463D01*
X17432Y7463D02*
X20432Y4463D01*
X23932D01*
X35932D02*
X39432Y7963D01*
X32932Y4463D02*
X35932D01*
X17432Y7463D02*
Y27463D01*
X23431D01*
X32932D02*
X39432D01*
X260914Y108043D02*
Y116042D01*
X240414Y121043D02*
X255914D01*
X240414Y103542D02*
X255914D01*
X234914Y108043D02*
Y116042D01*
X89918Y58368D02*
Y61369D01*
X83418Y53369D02*
X89918D01*
X82918Y66369D02*
X89918D01*
X21729Y107028D02*
X24729D01*
X29729Y100528D02*
Y107028D01*
X16729Y100028D02*
Y107028D01*
X80449Y31398D02*
X88449D01*
X75449Y10898D02*
Y26398D01*
X92949Y10898D02*
Y26398D01*
X80449Y5398D02*
X88449D01*
X33240Y59031D02*
X39740D01*
X17740D02*
X23740D01*
X17740Y39031D02*
Y59031D01*
X33240Y36031D02*
X36240D01*
X39740Y39531D01*
X20740Y36031D02*
X24240D01*
X17740Y39031D02*
X20740Y36031D01*
X39740Y39531D02*
Y59031D01*
X266146Y58508D02*
Y65508D01*
X253146Y58508D02*
Y65008D01*
X258146Y58508D02*
X261146D01*
X74630Y131110D02*
Y132110D01*
X73630D02*
X74630D01*
X46630D02*
X47630D01*
X46630Y131110D02*
Y132110D01*
Y104110D02*
Y105110D01*
Y104110D02*
X47630D01*
X74130Y103610D02*
X75630Y105110D01*
X163205Y147457D02*
Y153455D01*
X167203Y147457D01*
Y153455D01*
X172202Y147457D02*
X170203D01*
X169203Y148456D01*
Y150456D01*
X170203Y151455D01*
X172202D01*
X173202Y150456D01*
Y149456D01*
X169203D01*
X178200Y147457D02*
X176200D01*
X175201Y148456D01*
Y150456D01*
X176200Y151455D01*
X178200D01*
X179200Y150456D01*
Y149456D01*
X175201D01*
X181199Y147457D02*
X183198D01*
X182199D01*
Y153455D01*
X181199D01*
X190196D02*
Y147457D01*
X187197D01*
X186197Y148456D01*
Y150456D01*
X187197Y151455D01*
X190196D01*
X192195D02*
Y148456D01*
X193195Y147457D01*
X196194D01*
Y151455D01*
X198193Y147457D02*
X200193D01*
X199193D01*
Y151455D01*
X198193D01*
X203192Y147457D02*
Y151455D01*
X206191D01*
X207190Y150456D01*
Y147457D01*
X210190D02*
X212189D01*
X213189Y148456D01*
Y150456D01*
X212189Y151455D01*
X210190D01*
X209190Y150456D01*
Y148456D01*
X210190Y147457D01*
X169898Y162024D02*
Y168022D01*
X173896Y162024D01*
Y168022D01*
X178895Y162024D02*
X176895D01*
X175896Y163023D01*
Y165023D01*
X176895Y166022D01*
X178895D01*
X179894Y165023D01*
Y164023D01*
X175896D01*
X184893Y162024D02*
X182893D01*
X181894Y163023D01*
Y165023D01*
X182893Y166022D01*
X184893D01*
X185892Y165023D01*
Y164023D01*
X181894D01*
X187892Y162024D02*
X189891D01*
X188891D01*
Y168022D01*
X187892D01*
X198888D02*
Y162024D01*
X201887D01*
X202887Y163023D01*
Y164023D01*
X201887Y165023D01*
X198888D01*
X201887D01*
X202887Y166022D01*
Y167022D01*
X201887Y168022D01*
X198888D01*
D12*
X1756Y120598D02*
X3756D01*
X234818Y94888D02*
Y96888D01*
M02*
