G04*
G04 #@! TF.GenerationSoftware,Altium Limited,Altium Designer,22.1.2 (22)*
G04*
G04 Layer_Physical_Order=2*
G04 Layer_Color=16711680*
%FSLAX25Y25*%
%MOIN*%
G70*
G04*
G04 #@! TF.SameCoordinates,CB3FAF70-DFB5-4037-BA8D-DCE23A76FFA9*
G04*
G04*
G04 #@! TF.FilePolarity,Positive*
G04*
G01*
G75*
%ADD12C,0.01575*%
%ADD16R,0.07480X0.07480*%
%ADD61C,0.07480*%
%ADD62R,0.07480X0.07480*%
%ADD69C,0.01181*%
%ADD70O,0.06299X0.07874*%
%ADD71R,0.06299X0.07874*%
%ADD72C,0.12598*%
%ADD73O,0.07874X0.06299*%
%ADD74R,0.07874X0.06299*%
%ADD75C,0.06693*%
%ADD76R,0.06693X0.06693*%
G04:AMPARAMS|DCode=77|XSize=78.74mil|YSize=47.24mil|CornerRadius=11.81mil|HoleSize=0mil|Usage=FLASHONLY|Rotation=0.000|XOffset=0mil|YOffset=0mil|HoleType=Round|Shape=RoundedRectangle|*
%AMROUNDEDRECTD77*
21,1,0.07874,0.02362,0,0,0.0*
21,1,0.05512,0.04724,0,0,0.0*
1,1,0.02362,0.02756,-0.01181*
1,1,0.02362,-0.02756,-0.01181*
1,1,0.02362,-0.02756,0.01181*
1,1,0.02362,0.02756,0.01181*
%
%ADD77ROUNDEDRECTD77*%
%ADD78C,0.15748*%
%ADD79C,0.29134*%
%ADD80C,0.02362*%
G36*
X18459Y200274D02*
X18252Y200219D01*
X17220Y199623D01*
X16377Y198780D01*
X15781Y197748D01*
X15473Y196596D01*
Y195404D01*
X15781Y194252D01*
X16377Y193220D01*
X17220Y192377D01*
X18252Y191781D01*
X19404Y191472D01*
X20079D01*
Y190527D01*
X19404D01*
X18252Y190219D01*
X17220Y189623D01*
X16377Y188780D01*
X15781Y187748D01*
X15473Y186596D01*
Y185404D01*
X15781Y184252D01*
X16377Y183220D01*
X17220Y182377D01*
X18252Y181781D01*
X19404Y181473D01*
X20079D01*
Y168504D01*
X21893Y166690D01*
X21623Y166252D01*
X20596Y166527D01*
X19404D01*
X18252Y166219D01*
X17220Y165623D01*
X16377Y164780D01*
X15781Y163748D01*
X15473Y162596D01*
Y161404D01*
X15781Y160252D01*
X16377Y159220D01*
X17220Y158377D01*
X18252Y157781D01*
X19404Y157473D01*
X20596D01*
X21748Y157781D01*
X22780Y158377D01*
X23623Y159220D01*
X24219Y160252D01*
X24528Y161404D01*
Y162596D01*
X24252Y163623D01*
X24690Y163893D01*
X25029Y163554D01*
X25029Y163554D01*
X25113Y163470D01*
X25114Y163463D01*
X25139Y163403D01*
X25139Y163403D01*
X25139Y163403D01*
X25193Y163273D01*
X25197Y163267D01*
X25197Y163149D01*
X25197Y163149D01*
Y155511D01*
Y148489D01*
Y111394D01*
X25197Y111394D01*
X25197Y111394D01*
Y95669D01*
X24803Y95276D01*
X18110D01*
Y66142D01*
X17717Y65748D01*
X28740Y54724D01*
X29134D01*
Y34646D01*
X38583D01*
Y53937D01*
X74410D01*
X79921Y48425D01*
X80686D01*
X80686Y48425D01*
X80686Y48425D01*
X100787D01*
X119291Y29921D01*
X121653Y32283D01*
X161417D01*
Y21654D01*
Y18898D01*
X162598Y17717D01*
X168110D01*
Y21123D01*
X168110Y21123D01*
X168260Y21347D01*
X168271Y21373D01*
X168324Y21453D01*
X168339Y21489D01*
X168898Y22047D01*
Y25069D01*
X170733Y26904D01*
X172569Y28740D01*
X243284D01*
X243284Y28740D01*
X243284Y28740D01*
X244242D01*
X244247Y28735D01*
X244253Y28726D01*
X244266Y28645D01*
X244274Y28623D01*
X244278Y28599D01*
X244278Y28599D01*
X244488Y27269D01*
Y12575D01*
X243988Y12476D01*
X243783Y12971D01*
X243089Y13876D01*
X242184Y14570D01*
X241130Y15007D01*
X240000Y15156D01*
X238870Y15007D01*
X237816Y14570D01*
X236911Y13876D01*
X236217Y12971D01*
X235781Y11918D01*
X235632Y10787D01*
Y9213D01*
X235781Y8082D01*
X236217Y7029D01*
X236911Y6124D01*
X237816Y5430D01*
X238870Y4993D01*
X240000Y4845D01*
X241130Y4993D01*
X242184Y5430D01*
X243089Y6124D01*
X243783Y7029D01*
X243988Y7524D01*
X244488Y7425D01*
Y3150D01*
X155929D01*
Y6583D01*
X156429Y6753D01*
X156911Y6124D01*
X157816Y5430D01*
X158870Y4993D01*
X160000Y4845D01*
X161130Y4993D01*
X162184Y5430D01*
X163089Y6124D01*
X163783Y7029D01*
X164219Y8082D01*
X164368Y9213D01*
Y10787D01*
X164219Y11918D01*
X163783Y12971D01*
X163089Y13876D01*
X162184Y14570D01*
X161130Y15007D01*
X160000Y15156D01*
X158870Y15007D01*
X157816Y14570D01*
X156911Y13876D01*
X156429Y13247D01*
X155929Y13417D01*
Y14961D01*
X155837Y15421D01*
X155576Y15812D01*
X155512Y15855D01*
Y17323D01*
X146063D01*
X145692Y17693D01*
Y20472D01*
Y25866D01*
X145669Y25982D01*
X145669Y26101D01*
X145661Y26120D01*
X145641Y26219D01*
X145604Y26309D01*
X145601Y26326D01*
X145597Y26332D01*
X145597Y26332D01*
X145594Y26340D01*
X145573Y26445D01*
X145507Y26544D01*
X145462Y26653D01*
X145378Y26737D01*
X145312Y26836D01*
X145276Y26860D01*
Y27165D01*
X144695D01*
X144695Y27165D01*
X144577Y27165D01*
X144460Y27189D01*
X144460Y27189D01*
X114985D01*
X114869Y27165D01*
X114750Y27165D01*
X114750Y27165D01*
X107681D01*
X107564Y27189D01*
X107446Y27189D01*
X107446Y27189D01*
X98425D01*
Y36614D01*
X87924D01*
X87924Y36614D01*
X86082Y38456D01*
X84241Y40297D01*
X84169Y40345D01*
X84111Y40409D01*
X84111Y40409D01*
X84081Y40424D01*
X84058Y40447D01*
X83948Y40492D01*
X83850Y40558D01*
X83843Y40560D01*
X83843Y40560D01*
X83641Y40644D01*
X83532Y40665D01*
X83424Y40710D01*
X83415Y40712D01*
X83415Y40712D01*
X83306Y40734D01*
X83265Y40751D01*
X82284Y41732D01*
X60630D01*
X59842Y40945D01*
Y28346D01*
X50787D01*
Y40945D01*
X40945D01*
X40551Y41339D01*
X40157Y40945D01*
Y33465D01*
X36220Y29528D01*
Y28857D01*
X36197Y28740D01*
X36197Y28740D01*
Y25984D01*
X25197D01*
X24803Y25591D01*
X24016Y26378D01*
X1575D01*
X1181Y26772D01*
Y44880D01*
X1227Y44894D01*
X1681Y44962D01*
X2889Y43754D01*
X4372Y42763D01*
X6020Y42080D01*
X7770Y41732D01*
X9553D01*
X11303Y42080D01*
X12951Y42763D01*
X14434Y43754D01*
X15695Y45015D01*
X16686Y46498D01*
X17368Y48146D01*
X17717Y49896D01*
Y51679D01*
X17368Y53429D01*
X16686Y55077D01*
X15695Y56560D01*
X14434Y57821D01*
X12951Y58812D01*
X11303Y59495D01*
X9553Y59842D01*
X7770D01*
X6020Y59495D01*
X4372Y58812D01*
X2889Y57821D01*
X1681Y56613D01*
X1227Y56681D01*
X1181Y56695D01*
Y200787D01*
X4411D01*
X4724Y200394D01*
X4724Y200394D01*
X14961Y200787D01*
X18442D01*
X18459Y200274D01*
D02*
G37*
G36*
X269291Y192520D02*
X180709D01*
X180315Y192126D01*
X173622Y191339D01*
X100614D01*
X100394Y191559D01*
Y208268D01*
X269291D01*
Y192520D01*
D02*
G37*
G36*
X111811Y171260D02*
X122835D01*
Y168242D01*
X122800Y168067D01*
Y164816D01*
X122157Y164173D01*
X112992D01*
X87402Y189764D01*
X83465D01*
X81890Y188189D01*
X90551Y179528D01*
Y178740D01*
X86614Y174803D01*
X75197Y186221D01*
X48425D01*
Y171260D01*
X59865D01*
X60039Y171225D01*
X64961D01*
Y150000D01*
X51181D01*
Y153543D01*
X45669Y159055D01*
Y188976D01*
X80709D01*
X83465Y191732D01*
X91339D01*
X111811Y171260D01*
D02*
G37*
G36*
X42126Y159843D02*
X49606Y152362D01*
Y149213D01*
X50287D01*
X50330Y149148D01*
X50720Y148887D01*
X51181Y148796D01*
X53063D01*
X53310Y148296D01*
X52910Y147775D01*
X52474Y146721D01*
X52325Y145591D01*
X52474Y144460D01*
X52910Y143406D01*
X53604Y142502D01*
X54509Y141808D01*
X55562Y141371D01*
X56693Y141223D01*
X58268D01*
X59398Y141371D01*
X60452Y141808D01*
X61356Y142502D01*
X62051Y143406D01*
X62487Y144460D01*
X62636Y145591D01*
X62487Y146721D01*
X62051Y147775D01*
X61651Y148296D01*
X61897Y148796D01*
X63015D01*
X63779Y148031D01*
X65748D01*
Y149106D01*
X65812Y149148D01*
X66073Y149539D01*
X66165Y150000D01*
Y170102D01*
X66929Y170866D01*
X75590D01*
Y174016D01*
X77559Y175984D01*
X80112D01*
X81513Y174583D01*
Y166946D01*
X77165Y162598D01*
X74803D01*
Y134252D01*
X80315Y128740D01*
X83071D01*
X88583Y134252D01*
X111811Y134252D01*
X113779Y132283D01*
X119685D01*
Y146457D01*
X119848Y146850D01*
X136221D01*
Y149426D01*
X136236Y149436D01*
X136928Y150128D01*
X137319Y150714D01*
X137457Y151406D01*
Y154386D01*
X137922Y154851D01*
X198708D01*
Y148846D01*
X198731Y148731D01*
X198425Y148425D01*
X199147Y147704D01*
X199237Y147569D01*
X200051Y146754D01*
X200186Y146664D01*
X205118Y141732D01*
X227028D01*
X227295Y141232D01*
X227221Y141120D01*
X227068Y140352D01*
Y91635D01*
X219685Y84252D01*
X218898D01*
Y81933D01*
X218398Y81833D01*
X218133Y82472D01*
X217439Y83376D01*
X216534Y84070D01*
X215481Y84507D01*
X214350Y84655D01*
X213220Y84507D01*
X212166Y84070D01*
X211262Y83376D01*
X210567Y82472D01*
X210131Y81418D01*
X209982Y80287D01*
Y78713D01*
X210131Y77582D01*
X210567Y76529D01*
X211262Y75624D01*
X212166Y74930D01*
X213220Y74493D01*
X214350Y74344D01*
X215481Y74493D01*
X216534Y74930D01*
X217439Y75624D01*
X218133Y76529D01*
X218398Y77167D01*
X218898Y77067D01*
Y64567D01*
X227165Y56299D01*
X228463Y57596D01*
X228881Y57770D01*
X229379Y58268D01*
X248031D01*
Y74382D01*
X248681D01*
Y75984D01*
X252362D01*
Y56693D01*
X230315D01*
Y51862D01*
X230131Y51418D01*
X229982Y50287D01*
Y48713D01*
X230131Y47582D01*
X230315Y47138D01*
Y42520D01*
X233050Y39785D01*
X233071Y39680D01*
Y36614D01*
X242520D01*
X243701Y35433D01*
X255512Y47244D01*
X262992D01*
Y53937D01*
X264173Y55118D01*
X269291D01*
Y44275D01*
X267323Y42307D01*
Y2756D01*
X246124D01*
X245692Y3150D01*
Y6989D01*
X246192Y7088D01*
X246217Y7029D01*
X246911Y6124D01*
X247816Y5430D01*
X248869Y4993D01*
X250000Y4845D01*
X251131Y4993D01*
X252184Y5430D01*
X253089Y6124D01*
X253783Y7029D01*
X254219Y8082D01*
X254368Y9213D01*
Y10787D01*
X254219Y11918D01*
X253783Y12971D01*
X253089Y13876D01*
X252184Y14570D01*
X251131Y15007D01*
X250000Y15156D01*
X248869Y15007D01*
X247816Y14570D01*
X246911Y13876D01*
X246217Y12971D01*
X246192Y12912D01*
X245692Y13011D01*
Y27269D01*
X245674Y27362D01*
X245678Y27457D01*
X245467Y28787D01*
X245467Y28787D01*
X245463Y28811D01*
X245455Y28833D01*
X245442Y28914D01*
X245409Y29003D01*
X245404Y29040D01*
X245395Y29062D01*
X245381Y29085D01*
X245358Y29199D01*
X245311Y29269D01*
X245280Y29355D01*
X245274Y29364D01*
X245176Y29470D01*
X245096Y29589D01*
X245091Y29594D01*
X245014Y29645D01*
X244955Y29709D01*
X244882Y29743D01*
Y29921D01*
X244358D01*
X244242Y29944D01*
X243284D01*
X243284Y29944D01*
X242126Y31102D01*
X173228D01*
X169882Y27756D01*
X168046Y25920D01*
X168046Y25920D01*
X167323Y25197D01*
Y22122D01*
X167323Y22122D01*
X167269Y22042D01*
X167259Y22016D01*
X167109Y21792D01*
X167080Y21722D01*
X167033Y21661D01*
X167031Y21654D01*
X162622D01*
Y32283D01*
X162598Y32400D01*
Y33858D01*
X118110D01*
X102362Y49606D01*
X100904D01*
X100787Y49630D01*
X100787Y49629D01*
X80686D01*
X80686Y49629D01*
X75197Y55118D01*
X74526D01*
X74410Y55141D01*
X74409Y55141D01*
X38583D01*
Y61788D01*
Y62992D01*
X37124D01*
X37008Y63015D01*
X29551D01*
Y87425D01*
X29551Y87425D01*
X29921Y87795D01*
Y93307D01*
X29551D01*
Y93428D01*
X29526Y93551D01*
X29525Y93675D01*
X29481Y93779D01*
X29459Y93889D01*
X29390Y93993D01*
X29341Y94108D01*
X29261Y94186D01*
X29198Y94280D01*
X29094Y94349D01*
X29005Y94436D01*
X28588Y94709D01*
X28484Y94751D01*
X28390Y94813D01*
X28303Y94831D01*
X28222Y94869D01*
X28222Y94869D01*
X28186Y94871D01*
X28152Y94884D01*
X28040Y94883D01*
X27930Y94905D01*
X26772Y96063D01*
Y109843D01*
X27165D01*
X27559Y110236D01*
X26401Y111394D01*
X26401Y111394D01*
Y148543D01*
X26863Y148734D01*
X27220Y148377D01*
X28252Y147781D01*
X29404Y147473D01*
X30596D01*
X31748Y147781D01*
X32780Y148377D01*
X33623Y149220D01*
X34219Y150252D01*
X34528Y151404D01*
Y152596D01*
X34219Y153748D01*
X33623Y154780D01*
X32780Y155623D01*
X31748Y156219D01*
X30596Y156527D01*
X29404D01*
X28252Y156219D01*
X27220Y155623D01*
X26863Y155266D01*
X26401Y155457D01*
Y163149D01*
X26401Y163149D01*
X26401Y163267D01*
X26378Y163384D01*
X26378Y163503D01*
X26333Y163612D01*
X26309Y163728D01*
X26306Y163734D01*
X26306Y163734D01*
X26252Y163864D01*
X26252Y163864D01*
X26252Y163864D01*
X26227Y163924D01*
X26227Y163924D01*
X26226Y163931D01*
X26165Y164022D01*
X26151Y164055D01*
X26147Y164060D01*
X26114Y164138D01*
X26030Y164222D01*
X25984Y164292D01*
Y165354D01*
X24016Y167323D01*
Y183900D01*
X24219Y184252D01*
X24528Y185404D01*
Y186596D01*
X24219Y187748D01*
X24016Y188100D01*
Y193900D01*
X24219Y194252D01*
X24528Y195404D01*
Y196596D01*
X24219Y197748D01*
X24016Y198100D01*
Y201181D01*
X24409Y201575D01*
X24016Y201969D01*
X18558D01*
X18442Y201992D01*
X14961D01*
X14938Y201987D01*
X14914Y201991D01*
X14336Y201969D01*
X4595D01*
X4547Y201984D01*
X4478Y201978D01*
X4411Y201992D01*
X2362D01*
Y206299D01*
Y207874D01*
X42126D01*
Y159843D01*
D02*
G37*
G36*
X27930Y93701D02*
X28346Y93428D01*
Y87425D01*
X28346Y87425D01*
X28346Y87425D01*
Y63015D01*
Y61811D01*
X37008D01*
X37124Y61788D01*
X37378D01*
Y55141D01*
X37402Y55025D01*
Y54053D01*
X37378Y53937D01*
Y35850D01*
X31496D01*
Y56693D01*
X29921D01*
X20472Y66142D01*
Y93701D01*
X27930D01*
X27930Y93701D01*
D02*
G37*
G36*
X82637Y39732D02*
X82706Y39704D01*
X82804Y39638D01*
X82804D01*
X82804Y39638D01*
X82846Y39621D01*
X82962Y39598D01*
X82962Y39598D01*
X82963Y39598D01*
X83071Y39552D01*
X83180Y39531D01*
X83180Y39531D01*
X83382Y39447D01*
X83389Y39446D01*
X83389Y39446D01*
X85230Y37604D01*
X85230Y37604D01*
X87072Y35763D01*
X87072Y35763D01*
X88189Y34646D01*
Y25984D01*
X107446D01*
X107446Y25984D01*
X107564Y25984D01*
X107681Y25961D01*
X114750D01*
X114750Y25961D01*
X114869Y25961D01*
X114985Y25984D01*
X144037D01*
X144488Y25747D01*
X144488Y25747D01*
Y20472D01*
Y17693D01*
Y15038D01*
X144473Y14961D01*
Y6039D01*
X144463Y6025D01*
X144435Y5958D01*
X144369Y5931D01*
X144354Y5921D01*
X135158D01*
X135152Y5925D01*
X135145Y5928D01*
X135039Y5949D01*
X135039Y5949D01*
Y14567D01*
X132188D01*
X132184Y14570D01*
X131131Y15007D01*
X130000Y15156D01*
X128869Y15007D01*
X127816Y14570D01*
X127812Y14567D01*
X122188D01*
X122184Y14570D01*
X121131Y15007D01*
X120000Y15156D01*
X118869Y15007D01*
X117816Y14570D01*
X117812Y14567D01*
X114331D01*
Y15118D01*
X105669D01*
Y14567D01*
X85955D01*
X85426Y15096D01*
X85327Y15162D01*
X85243Y15246D01*
X84956Y15438D01*
X79628Y20765D01*
X74534Y25860D01*
X74546Y26027D01*
X74801Y26476D01*
X76097D01*
X77348Y26812D01*
X78470Y27460D01*
X79387Y28376D01*
X80035Y29498D01*
X80370Y30750D01*
Y32046D01*
X80035Y33297D01*
X79387Y34419D01*
X78470Y35336D01*
X77348Y35983D01*
X76097Y36319D01*
X74801D01*
X73549Y35983D01*
X72427Y35336D01*
X71511Y34419D01*
X70863Y33297D01*
X70528Y32046D01*
Y30750D01*
X70634Y30355D01*
X70232Y29921D01*
X61417D01*
Y39764D01*
X82606D01*
X82637Y39732D01*
D02*
G37*
G36*
X49213Y26378D02*
X72441D01*
X73191Y25628D01*
X73276Y25501D01*
X73346Y25360D01*
X73405Y25307D01*
X73449Y25241D01*
X84104Y14587D01*
X84203Y14521D01*
X84286Y14437D01*
X84574Y14245D01*
X86221Y12598D01*
X103937D01*
Y5118D01*
X105669D01*
Y4882D01*
X114331D01*
Y5118D01*
X118568D01*
X118869Y4993D01*
X120000Y4845D01*
X121131Y4993D01*
X121432Y5118D01*
X128568D01*
X128869Y4993D01*
X130000Y4845D01*
X131131Y4993D01*
X131432Y5118D01*
X134174D01*
X134188Y5097D01*
X134286Y5031D01*
X134370Y4948D01*
X134379Y4942D01*
X134379Y4942D01*
X134379Y4941D01*
X134489Y4896D01*
X134579Y4836D01*
X134684Y4815D01*
X134692Y4812D01*
X134697Y4808D01*
X134704Y4807D01*
X134813Y4762D01*
X134813D01*
X134813Y4762D01*
X134923Y4740D01*
X135042D01*
X135158Y4717D01*
X144354D01*
X144471Y4740D01*
X144589D01*
X144688Y4760D01*
X144798Y4805D01*
X144815Y4808D01*
X144830Y4818D01*
X145122Y4939D01*
X145454Y5272D01*
X145575Y5564D01*
X145585Y5579D01*
X145589Y5596D01*
X145634Y5706D01*
X145654Y5805D01*
Y5923D01*
X145677Y6039D01*
Y14961D01*
X154724D01*
Y787D01*
X95478D01*
X95230Y1242D01*
X95243Y1287D01*
X96329Y1914D01*
X97245Y2831D01*
X97893Y3953D01*
X98228Y5204D01*
Y6500D01*
X97893Y7752D01*
X97245Y8874D01*
X96329Y9790D01*
X95207Y10438D01*
X93955Y10774D01*
X92659D01*
X91408Y10438D01*
X90285Y9790D01*
X89369Y8874D01*
X88721Y7752D01*
X88386Y6500D01*
Y5204D01*
X88721Y3953D01*
X89369Y2831D01*
X90285Y1914D01*
X91371Y1287D01*
X91384Y1242D01*
X91136Y787D01*
X77762D01*
X77514Y1242D01*
X77526Y1287D01*
X78612Y1914D01*
X79528Y2831D01*
X80176Y3953D01*
X80512Y5204D01*
Y6500D01*
X80176Y7752D01*
X79528Y8874D01*
X78612Y9790D01*
X77490Y10438D01*
X76239Y10774D01*
X74943D01*
X73691Y10438D01*
X72569Y9790D01*
X71653Y8874D01*
X71128Y7966D01*
X70649Y8136D01*
X70748Y8761D01*
Y11239D01*
X70360Y13688D01*
X69594Y16045D01*
X68469Y18254D01*
X67012Y20259D01*
X65259Y22012D01*
X63254Y23469D01*
X61045Y24594D01*
X58688Y25360D01*
X56239Y25748D01*
X53761D01*
X51312Y25360D01*
X48955Y24594D01*
X46746Y23469D01*
X44741Y22012D01*
X42988Y20259D01*
X41531Y18254D01*
X40406Y16045D01*
X39640Y13688D01*
X39252Y11239D01*
Y8761D01*
X39640Y6312D01*
X40406Y3955D01*
X41531Y1746D01*
X41904Y1233D01*
X41677Y787D01*
X1575D01*
Y24150D01*
X2037Y24341D01*
X2362Y24016D01*
X37402D01*
Y28740D01*
X42126Y33465D01*
Y38976D01*
X49213D01*
Y26378D01*
D02*
G37*
%LPC*%
G36*
X14527Y190527D02*
X5472D01*
Y181473D01*
X14527D01*
Y190527D01*
D02*
G37*
G36*
X10000Y164007D02*
X9232Y163854D01*
X8581Y163419D01*
X7602Y162440D01*
X7166Y161789D01*
X7014Y161021D01*
X7166Y160253D01*
X7602Y159601D01*
X8253Y159166D01*
X9021Y159014D01*
X9789Y159166D01*
X10440Y159601D01*
X11419Y160581D01*
X11854Y161232D01*
X12007Y162000D01*
X11854Y162768D01*
X11419Y163419D01*
X10768Y163854D01*
X10000Y164007D01*
D02*
G37*
G36*
X20596Y156527D02*
X19404D01*
X18252Y156219D01*
X17220Y155623D01*
X16377Y154780D01*
X15781Y153748D01*
X15473Y152596D01*
Y151404D01*
X15781Y150252D01*
X16377Y149220D01*
X17220Y148377D01*
X18252Y147781D01*
X19404Y147473D01*
X20596D01*
X21748Y147781D01*
X22780Y148377D01*
X23623Y149220D01*
X24219Y150252D01*
X24528Y151404D01*
Y152596D01*
X24219Y153748D01*
X23623Y154780D01*
X22780Y155623D01*
X21748Y156219D01*
X20596Y156527D01*
D02*
G37*
G36*
X14527D02*
X5472D01*
Y147473D01*
X14527D01*
Y156527D01*
D02*
G37*
G36*
X24528Y139173D02*
X15473D01*
Y130118D01*
X24528D01*
Y139173D01*
D02*
G37*
G36*
X10596D02*
X9404D01*
X8252Y138865D01*
X7220Y138269D01*
X6377Y137426D01*
X5781Y136393D01*
X5472Y135242D01*
Y134050D01*
X5781Y132898D01*
X6377Y131866D01*
X7220Y131023D01*
X8252Y130427D01*
X9404Y130118D01*
X10596D01*
X11748Y130427D01*
X12780Y131023D01*
X13623Y131866D01*
X14219Y132898D01*
X14527Y134050D01*
Y135242D01*
X14219Y136393D01*
X13623Y137426D01*
X12780Y138269D01*
X11748Y138865D01*
X10596Y139173D01*
D02*
G37*
G36*
X20596Y129173D02*
X19404D01*
X18252Y128865D01*
X17220Y128269D01*
X16377Y127426D01*
X15781Y126393D01*
X15473Y125242D01*
Y124050D01*
X15781Y122898D01*
X16377Y121866D01*
X17220Y121023D01*
X18252Y120427D01*
X19404Y120118D01*
X20596D01*
X21748Y120427D01*
X22780Y121023D01*
X23623Y121866D01*
X24219Y122898D01*
X24528Y124050D01*
Y125242D01*
X24219Y126393D01*
X23623Y127426D01*
X22780Y128269D01*
X21748Y128865D01*
X20596Y129173D01*
D02*
G37*
G36*
X10596D02*
X9404D01*
X8252Y128865D01*
X7220Y128269D01*
X6377Y127426D01*
X5781Y126393D01*
X5472Y125242D01*
Y124050D01*
X5781Y122898D01*
X6377Y121866D01*
X7220Y121023D01*
X8252Y120427D01*
X9404Y120118D01*
X10596D01*
X11748Y120427D01*
X12780Y121023D01*
X13623Y121866D01*
X14219Y122898D01*
X14527Y124050D01*
Y125242D01*
X14219Y126393D01*
X13623Y127426D01*
X12780Y128269D01*
X11748Y128865D01*
X10596Y129173D01*
D02*
G37*
G36*
X11415Y95716D02*
X5903D01*
X4982Y95532D01*
X4200Y95010D01*
X3678Y94229D01*
X3495Y93307D01*
Y90945D01*
X3678Y90023D01*
X4200Y89242D01*
X4982Y88720D01*
X5903Y88536D01*
X6652D01*
Y69731D01*
X5903D01*
X4982Y69548D01*
X4200Y69026D01*
X3678Y68244D01*
X3495Y67323D01*
Y64961D01*
X3678Y64039D01*
X4200Y63258D01*
X4982Y62735D01*
X5903Y62552D01*
X11415D01*
X12337Y62735D01*
X13118Y63258D01*
X13641Y64039D01*
X13824Y64961D01*
Y67323D01*
X13641Y68244D01*
X13118Y69026D01*
X12337Y69548D01*
X11415Y69731D01*
X10667D01*
Y88536D01*
X11415D01*
X12337Y88720D01*
X13118Y89242D01*
X13641Y90023D01*
X13824Y90945D01*
Y93307D01*
X13641Y94229D01*
X13118Y95010D01*
X12337Y95532D01*
X11415Y95716D01*
D02*
G37*
G36*
X55748Y38520D02*
X54980Y38367D01*
X54329Y37932D01*
X53894Y37281D01*
X53741Y36513D01*
Y35771D01*
X53659Y35648D01*
X53506Y34880D01*
X53659Y34112D01*
X54094Y33461D01*
X54329Y33226D01*
X54980Y32791D01*
X55748Y32639D01*
X56516Y32791D01*
X57167Y33226D01*
X57602Y33878D01*
X57755Y34646D01*
Y36513D01*
X57602Y37281D01*
X57167Y37932D01*
X56516Y38367D01*
X55748Y38520D01*
D02*
G37*
G36*
X204331Y15118D02*
X195669D01*
Y4882D01*
X204331D01*
Y15118D01*
D02*
G37*
G36*
X230000Y15156D02*
X228870Y15007D01*
X227816Y14570D01*
X226911Y13876D01*
X226217Y12971D01*
X225781Y11918D01*
X225632Y10787D01*
Y9213D01*
X225781Y8082D01*
X226217Y7029D01*
X226911Y6124D01*
X227816Y5430D01*
X228870Y4993D01*
X230000Y4845D01*
X231131Y4993D01*
X232184Y5430D01*
X233089Y6124D01*
X233783Y7029D01*
X234219Y8082D01*
X234368Y9213D01*
Y10787D01*
X234219Y11918D01*
X233783Y12971D01*
X233089Y13876D01*
X232184Y14570D01*
X231131Y15007D01*
X230000Y15156D01*
D02*
G37*
G36*
X220000D02*
X218869Y15007D01*
X217816Y14570D01*
X216911Y13876D01*
X216217Y12971D01*
X215781Y11918D01*
X215632Y10787D01*
Y9213D01*
X215781Y8082D01*
X216217Y7029D01*
X216911Y6124D01*
X217816Y5430D01*
X218869Y4993D01*
X220000Y4845D01*
X221130Y4993D01*
X222184Y5430D01*
X223089Y6124D01*
X223783Y7029D01*
X224219Y8082D01*
X224368Y9213D01*
Y10787D01*
X224219Y11918D01*
X223783Y12971D01*
X223089Y13876D01*
X222184Y14570D01*
X221130Y15007D01*
X220000Y15156D01*
D02*
G37*
G36*
X210000D02*
X208870Y15007D01*
X207816Y14570D01*
X206911Y13876D01*
X206217Y12971D01*
X205781Y11918D01*
X205632Y10787D01*
Y9213D01*
X205781Y8082D01*
X206217Y7029D01*
X206911Y6124D01*
X207816Y5430D01*
X208870Y4993D01*
X210000Y4845D01*
X211130Y4993D01*
X212184Y5430D01*
X213089Y6124D01*
X213783Y7029D01*
X214219Y8082D01*
X214368Y9213D01*
Y10787D01*
X214219Y11918D01*
X213783Y12971D01*
X213089Y13876D01*
X212184Y14570D01*
X211130Y15007D01*
X210000Y15156D01*
D02*
G37*
G36*
X180000D02*
X178869Y15007D01*
X177816Y14570D01*
X176911Y13876D01*
X176217Y12971D01*
X175781Y11918D01*
X175632Y10787D01*
Y9213D01*
X175781Y8082D01*
X176217Y7029D01*
X176911Y6124D01*
X177816Y5430D01*
X178869Y4993D01*
X180000Y4845D01*
X181131Y4993D01*
X182184Y5430D01*
X183089Y6124D01*
X183783Y7029D01*
X184219Y8082D01*
X184368Y9213D01*
Y10787D01*
X184219Y11918D01*
X183783Y12971D01*
X183089Y13876D01*
X182184Y14570D01*
X181131Y15007D01*
X180000Y15156D01*
D02*
G37*
G36*
X170000D02*
X168869Y15007D01*
X167816Y14570D01*
X166911Y13876D01*
X166217Y12971D01*
X165781Y11918D01*
X165632Y10787D01*
Y9213D01*
X165781Y8082D01*
X166217Y7029D01*
X166911Y6124D01*
X167816Y5430D01*
X168869Y4993D01*
X170000Y4845D01*
X171131Y4993D01*
X172184Y5430D01*
X173089Y6124D01*
X173783Y7029D01*
X174219Y8082D01*
X174368Y9213D01*
Y10787D01*
X174219Y11918D01*
X173783Y12971D01*
X173089Y13876D01*
X172184Y14570D01*
X171131Y15007D01*
X170000Y15156D01*
D02*
G37*
G36*
X124000Y205155D02*
X122870Y205007D01*
X121816Y204570D01*
X120911Y203876D01*
X120217Y202971D01*
X119781Y201918D01*
X119632Y200787D01*
Y199213D01*
X119751Y198306D01*
X118462Y197016D01*
X118330Y197043D01*
X118026Y197616D01*
X118219Y198082D01*
X118368Y199213D01*
Y200787D01*
X118219Y201918D01*
X117783Y202971D01*
X117089Y203876D01*
X116184Y204570D01*
X115130Y205007D01*
X114000Y205155D01*
X112870Y205007D01*
X111816Y204570D01*
X110911Y203876D01*
X110217Y202971D01*
X109781Y201918D01*
X109632Y200787D01*
Y199213D01*
X109781Y198082D01*
X109921Y197743D01*
X109587Y197244D01*
X108979D01*
X108111Y196885D01*
X107446Y196220D01*
X107087Y195352D01*
Y194412D01*
X107446Y193544D01*
X108111Y192879D01*
X108979Y192520D01*
X109919D01*
X110787Y192879D01*
X110983Y193076D01*
X111345D01*
X111433Y193016D01*
X112125Y192879D01*
X115875D01*
X116567Y193016D01*
X116656Y193076D01*
X118882D01*
X119573Y193213D01*
X120159Y193605D01*
X121935Y195380D01*
X122870Y194993D01*
X124000Y194844D01*
X125130Y194993D01*
X126184Y195430D01*
X127089Y196124D01*
X127783Y197029D01*
X128219Y198082D01*
X128368Y199213D01*
Y200787D01*
X128219Y201918D01*
X127783Y202971D01*
X127089Y203876D01*
X126184Y204570D01*
X125130Y205007D01*
X124000Y205155D01*
D02*
G37*
G36*
X254331Y205118D02*
X245669D01*
Y194882D01*
X254331D01*
Y205118D01*
D02*
G37*
G36*
X168331D02*
X159669D01*
Y194882D01*
X168331D01*
Y205118D01*
D02*
G37*
G36*
X240000Y205155D02*
X238870Y205007D01*
X237816Y204570D01*
X236911Y203876D01*
X236217Y202971D01*
X235781Y201918D01*
X235632Y200787D01*
Y199213D01*
X235781Y198082D01*
X236217Y197029D01*
X236911Y196124D01*
X237816Y195430D01*
X238870Y194993D01*
X240000Y194844D01*
X241130Y194993D01*
X242184Y195430D01*
X243089Y196124D01*
X243783Y197029D01*
X244219Y198082D01*
X244368Y199213D01*
Y200787D01*
X244219Y201918D01*
X243783Y202971D01*
X243089Y203876D01*
X242184Y204570D01*
X241130Y205007D01*
X240000Y205155D01*
D02*
G37*
G36*
X230000D02*
X228870Y205007D01*
X227816Y204570D01*
X226911Y203876D01*
X226217Y202971D01*
X225781Y201918D01*
X225632Y200787D01*
Y199213D01*
X225781Y198082D01*
X226217Y197029D01*
X226911Y196124D01*
X227816Y195430D01*
X228870Y194993D01*
X230000Y194844D01*
X231131Y194993D01*
X232184Y195430D01*
X233089Y196124D01*
X233783Y197029D01*
X234219Y198082D01*
X234368Y199213D01*
Y200787D01*
X234219Y201918D01*
X233783Y202971D01*
X233089Y203876D01*
X232184Y204570D01*
X231131Y205007D01*
X230000Y205155D01*
D02*
G37*
G36*
X220000D02*
X218869Y205007D01*
X217816Y204570D01*
X216911Y203876D01*
X216217Y202971D01*
X215781Y201918D01*
X215632Y200787D01*
Y199213D01*
X215781Y198082D01*
X216217Y197029D01*
X216911Y196124D01*
X217816Y195430D01*
X218869Y194993D01*
X220000Y194844D01*
X221130Y194993D01*
X222184Y195430D01*
X223089Y196124D01*
X223783Y197029D01*
X224219Y198082D01*
X224368Y199213D01*
Y200787D01*
X224219Y201918D01*
X223783Y202971D01*
X223089Y203876D01*
X222184Y204570D01*
X221130Y205007D01*
X220000Y205155D01*
D02*
G37*
G36*
X210000D02*
X208870Y205007D01*
X207816Y204570D01*
X206911Y203876D01*
X206217Y202971D01*
X205781Y201918D01*
X205632Y200787D01*
Y199213D01*
X205781Y198082D01*
X206217Y197029D01*
X206911Y196124D01*
X207816Y195430D01*
X208870Y194993D01*
X210000Y194844D01*
X211130Y194993D01*
X212184Y195430D01*
X213089Y196124D01*
X213783Y197029D01*
X214219Y198082D01*
X214368Y199213D01*
Y200787D01*
X214219Y201918D01*
X213783Y202971D01*
X213089Y203876D01*
X212184Y204570D01*
X211130Y205007D01*
X210000Y205155D01*
D02*
G37*
G36*
X200000D02*
X198870Y205007D01*
X197816Y204570D01*
X196911Y203876D01*
X196217Y202971D01*
X195781Y201918D01*
X195632Y200787D01*
Y199213D01*
X195781Y198082D01*
X196217Y197029D01*
X196911Y196124D01*
X197816Y195430D01*
X198870Y194993D01*
X200000Y194844D01*
X201131Y194993D01*
X202184Y195430D01*
X203089Y196124D01*
X203783Y197029D01*
X204219Y198082D01*
X204368Y199213D01*
Y200787D01*
X204219Y201918D01*
X203783Y202971D01*
X203089Y203876D01*
X202184Y204570D01*
X201131Y205007D01*
X200000Y205155D01*
D02*
G37*
G36*
X190000D02*
X188870Y205007D01*
X187816Y204570D01*
X186911Y203876D01*
X186217Y202971D01*
X185781Y201918D01*
X185632Y200787D01*
Y199213D01*
X185781Y198082D01*
X186217Y197029D01*
X186911Y196124D01*
X187816Y195430D01*
X188870Y194993D01*
X190000Y194844D01*
X191130Y194993D01*
X192184Y195430D01*
X193089Y196124D01*
X193783Y197029D01*
X194219Y198082D01*
X194368Y199213D01*
Y200787D01*
X194219Y201918D01*
X193783Y202971D01*
X193089Y203876D01*
X192184Y204570D01*
X191130Y205007D01*
X190000Y205155D01*
D02*
G37*
G36*
X180000D02*
X178869Y205007D01*
X177816Y204570D01*
X176911Y203876D01*
X176217Y202971D01*
X175781Y201918D01*
X175632Y200787D01*
Y199213D01*
X175781Y198082D01*
X176217Y197029D01*
X176911Y196124D01*
X177816Y195430D01*
X178869Y194993D01*
X180000Y194844D01*
X181131Y194993D01*
X182184Y195430D01*
X183089Y196124D01*
X183783Y197029D01*
X184219Y198082D01*
X184368Y199213D01*
Y200787D01*
X184219Y201918D01*
X183783Y202971D01*
X183089Y203876D01*
X182184Y204570D01*
X181131Y205007D01*
X180000Y205155D01*
D02*
G37*
G36*
X154000D02*
X152869Y205007D01*
X151816Y204570D01*
X150911Y203876D01*
X150217Y202971D01*
X149781Y201918D01*
X149632Y200787D01*
Y199213D01*
X149781Y198082D01*
X150217Y197029D01*
X150911Y196124D01*
X151816Y195430D01*
X152869Y194993D01*
X154000Y194844D01*
X155131Y194993D01*
X156184Y195430D01*
X157089Y196124D01*
X157783Y197029D01*
X158219Y198082D01*
X158368Y199213D01*
Y200787D01*
X158219Y201918D01*
X157783Y202971D01*
X157089Y203876D01*
X156184Y204570D01*
X155131Y205007D01*
X154000Y205155D01*
D02*
G37*
G36*
X144000D02*
X142869Y205007D01*
X141816Y204570D01*
X140911Y203876D01*
X140217Y202971D01*
X139781Y201918D01*
X139632Y200787D01*
Y199213D01*
X139781Y198082D01*
X140217Y197029D01*
X140911Y196124D01*
X141816Y195430D01*
X142869Y194993D01*
X144000Y194844D01*
X145131Y194993D01*
X146184Y195430D01*
X147089Y196124D01*
X147783Y197029D01*
X148219Y198082D01*
X148368Y199213D01*
Y200787D01*
X148219Y201918D01*
X147783Y202971D01*
X147089Y203876D01*
X146184Y204570D01*
X145131Y205007D01*
X144000Y205155D01*
D02*
G37*
G36*
X134000D02*
X132870Y205007D01*
X131816Y204570D01*
X130911Y203876D01*
X130217Y202971D01*
X129781Y201918D01*
X129632Y200787D01*
Y199213D01*
X129781Y198082D01*
X130217Y197029D01*
X130911Y196124D01*
X131816Y195430D01*
X132870Y194993D01*
X134000Y194844D01*
X135131Y194993D01*
X136184Y195430D01*
X137089Y196124D01*
X137783Y197029D01*
X138219Y198082D01*
X138368Y199213D01*
Y200787D01*
X138219Y201918D01*
X137783Y202971D01*
X137089Y203876D01*
X136184Y204570D01*
X135131Y205007D01*
X134000Y205155D01*
D02*
G37*
G36*
X58268Y169959D02*
X56693D01*
X55562Y169810D01*
X54509Y169373D01*
X53604Y168679D01*
X52910Y167775D01*
X52474Y166721D01*
X52325Y165591D01*
X52474Y164460D01*
X52910Y163407D01*
X53604Y162502D01*
X54509Y161808D01*
X55562Y161371D01*
X56693Y161223D01*
X58268D01*
X59398Y161371D01*
X60452Y161808D01*
X61356Y162502D01*
X62051Y163407D01*
X62487Y164460D01*
X62636Y165591D01*
X62487Y166721D01*
X62051Y167775D01*
X61356Y168679D01*
X60452Y169373D01*
X59398Y169810D01*
X58268Y169959D01*
D02*
G37*
G36*
Y159959D02*
X56693D01*
X55562Y159810D01*
X54509Y159373D01*
X53604Y158679D01*
X52910Y157775D01*
X52474Y156721D01*
X52325Y155591D01*
X52474Y154460D01*
X52910Y153407D01*
X53604Y152502D01*
X54509Y151808D01*
X55562Y151371D01*
X56693Y151223D01*
X58268D01*
X59398Y151371D01*
X60452Y151808D01*
X61356Y152502D01*
X62051Y153407D01*
X62487Y154460D01*
X62636Y155591D01*
X62487Y156721D01*
X62051Y157775D01*
X61356Y158679D01*
X60452Y159373D01*
X59398Y159810D01*
X58268Y159959D01*
D02*
G37*
G36*
X30596Y190527D02*
X29404D01*
X28252Y190219D01*
X27220Y189623D01*
X26377Y188780D01*
X25781Y187748D01*
X25473Y186596D01*
Y185404D01*
X25781Y184252D01*
X26377Y183220D01*
X27220Y182377D01*
X28252Y181781D01*
X29404Y181473D01*
X30596D01*
X31748Y181781D01*
X32780Y182377D01*
X33623Y183220D01*
X34219Y184252D01*
X34528Y185404D01*
Y186596D01*
X34219Y187748D01*
X33623Y188780D01*
X32780Y189623D01*
X31748Y190219D01*
X30596Y190527D01*
D02*
G37*
G36*
X39191Y157573D02*
X38251D01*
X37383Y157214D01*
X36719Y156549D01*
X36359Y155681D01*
Y154741D01*
X36719Y153873D01*
X36915Y153677D01*
Y149364D01*
X36312Y148761D01*
X35921Y148175D01*
X35783Y147484D01*
Y132089D01*
X35475Y131344D01*
Y130404D01*
X35834Y129536D01*
X36499Y128871D01*
X37367Y128512D01*
X38307D01*
X38590Y128323D01*
Y120819D01*
X38517Y120710D01*
X38379Y120019D01*
Y108476D01*
X38183Y108279D01*
X37824Y107411D01*
Y106472D01*
X38183Y105603D01*
X38848Y104939D01*
X39716Y104579D01*
X40656D01*
X41524Y104939D01*
X42188Y105603D01*
X42548Y106472D01*
Y107411D01*
X42188Y108279D01*
X41992Y108476D01*
Y119429D01*
X42065Y119537D01*
X42202Y120229D01*
Y132967D01*
X42065Y133658D01*
X41992Y133767D01*
Y144927D01*
X42188Y145123D01*
X42548Y145991D01*
Y146931D01*
X42188Y147799D01*
X41524Y148464D01*
X40656Y148823D01*
X40528D01*
Y153677D01*
X40724Y153873D01*
X41083Y154741D01*
Y155681D01*
X40724Y156549D01*
X40059Y157214D01*
X39191Y157573D01*
D02*
G37*
G36*
X117768Y90733D02*
X116828D01*
X115960Y90374D01*
X115295Y89709D01*
X114798Y89815D01*
X114344Y90003D01*
X113405D01*
X112536Y89643D01*
X111872Y88979D01*
X111512Y88111D01*
Y87171D01*
X111872Y86303D01*
X112536Y85638D01*
X113405Y85279D01*
X113497D01*
X113663Y85069D01*
X113447Y84537D01*
X113220Y84507D01*
X112166Y84070D01*
X111262Y83376D01*
X110567Y82472D01*
X110131Y81418D01*
X110067Y80932D01*
X102955D01*
X102159Y81262D01*
X101219D01*
X100351Y80903D01*
X99686Y80238D01*
X99327Y79370D01*
Y78430D01*
X99686Y77562D01*
X100351Y76897D01*
X101219Y76538D01*
X102159D01*
X103027Y76897D01*
X103449Y77320D01*
X110240D01*
X110567Y76529D01*
X111262Y75624D01*
X112166Y74930D01*
X113036Y74570D01*
X113205Y74031D01*
X110545Y71372D01*
X110154Y70786D01*
X110016Y70095D01*
Y66816D01*
X110154Y66125D01*
X110545Y65539D01*
X117713Y58371D01*
Y58094D01*
X118073Y57226D01*
X118737Y56561D01*
X119605Y56202D01*
X120545D01*
X121413Y56561D01*
X122078Y57226D01*
X122437Y58094D01*
Y59034D01*
X122078Y59902D01*
X121413Y60566D01*
X120545Y60926D01*
X120268D01*
X114983Y66211D01*
X115118Y66783D01*
X115720Y67032D01*
X116358Y67670D01*
X117129D01*
X117820Y67808D01*
X118406Y68199D01*
X119634Y69427D01*
X123274D01*
X123965Y69564D01*
X124551Y69956D01*
X130155Y75560D01*
X130400Y75926D01*
X130985Y75984D01*
X131262Y75624D01*
X132166Y74930D01*
X133220Y74493D01*
X134350Y74344D01*
X135481Y74493D01*
X136534Y74930D01*
X137439Y75624D01*
X138133Y76529D01*
X138570Y77582D01*
X138718Y78713D01*
Y80287D01*
X138570Y81418D01*
X138133Y82472D01*
X137439Y83376D01*
X136534Y84070D01*
X135481Y84507D01*
X134350Y84655D01*
X133220Y84507D01*
X132166Y84070D01*
X131262Y83376D01*
X130985Y83016D01*
X130400Y83074D01*
X130155Y83440D01*
X123947Y89649D01*
X123361Y90040D01*
X122669Y90178D01*
X118832D01*
X118636Y90374D01*
X117768Y90733D01*
D02*
G37*
G36*
X174810Y81967D02*
X174042Y81814D01*
X173391Y81379D01*
X172931Y80919D01*
X172496Y80268D01*
X172343Y79500D01*
X172496Y78732D01*
X172931Y78081D01*
X173582Y77646D01*
X174350Y77493D01*
X175119Y77646D01*
X175770Y78081D01*
X176229Y78540D01*
X176664Y79191D01*
X176817Y79960D01*
X176664Y80728D01*
X176229Y81379D01*
X175578Y81814D01*
X174810Y81967D01*
D02*
G37*
G36*
X204350Y84655D02*
X203220Y84507D01*
X202166Y84070D01*
X201262Y83376D01*
X200568Y82472D01*
X200131Y81418D01*
X199982Y80287D01*
Y78713D01*
X200131Y77582D01*
X200568Y76529D01*
X201262Y75624D01*
X202166Y74930D01*
X203220Y74493D01*
X204350Y74344D01*
X205481Y74493D01*
X206534Y74930D01*
X207439Y75624D01*
X208133Y76529D01*
X208570Y77582D01*
X208718Y78713D01*
Y80287D01*
X208570Y81418D01*
X208133Y82472D01*
X207439Y83376D01*
X206534Y84070D01*
X205481Y84507D01*
X204350Y84655D01*
D02*
G37*
G36*
X194350D02*
X193220Y84507D01*
X192166Y84070D01*
X191262Y83376D01*
X190568Y82472D01*
X190131Y81418D01*
X189982Y80287D01*
Y78713D01*
X190131Y77582D01*
X190568Y76529D01*
X191262Y75624D01*
X192166Y74930D01*
X193220Y74493D01*
X194350Y74344D01*
X195481Y74493D01*
X196534Y74930D01*
X197439Y75624D01*
X198133Y76529D01*
X198570Y77582D01*
X198719Y78713D01*
Y80287D01*
X198570Y81418D01*
X198133Y82472D01*
X197439Y83376D01*
X196534Y84070D01*
X195481Y84507D01*
X194350Y84655D01*
D02*
G37*
G36*
X184350D02*
X183220Y84507D01*
X182166Y84070D01*
X181262Y83376D01*
X180568Y82472D01*
X180131Y81418D01*
X179982Y80287D01*
Y78713D01*
X180131Y77582D01*
X180568Y76529D01*
X181262Y75624D01*
X182166Y74930D01*
X183220Y74493D01*
X184350Y74344D01*
X185481Y74493D01*
X186534Y74930D01*
X187439Y75624D01*
X188133Y76529D01*
X188570Y77582D01*
X188718Y78713D01*
Y80287D01*
X188570Y81418D01*
X188133Y82472D01*
X187439Y83376D01*
X186534Y84070D01*
X185481Y84507D01*
X184350Y84655D01*
D02*
G37*
G36*
X164350D02*
X163220Y84507D01*
X162166Y84070D01*
X161262Y83376D01*
X160567Y82472D01*
X160131Y81418D01*
X159982Y80287D01*
Y78713D01*
X160131Y77582D01*
X160567Y76529D01*
X161262Y75624D01*
X162166Y74930D01*
X163220Y74493D01*
X164350Y74344D01*
X165481Y74493D01*
X166534Y74930D01*
X167439Y75624D01*
X168133Y76529D01*
X168570Y77582D01*
X168719Y78713D01*
Y80287D01*
X168570Y81418D01*
X168133Y82472D01*
X167439Y83376D01*
X166534Y84070D01*
X165481Y84507D01*
X164350Y84655D01*
D02*
G37*
G36*
X154350D02*
X153220Y84507D01*
X152166Y84070D01*
X151262Y83376D01*
X150567Y82472D01*
X150131Y81418D01*
X149982Y80287D01*
Y78713D01*
X150131Y77582D01*
X150567Y76529D01*
X151262Y75624D01*
X152166Y74930D01*
X153220Y74493D01*
X154350Y74344D01*
X155481Y74493D01*
X156534Y74930D01*
X157439Y75624D01*
X158133Y76529D01*
X158570Y77582D01*
X158719Y78713D01*
Y80287D01*
X158570Y81418D01*
X158133Y82472D01*
X157439Y83376D01*
X156534Y84070D01*
X155481Y84507D01*
X154350Y84655D01*
D02*
G37*
G36*
X144350D02*
X143220Y84507D01*
X142166Y84070D01*
X141262Y83376D01*
X140568Y82472D01*
X140131Y81418D01*
X139982Y80287D01*
Y78713D01*
X140131Y77582D01*
X140568Y76529D01*
X141262Y75624D01*
X142166Y74930D01*
X143220Y74493D01*
X144350Y74344D01*
X145481Y74493D01*
X146534Y74930D01*
X147439Y75624D01*
X148133Y76529D01*
X148570Y77582D01*
X148719Y78713D01*
Y80287D01*
X148570Y81418D01*
X148133Y82472D01*
X147439Y83376D01*
X146534Y84070D01*
X145481Y84507D01*
X144350Y84655D01*
D02*
G37*
G36*
X45355Y88633D02*
X44415D01*
X43547Y88273D01*
X42882Y87609D01*
X42522Y86740D01*
Y85801D01*
X42882Y84932D01*
X43078Y84736D01*
Y83737D01*
X43216Y83046D01*
X43607Y82459D01*
X44299Y81768D01*
X44885Y81376D01*
X45577Y81239D01*
X46262D01*
X46453Y80777D01*
X44594Y78917D01*
X44316D01*
X43448Y78557D01*
X42783Y77892D01*
X42424Y77024D01*
Y76085D01*
X42783Y75216D01*
X43448Y74552D01*
X44316Y74192D01*
X45256D01*
X46124Y74552D01*
X46788Y75216D01*
X47148Y76085D01*
Y76362D01*
X50035Y79249D01*
X57051D01*
X57731Y78570D01*
X57654Y78184D01*
X56990Y77519D01*
X56630Y76651D01*
Y75711D01*
X56990Y74843D01*
X57221Y74611D01*
X57288Y74274D01*
X57724Y73623D01*
X58741Y72605D01*
X59392Y72170D01*
X60161Y72017D01*
X67937D01*
X68705Y72170D01*
X69356Y72605D01*
X70702Y73951D01*
X71137Y74602D01*
X71290Y75370D01*
Y78070D01*
X77927D01*
X78695Y78223D01*
X79346Y78658D01*
X79439Y78750D01*
X79646D01*
X80514Y79110D01*
X81178Y79774D01*
X81538Y80643D01*
Y81582D01*
X81178Y82451D01*
X80514Y83115D01*
X79646Y83475D01*
X78706D01*
X77838Y83115D01*
X77173Y82451D01*
X77021Y82084D01*
X70205D01*
X69437Y81931D01*
X68786Y81496D01*
X67864Y80573D01*
X67490Y80015D01*
X66808Y80298D01*
X65869D01*
X65245Y80039D01*
X60962Y84322D01*
X60376Y84714D01*
X59685Y84851D01*
X47395D01*
X47061Y85351D01*
X47247Y85801D01*
Y86740D01*
X46887Y87609D01*
X46223Y88273D01*
X45355Y88633D01*
D02*
G37*
G36*
X185878Y59659D02*
X184938D01*
X184070Y59299D01*
X184012Y59242D01*
X177607D01*
X176749Y59597D01*
X175810D01*
X174942Y59237D01*
X174277Y58573D01*
X173917Y57705D01*
Y56765D01*
X174277Y55897D01*
X174942Y55232D01*
X175374Y55053D01*
X175473Y55012D01*
X175342Y54525D01*
X175229Y54540D01*
X174350Y54655D01*
X173220Y54507D01*
X172166Y54070D01*
X171262Y53376D01*
X170568Y52472D01*
X170131Y51418D01*
X169982Y50287D01*
Y48713D01*
X170131Y47582D01*
X170568Y46529D01*
X171262Y45624D01*
X172166Y44930D01*
X173220Y44493D01*
X174350Y44344D01*
X175481Y44493D01*
X176534Y44930D01*
X177439Y45624D01*
X178133Y46529D01*
X178570Y47582D01*
X178718Y48713D01*
Y50287D01*
X178570Y51418D01*
X178133Y52472D01*
X177439Y53376D01*
X176534Y54070D01*
X175807Y54372D01*
X175713Y54410D01*
X175810Y54872D01*
X175953Y54873D01*
X176749D01*
X177607Y55228D01*
X184230D01*
X184938Y54934D01*
X185878D01*
X186746Y55294D01*
X187410Y55958D01*
X187770Y56827D01*
Y57766D01*
X187410Y58635D01*
X186746Y59299D01*
X185878Y59659D01*
D02*
G37*
G36*
X184350Y51507D02*
X183582Y51354D01*
X182931Y50919D01*
X182496Y50268D01*
X182343Y49500D01*
X182496Y48732D01*
X182931Y48081D01*
X183835Y47177D01*
X184486Y46742D01*
X185254Y46589D01*
X186022Y46742D01*
X186674Y47177D01*
X187109Y47828D01*
X187261Y48596D01*
X187109Y49364D01*
X186674Y50015D01*
X185770Y50919D01*
X185118Y51354D01*
X184350Y51507D01*
D02*
G37*
G36*
X224350Y54655D02*
X223220Y54507D01*
X222166Y54070D01*
X221262Y53376D01*
X220567Y52472D01*
X220131Y51418D01*
X219982Y50287D01*
Y48713D01*
X220131Y47582D01*
X220567Y46529D01*
X221262Y45624D01*
X222166Y44930D01*
X223220Y44493D01*
X224350Y44344D01*
X225481Y44493D01*
X226534Y44930D01*
X227439Y45624D01*
X228133Y46529D01*
X228570Y47582D01*
X228718Y48713D01*
Y50287D01*
X228570Y51418D01*
X228133Y52472D01*
X227439Y53376D01*
X226534Y54070D01*
X225481Y54507D01*
X224350Y54655D01*
D02*
G37*
G36*
X214350D02*
X213220Y54507D01*
X212166Y54070D01*
X211262Y53376D01*
X210567Y52472D01*
X210131Y51418D01*
X209982Y50287D01*
Y48713D01*
X210131Y47582D01*
X210567Y46529D01*
X211262Y45624D01*
X212166Y44930D01*
X213220Y44493D01*
X214350Y44344D01*
X215481Y44493D01*
X216534Y44930D01*
X217439Y45624D01*
X218133Y46529D01*
X218570Y47582D01*
X218719Y48713D01*
Y50287D01*
X218570Y51418D01*
X218133Y52472D01*
X217439Y53376D01*
X216534Y54070D01*
X215481Y54507D01*
X214350Y54655D01*
D02*
G37*
G36*
X204350D02*
X203220Y54507D01*
X202166Y54070D01*
X201262Y53376D01*
X200568Y52472D01*
X200131Y51418D01*
X199982Y50287D01*
Y48713D01*
X200131Y47582D01*
X200568Y46529D01*
X201262Y45624D01*
X202166Y44930D01*
X203220Y44493D01*
X204350Y44344D01*
X205481Y44493D01*
X206534Y44930D01*
X207439Y45624D01*
X208133Y46529D01*
X208570Y47582D01*
X208718Y48713D01*
Y50287D01*
X208570Y51418D01*
X208133Y52472D01*
X207439Y53376D01*
X206534Y54070D01*
X205481Y54507D01*
X204350Y54655D01*
D02*
G37*
G36*
X194350D02*
X193220Y54507D01*
X192166Y54070D01*
X191262Y53376D01*
X190568Y52472D01*
X190131Y51418D01*
X189982Y50287D01*
Y48713D01*
X190131Y47582D01*
X190568Y46529D01*
X191262Y45624D01*
X192166Y44930D01*
X193220Y44493D01*
X194350Y44344D01*
X195481Y44493D01*
X196534Y44930D01*
X197439Y45624D01*
X198133Y46529D01*
X198570Y47582D01*
X198719Y48713D01*
Y50287D01*
X198570Y51418D01*
X198133Y52472D01*
X197439Y53376D01*
X196534Y54070D01*
X195481Y54507D01*
X194350Y54655D01*
D02*
G37*
G36*
X164350D02*
X163220Y54507D01*
X162166Y54070D01*
X161262Y53376D01*
X160567Y52472D01*
X160131Y51418D01*
X159982Y50287D01*
Y48713D01*
X160131Y47582D01*
X160567Y46529D01*
X161262Y45624D01*
X162166Y44930D01*
X163220Y44493D01*
X164350Y44344D01*
X165481Y44493D01*
X166534Y44930D01*
X167439Y45624D01*
X168133Y46529D01*
X168570Y47582D01*
X168719Y48713D01*
Y50287D01*
X168570Y51418D01*
X168133Y52472D01*
X167439Y53376D01*
X166534Y54070D01*
X165481Y54507D01*
X164350Y54655D01*
D02*
G37*
G36*
X154350D02*
X153220Y54507D01*
X152166Y54070D01*
X151262Y53376D01*
X150567Y52472D01*
X150131Y51418D01*
X149982Y50287D01*
Y48713D01*
X150131Y47582D01*
X150567Y46529D01*
X151262Y45624D01*
X152166Y44930D01*
X153220Y44493D01*
X154350Y44344D01*
X155481Y44493D01*
X156534Y44930D01*
X157439Y45624D01*
X158133Y46529D01*
X158570Y47582D01*
X158719Y48713D01*
Y50287D01*
X158570Y51418D01*
X158133Y52472D01*
X157439Y53376D01*
X156534Y54070D01*
X155481Y54507D01*
X154350Y54655D01*
D02*
G37*
G36*
X144350D02*
X143220Y54507D01*
X142166Y54070D01*
X141262Y53376D01*
X140568Y52472D01*
X140131Y51418D01*
X139982Y50287D01*
Y48713D01*
X140131Y47582D01*
X140568Y46529D01*
X141262Y45624D01*
X142166Y44930D01*
X143220Y44493D01*
X144350Y44344D01*
X145481Y44493D01*
X146534Y44930D01*
X147439Y45624D01*
X148133Y46529D01*
X148570Y47582D01*
X148719Y48713D01*
Y50287D01*
X148570Y51418D01*
X148133Y52472D01*
X147439Y53376D01*
X146534Y54070D01*
X145481Y54507D01*
X144350Y54655D01*
D02*
G37*
G36*
X134350D02*
X133220Y54507D01*
X132166Y54070D01*
X131262Y53376D01*
X130568Y52472D01*
X130131Y51418D01*
X129982Y50287D01*
Y48713D01*
X130131Y47582D01*
X130568Y46529D01*
X131262Y45624D01*
X132166Y44930D01*
X133220Y44493D01*
X134350Y44344D01*
X135481Y44493D01*
X136534Y44930D01*
X137439Y45624D01*
X138133Y46529D01*
X138570Y47582D01*
X138718Y48713D01*
Y50287D01*
X138570Y51418D01*
X138133Y52472D01*
X137439Y53376D01*
X136534Y54070D01*
X135481Y54507D01*
X134350Y54655D01*
D02*
G37*
G36*
X124350D02*
X123220Y54507D01*
X122166Y54070D01*
X121262Y53376D01*
X120568Y52472D01*
X120131Y51418D01*
X119982Y50287D01*
Y48713D01*
X120131Y47582D01*
X120568Y46529D01*
X121262Y45624D01*
X122166Y44930D01*
X123220Y44493D01*
X124350Y44344D01*
X125481Y44493D01*
X126534Y44930D01*
X127439Y45624D01*
X128133Y46529D01*
X128570Y47582D01*
X128718Y48713D01*
Y50287D01*
X128570Y51418D01*
X128133Y52472D01*
X127439Y53376D01*
X126534Y54070D01*
X125481Y54507D01*
X124350Y54655D01*
D02*
G37*
G36*
X114350D02*
X113220Y54507D01*
X112166Y54070D01*
X111262Y53376D01*
X110567Y52472D01*
X110131Y51418D01*
X109982Y50287D01*
Y48713D01*
X110131Y47582D01*
X110567Y46529D01*
X111262Y45624D01*
X112166Y44930D01*
X113220Y44493D01*
X114350Y44344D01*
X115481Y44493D01*
X116534Y44930D01*
X117439Y45624D01*
X118133Y46529D01*
X118570Y47582D01*
X118719Y48713D01*
Y50287D01*
X118570Y51418D01*
X118133Y52472D01*
X117439Y53376D01*
X116534Y54070D01*
X115481Y54507D01*
X114350Y54655D01*
D02*
G37*
G36*
X260000Y39465D02*
X259232Y39312D01*
X258581Y38877D01*
X258146Y38225D01*
X257993Y37457D01*
Y35499D01*
X257531Y35307D01*
X257077Y35761D01*
X256426Y36197D01*
X255658Y36349D01*
X254890Y36197D01*
X254239Y35761D01*
X253803Y35110D01*
X253651Y34342D01*
X253803Y33574D01*
X254239Y32923D01*
X258581Y28581D01*
X259232Y28146D01*
X260000Y27993D01*
X260768Y28146D01*
X261419Y28581D01*
X261854Y29232D01*
X262007Y30000D01*
Y37457D01*
X261854Y38225D01*
X261419Y38877D01*
X260768Y39312D01*
X260000Y39465D01*
D02*
G37*
%LPD*%
D12*
X80050Y135611D02*
Y145607D01*
Y135611D02*
X80560Y135100D01*
X83409D01*
X105605Y140360D02*
X112748Y147503D01*
Y153292D01*
X226940Y151198D02*
Y161242D01*
X204838Y151198D02*
X226940D01*
Y161242D02*
X228312Y162613D01*
X231622D02*
X232949Y161287D01*
X230820Y140352D02*
X232949Y142481D01*
X228312Y162613D02*
X231622D01*
X232949Y142481D02*
Y161287D01*
X104494Y147452D02*
Y169128D01*
X88976Y184646D02*
X104494Y169128D01*
X55748Y34646D02*
Y36513D01*
X140000Y10000D02*
Y12066D01*
X45748Y33858D02*
Y34646D01*
Y33858D02*
X48110Y31496D01*
X8659Y66142D02*
Y92126D01*
X229075Y71881D02*
Y140352D01*
X230820D01*
X174350Y79500D02*
X174810Y79960D01*
X260000Y30000D02*
Y37457D01*
X255658Y34342D02*
X260000Y30000D01*
X184350Y49500D02*
X185254Y48596D01*
X83409Y135100D02*
X85752Y137444D01*
Y139438D01*
X86675Y140360D02*
X105605D01*
X85752Y139438D02*
X86675Y140360D01*
X103571Y146529D02*
X104494Y147452D01*
X80972Y146529D02*
X103571D01*
X114270Y154815D02*
X130775D01*
X112748Y153292D02*
X114270Y154815D01*
X80050Y145607D02*
X80972Y146529D01*
X69283Y75370D02*
Y79154D01*
X77927Y80077D02*
X78962Y81113D01*
X70205Y80077D02*
X77927D01*
X78962Y81113D02*
X79176D01*
X69283Y79154D02*
X70205Y80077D01*
X9021Y161021D02*
X10000Y162000D01*
X55513Y34880D02*
X55748Y34646D01*
X185346Y57235D02*
X185408Y57297D01*
X176279Y57235D02*
X185346D01*
X67937Y74024D02*
X69283Y75370D01*
X60161Y74024D02*
X67937D01*
X59143Y75042D02*
X60161Y74024D01*
X59143Y75042D02*
Y76030D01*
X58992Y76181D02*
X59143Y76030D01*
X203833Y152202D02*
Y159116D01*
Y152202D02*
X204838Y151198D01*
X227543Y70349D02*
X229075Y71881D01*
X131698Y155737D02*
Y159116D01*
X130775Y154815D02*
X131698Y155737D01*
Y159116D02*
X132620Y160039D01*
X202911D01*
X203833Y159116D01*
X227543Y59772D02*
Y70349D01*
D16*
X93449Y31398D02*
D03*
D61*
X235368Y120901D02*
D03*
Y103184D02*
D03*
X260914Y121043D02*
D03*
X75590Y5852D02*
D03*
X93307D02*
D03*
X75449Y31398D02*
D03*
D62*
X260914Y103042D02*
D03*
D69*
X88381Y198233D02*
X107874Y178740D01*
X236024Y128759D02*
Y178048D01*
X107874Y178740D02*
X235332D01*
X236024Y178048D01*
Y128759D02*
X242665Y122117D01*
X127165Y174803D02*
X233465D01*
X233716Y185433D02*
X237992Y181157D01*
Y129574D02*
X245581Y121985D01*
X237992Y129574D02*
Y181157D01*
X103965Y185433D02*
X233716D01*
X117482Y137109D02*
Y150022D01*
X116790Y136417D02*
X117482Y137109D01*
X87788Y136417D02*
X116790D01*
X77885Y134714D02*
X80405Y132193D01*
X83564D01*
X77885Y134714D02*
Y149566D01*
X83320Y155001D01*
X114382Y69035D02*
X114824Y69477D01*
X123274Y71233D02*
X128878Y76837D01*
X115507Y73466D02*
X118878Y76837D01*
X117129Y69477D02*
X118885Y71233D01*
X123274D01*
X111823Y66816D02*
Y70095D01*
X114824Y69477D02*
X117129D01*
X111823Y70095D02*
X115194Y73466D01*
X115507D01*
X128878Y76837D02*
Y82163D01*
X122669Y88371D02*
X128878Y82163D01*
X118878Y76837D02*
Y82637D01*
X117298Y88371D02*
X122669D01*
X113874Y87641D02*
X118878Y82637D01*
X201329Y148031D02*
X222047D01*
X200514Y148846D02*
X201329Y148031D01*
X242665Y90220D02*
X254405Y78480D01*
Y53342D02*
Y78480D01*
X262989Y63048D02*
Y63368D01*
X250993Y90080D02*
X262297Y78776D01*
Y64060D02*
Y78776D01*
Y64060D02*
X262989Y63368D01*
X246035Y89635D02*
Y121532D01*
X245581Y121985D02*
Y121985D01*
Y121985D02*
X246035Y121532D01*
X111928Y194882D02*
X112125Y194685D01*
X115875D01*
X109449Y194882D02*
X111928D01*
X115875Y194685D02*
X116072Y194882D01*
X118882D01*
X124000Y200000D01*
X98528Y190870D02*
X103965Y185433D01*
X246035Y89635D02*
X256374Y79296D01*
Y51374D02*
Y79296D01*
X60039Y173031D02*
X70276D01*
X80304Y178347D02*
X83320Y175331D01*
X70276Y173031D02*
X75590Y178347D01*
X80304D01*
X224083Y155812D02*
X224775Y156504D01*
X211919Y155812D02*
X224083D01*
X224775Y156504D02*
Y162139D01*
X226230Y163593D01*
X82125Y205315D02*
X95875D01*
X98528Y202663D01*
X79472Y196890D02*
Y202663D01*
X78781Y196198D02*
X79472Y196890D01*
X77802Y196198D02*
X78781D01*
X74000Y200000D02*
X77802Y196198D01*
X79472Y202663D02*
X82125Y205315D01*
X98528Y190870D02*
Y202663D01*
X85767Y198233D02*
X88381D01*
X84000Y200000D02*
X85767Y198233D01*
X252532Y51468D02*
X254405Y53342D01*
X242665Y90220D02*
Y122117D01*
X246201Y44185D02*
X246893Y43493D01*
X249572Y51468D02*
X252532D01*
X243499Y39121D02*
X246893Y42515D01*
X239823Y46837D02*
Y52163D01*
X246893Y42515D02*
Y43493D01*
X239823Y52163D02*
X242475Y54815D01*
X239823Y46837D02*
X242475Y44185D01*
Y54815D02*
X246226D01*
X249572Y51468D01*
X242475Y44185D02*
X246201D01*
X254500Y49500D02*
X256374Y51374D01*
X122868Y162329D02*
X124606Y164068D01*
Y168067D01*
X125298Y168759D01*
X210979D01*
X244350Y49500D02*
X254500D01*
X235543Y39121D02*
X243499D01*
X226230Y163593D02*
Y168740D01*
X83564Y132193D02*
X87788Y136417D01*
X117482Y150022D02*
X118174Y150714D01*
X134959D01*
X84126Y143636D02*
X105818D01*
X107128Y144946D02*
Y161638D01*
X105818Y143636D02*
X107128Y144946D01*
Y161638D02*
X107820Y162329D01*
X82996Y138585D02*
Y142507D01*
X84126Y143636D01*
X83320Y155001D02*
Y175331D01*
X57480Y175591D02*
X60039Y173031D01*
X40396Y120229D02*
Y132967D01*
X40186Y120019D02*
X40396Y120229D01*
X40186Y133177D02*
X40396Y132967D01*
X40186Y106941D02*
Y120019D01*
Y133177D02*
Y146461D01*
X37590Y131121D02*
Y147484D01*
Y131121D02*
X37837Y130874D01*
X38721Y148616D02*
Y155211D01*
X37590Y147484D02*
X38721Y148616D01*
X113976Y79126D02*
X114350Y79500D01*
X111823Y66816D02*
X120075Y58564D01*
X101689Y78900D02*
X101915Y79126D01*
X113976D01*
X49287Y81055D02*
X57800D01*
X44786Y76554D02*
X49287Y81055D01*
X57800D02*
X62075Y76780D01*
X45577Y83045D02*
X59685D01*
X64947Y77782D01*
X44885Y83737D02*
Y86270D01*
Y83737D02*
X45577Y83045D01*
X62075Y76780D02*
X62331D01*
X107820Y162329D02*
X122868D01*
X114000Y199213D02*
Y200000D01*
X250993Y90080D02*
Y122141D01*
X134959Y150714D02*
X135650Y151406D01*
Y155965D01*
X136342Y156657D02*
X199822D01*
X135650Y155965D02*
X136342Y156657D01*
X199822D02*
X200514Y155965D01*
Y148846D02*
Y155965D01*
X244742Y158570D02*
Y178835D01*
X243334Y129800D02*
X250993Y122141D01*
X243334Y157162D02*
X244742Y158570D01*
X243334Y129800D02*
Y157162D01*
X208350Y159381D02*
X211919Y155812D01*
X211670Y161734D02*
Y168067D01*
X126517Y162938D02*
X127672Y164093D01*
X208350D01*
Y159381D02*
Y164093D01*
X211670Y161734D02*
X212861Y160543D01*
X220007D01*
X210979Y168759D02*
X211670Y168067D01*
X110996Y159536D02*
X125825D01*
X110304Y158844D02*
X110996Y159536D01*
X110304Y150425D02*
Y158844D01*
X109841Y149962D02*
X110304Y150425D01*
X126517Y160228D02*
Y162938D01*
X125825Y159536D02*
X126517Y160228D01*
X234851Y39813D02*
Y49000D01*
Y39813D02*
X235543Y39121D01*
X234350Y49500D02*
X234851Y49000D01*
D70*
X114350Y49500D02*
D03*
X124350D02*
D03*
X134350D02*
D03*
X144350D02*
D03*
X154350D02*
D03*
X164350D02*
D03*
X174350D02*
D03*
X184350D02*
D03*
X194350D02*
D03*
X204350D02*
D03*
X214350D02*
D03*
X224350D02*
D03*
X234350D02*
D03*
X244350D02*
D03*
X114350Y79500D02*
D03*
X124350D02*
D03*
X134350D02*
D03*
X144350D02*
D03*
X154350D02*
D03*
X164350D02*
D03*
X174350D02*
D03*
X184350D02*
D03*
X194350D02*
D03*
X204350D02*
D03*
X214350D02*
D03*
X224350D02*
D03*
X234350D02*
D03*
X65748Y34646D02*
D03*
X55748D02*
D03*
X74000Y200000D02*
D03*
X84000D02*
D03*
X94000D02*
D03*
X104000D02*
D03*
X114000D02*
D03*
X124000D02*
D03*
X134000D02*
D03*
X144000D02*
D03*
X154000D02*
D03*
X190000D02*
D03*
X180000D02*
D03*
X200000D02*
D03*
X210000D02*
D03*
X220000D02*
D03*
X230000D02*
D03*
X240000D02*
D03*
X250000Y10000D02*
D03*
X240000D02*
D03*
X230000D02*
D03*
X220000D02*
D03*
X210000D02*
D03*
X170000D02*
D03*
X180000D02*
D03*
X160000D02*
D03*
X150000D02*
D03*
X140000D02*
D03*
X130000D02*
D03*
X120000D02*
D03*
D71*
X244350Y79500D02*
D03*
X45748Y34646D02*
D03*
X164000Y200000D02*
D03*
X250000D02*
D03*
X200000Y10000D02*
D03*
X110000D02*
D03*
D72*
X60236Y199213D02*
D03*
D73*
X57480Y145591D02*
D03*
Y155591D02*
D03*
Y165591D02*
D03*
X260630Y164646D02*
D03*
Y174646D02*
D03*
D74*
X57480Y175591D02*
D03*
X260630Y184646D02*
D03*
D75*
X10000Y124646D02*
D03*
X20000D02*
D03*
X10000Y134646D02*
D03*
X30000Y162000D02*
D03*
X20000D02*
D03*
X10000D02*
D03*
X30000Y152000D02*
D03*
X20000D02*
D03*
X30000Y196000D02*
D03*
X20000D02*
D03*
X10000D02*
D03*
X30000Y186000D02*
D03*
X20000D02*
D03*
D76*
Y134646D02*
D03*
X10000Y152000D02*
D03*
Y186000D02*
D03*
D77*
X8659Y66142D02*
D03*
Y92126D02*
D03*
D78*
X8268Y8661D02*
D03*
X8661Y50787D02*
D03*
D79*
X55000Y10000D02*
D03*
X260000Y30000D02*
D03*
Y140000D02*
D03*
D80*
X233465Y174803D02*
D03*
X127165D02*
D03*
X189370Y102362D02*
D03*
X109449Y29921D02*
D03*
X222047Y148031D02*
D03*
X109449Y194882D02*
D03*
X195276Y148425D02*
D03*
X86614Y129921D02*
D03*
X108661Y132677D02*
D03*
X34252Y38189D02*
D03*
X33858Y41339D02*
D03*
X92172Y76974D02*
D03*
X90945Y52756D02*
D03*
X82109Y54226D02*
D03*
X53150Y88976D02*
D03*
X40762Y99566D02*
D03*
X37402Y90945D02*
D03*
X31102Y98819D02*
D03*
X85536Y100213D02*
D03*
X32035Y116376D02*
D03*
X174961Y87887D02*
D03*
X192210Y35110D02*
D03*
X184648Y41484D02*
D03*
X165748Y39764D02*
D03*
X159055Y41732D02*
D03*
X77756Y173819D02*
D03*
X152084Y99606D02*
D03*
X250394Y73622D02*
D03*
X249430Y69629D02*
D03*
X22441Y204724D02*
D03*
X165748Y31890D02*
D03*
X225197Y135433D02*
D03*
X205906Y194488D02*
D03*
X88976Y184646D02*
D03*
X120472Y167717D02*
D03*
X85827Y179528D02*
D03*
X50394Y162992D02*
D03*
Y159449D02*
D03*
X4641Y113880D02*
D03*
X239370Y22441D02*
D03*
X173228Y23622D02*
D03*
X72835Y58268D02*
D03*
X55512Y51575D02*
D03*
X140945Y38583D02*
D03*
X120472Y37402D02*
D03*
X25591Y179134D02*
D03*
X31102Y70472D02*
D03*
X82996Y138585D02*
D03*
X59113Y107421D02*
D03*
X67557Y82081D02*
D03*
X76391Y82833D02*
D03*
X108241Y96037D02*
D03*
X69200Y113110D02*
D03*
X72151Y166215D02*
D03*
X268084Y49520D02*
D03*
X77508Y56185D02*
D03*
X14656Y111038D02*
D03*
X129874Y30512D02*
D03*
X186911Y25394D02*
D03*
X37837Y130874D02*
D03*
X38721Y155211D02*
D03*
X40186Y106941D02*
D03*
Y146461D02*
D03*
X101689Y78900D02*
D03*
X185408Y57297D02*
D03*
X176279Y57235D02*
D03*
X79176Y81113D02*
D03*
X58992Y76181D02*
D03*
X23118Y87684D02*
D03*
X23030Y91171D02*
D03*
X44786Y76554D02*
D03*
X44885Y86270D02*
D03*
X66339Y77935D02*
D03*
X62331Y76780D02*
D03*
X227543Y59772D02*
D03*
X109841Y149962D02*
D03*
X226230Y168740D02*
D03*
X220007Y160543D02*
D03*
X262989Y63048D02*
D03*
X244742Y178835D02*
D03*
X120075Y58564D02*
D03*
X113874Y87641D02*
D03*
X114382Y69035D02*
D03*
X117298Y88371D02*
D03*
M02*
