G04*
G04 #@! TF.GenerationSoftware,Altium Limited,Altium Designer,22.1.2 (22)*
G04*
G04 Layer_Color=8388736*
%FSLAX25Y25*%
%MOIN*%
G70*
G04*
G04 #@! TF.SameCoordinates,CB3FAF70-DFB5-4037-BA8D-DCE23A76FFA9*
G04*
G04*
G04 #@! TF.FilePolarity,Positive*
G04*
G01*
G75*
%ADD11C,0.01000*%
%ADD81C,0.01400*%
%ADD82C,0.04000*%
%ADD83C,0.02000*%
%ADD84C,0.00600*%
D11*
X0Y-29134D02*
X6000Y-27134D01*
X0Y-29134D02*
X6000Y-31134D01*
X264000D02*
X270000Y-29134D01*
X264000Y-27134D02*
X270000Y-29134D01*
X0D02*
X120803D01*
X145996D02*
X270000D01*
X0Y-30134D02*
Y-3000D01*
X270000Y-30134D02*
Y-3000D01*
X-18929Y6000D02*
X-16929Y0D01*
X-14929Y6000D01*
X-16929Y210000D02*
X-14929Y204000D01*
X-18929D02*
X-16929Y210000D01*
Y0D02*
Y91303D01*
Y115497D02*
Y210000D01*
X-17929Y0D02*
X-3000D01*
X-17929Y210000D02*
X-3000D01*
D81*
X61181Y10472D02*
G03*
X61181Y10472I-6299J0D01*
G01*
X265905Y29764D02*
G03*
X265905Y29764I-6299J0D01*
G01*
X66535Y199213D02*
G03*
X66535Y199213I-6299J0D01*
G01*
X266299Y140000D02*
G03*
X266299Y140000I-6299J0D01*
G01*
D82*
X0Y210000D02*
X270000D01*
X0Y0D02*
Y210000D01*
X270000Y0D02*
Y210000D01*
X0Y0D02*
X270000D01*
D83*
X14598Y248639D02*
Y258636D01*
X17931Y255304D01*
X21263Y258636D01*
Y248639D01*
X29594D02*
X26261D01*
X24595Y250306D01*
Y253638D01*
X26261Y255304D01*
X29594D01*
X31260Y253638D01*
Y251972D01*
X24595D01*
X41256Y255304D02*
X36258D01*
X34592Y253638D01*
Y250306D01*
X36258Y248639D01*
X41256D01*
X44589Y258636D02*
Y248639D01*
Y253638D01*
X46255Y255304D01*
X49587D01*
X51253Y253638D01*
Y248639D01*
X56252Y255304D02*
X59584D01*
X61250Y253638D01*
Y248639D01*
X56252D01*
X54585Y250306D01*
X56252Y251972D01*
X61250D01*
X64582Y248639D02*
Y255304D01*
X69581D01*
X71247Y253638D01*
Y248639D01*
X74579D02*
X77911D01*
X76245D01*
Y255304D01*
X74579D01*
X89574D02*
X84576D01*
X82910Y253638D01*
Y250306D01*
X84576Y248639D01*
X89574D01*
X94573Y255304D02*
X97905D01*
X99571Y253638D01*
Y248639D01*
X94573D01*
X92906Y250306D01*
X94573Y251972D01*
X99571D01*
X102903Y248639D02*
X106236D01*
X104569D01*
Y258636D01*
X102903D01*
X121231D02*
Y248639D01*
X126229D01*
X127895Y250306D01*
Y256970D01*
X126229Y258636D01*
X121231D01*
X131227Y255304D02*
Y248639D01*
Y251972D01*
X132894Y253638D01*
X134560Y255304D01*
X136226D01*
X142890D02*
X146223D01*
X147889Y253638D01*
Y248639D01*
X142890D01*
X141224Y250306D01*
X142890Y251972D01*
X147889D01*
X151221Y255304D02*
Y250306D01*
X152887Y248639D01*
X154553Y250306D01*
X156219Y248639D01*
X157886Y250306D01*
Y255304D01*
X161218Y248639D02*
X164550D01*
X162884D01*
Y255304D01*
X161218D01*
X169548Y248639D02*
Y255304D01*
X174547D01*
X176213Y253638D01*
Y248639D01*
X182877Y245307D02*
X184544D01*
X186210Y246973D01*
Y255304D01*
X181211D01*
X179545Y253638D01*
Y250306D01*
X181211Y248639D01*
X186210D01*
X201205D02*
X204537D01*
X206203Y250306D01*
Y253638D01*
X204537Y255304D01*
X201205D01*
X199539Y253638D01*
Y250306D01*
X201205Y248639D01*
X211202D02*
Y256970D01*
Y253638D01*
X209535D01*
X212868D01*
X211202D01*
Y256970D01*
X212868Y258636D01*
X227863D02*
Y251972D01*
X231195Y248639D01*
X234527Y251972D01*
Y258636D01*
X237860Y248639D02*
X241192D01*
X239526D01*
Y258636D01*
X237860Y256970D01*
X246190Y258636D02*
X249522D01*
X247856D01*
Y248639D01*
X246190D01*
X249522D01*
X254521D02*
X257853D01*
X256187D01*
Y258636D01*
X254521Y256970D01*
D84*
X126402Y-32733D02*
X122404D01*
X126402Y-28734D01*
Y-27735D01*
X125403Y-26735D01*
X123403D01*
X122404Y-27735D01*
X128402Y-26735D02*
X132400D01*
Y-27735D01*
X128402Y-31733D01*
Y-32733D01*
X134400Y-27735D02*
X135399Y-26735D01*
X137399D01*
X138398Y-27735D01*
Y-31733D01*
X137399Y-32733D01*
X135399D01*
X134400Y-31733D01*
Y-27735D01*
X140398D02*
X141397Y-26735D01*
X143397D01*
X144396Y-27735D01*
Y-31733D01*
X143397Y-32733D01*
X141397D01*
X140398Y-31733D01*
Y-27735D01*
X-13330Y96902D02*
Y92903D01*
X-17329Y96902D01*
X-18328D01*
X-19328Y95902D01*
Y93903D01*
X-18328Y92903D01*
X-13330Y98901D02*
Y100901D01*
Y99901D01*
X-19328D01*
X-18328Y98901D01*
Y103900D02*
X-19328Y104900D01*
Y106899D01*
X-18328Y107898D01*
X-14330D01*
X-13330Y106899D01*
Y104900D01*
X-14330Y103900D01*
X-18328D01*
Y109898D02*
X-19328Y110898D01*
Y112897D01*
X-18328Y113897D01*
X-14330D01*
X-13330Y112897D01*
Y110898D01*
X-14330Y109898D01*
X-18328D01*
M02*
