G04*
G04 #@! TF.GenerationSoftware,Altium Limited,Altium Designer,22.1.2 (22)*
G04*
G04 Layer_Color=8421504*
%FSLAX25Y25*%
%MOIN*%
G70*
G04*
G04 #@! TF.SameCoordinates,CB3FAF70-DFB5-4037-BA8D-DCE23A76FFA9*
G04*
G04*
G04 #@! TF.FilePolarity,Positive*
G04*
G01*
G75*
%ADD13R,0.03543X0.05118*%
%ADD14R,0.05118X0.03543*%
%ADD15R,0.05512X0.06299*%
%ADD16R,0.07480X0.07480*%
%ADD17R,0.05315X0.01575*%
%ADD18R,0.13780X0.08661*%
%ADD19R,0.02362X0.08661*%
%ADD20R,0.03937X0.02165*%
%ADD21R,0.06299X0.11811*%
%ADD22R,0.10630X0.07874*%
%ADD23R,0.02165X0.03937*%
%ADD24R,0.03150X0.03150*%
%ADD25R,0.02756X0.05118*%
%ADD26R,0.10236X0.09843*%
%ADD27R,0.05118X0.02756*%
%ADD28R,0.09843X0.10236*%
%ADD29R,0.05906X0.02165*%
%ADD30R,0.02165X0.05906*%
%ADD31R,0.02700X0.02200*%
%ADD32R,0.02200X0.02700*%
%ADD33R,0.03543X0.02362*%
D13*
X182777Y99405D02*
D03*
X175296D02*
D03*
X8268Y205512D02*
D03*
X15748D02*
D03*
X182480Y90551D02*
D03*
X175000D02*
D03*
X166732Y99606D02*
D03*
X159252D02*
D03*
X255984Y49567D02*
D03*
X263465D02*
D03*
X178017Y38993D02*
D03*
X185498D02*
D03*
X169594Y38770D02*
D03*
X162114D02*
D03*
X186417Y29921D02*
D03*
X193898D02*
D03*
X194095Y20472D02*
D03*
X186614D02*
D03*
X57395Y92879D02*
D03*
X49915D02*
D03*
X103150Y133858D02*
D03*
X95669D02*
D03*
X102756Y91339D02*
D03*
X95276D02*
D03*
X158268Y18898D02*
D03*
X150787D02*
D03*
X103347Y188976D02*
D03*
X95866D02*
D03*
X169488Y29528D02*
D03*
X162008D02*
D03*
X25543Y115609D02*
D03*
X18063D02*
D03*
X42126Y95276D02*
D03*
X34646D02*
D03*
X238779Y130709D02*
D03*
X231299D02*
D03*
D14*
X44488Y44488D02*
D03*
Y51968D02*
D03*
X9055Y170276D02*
D03*
Y177756D02*
D03*
X76427Y94194D02*
D03*
Y86713D02*
D03*
X85486Y86993D02*
D03*
Y94473D02*
D03*
X82284Y47638D02*
D03*
X67515Y94214D02*
D03*
Y86734D02*
D03*
X177953Y30512D02*
D03*
Y23031D02*
D03*
X85433Y118110D02*
D03*
Y125591D02*
D03*
X250394Y178937D02*
D03*
Y186417D02*
D03*
X82284Y40157D02*
D03*
X120079Y26969D02*
D03*
Y19488D02*
D03*
X139370Y27362D02*
D03*
Y19882D02*
D03*
X85827Y177559D02*
D03*
Y170079D02*
D03*
Y78937D02*
D03*
Y71457D02*
D03*
X255906Y74016D02*
D03*
Y81496D02*
D03*
X91339Y47638D02*
D03*
Y40157D02*
D03*
X77072Y79065D02*
D03*
Y71585D02*
D03*
D15*
X18305Y66535D02*
D03*
Y91732D02*
D03*
D16*
X8659Y83858D02*
D03*
Y74410D02*
D03*
D17*
X19191Y84252D02*
D03*
Y81693D02*
D03*
Y79134D02*
D03*
Y76575D02*
D03*
Y74016D02*
D03*
D18*
X63386Y69882D02*
D03*
D19*
X73386Y45472D02*
D03*
X68386D02*
D03*
X63386D02*
D03*
X58386D02*
D03*
X53386D02*
D03*
D20*
X77953Y170472D02*
D03*
Y177953D02*
D03*
X67323Y170472D02*
D03*
Y174213D02*
D03*
Y177953D02*
D03*
X91733Y56128D02*
D03*
Y63609D02*
D03*
X81103Y56128D02*
D03*
Y59869D02*
D03*
Y63609D02*
D03*
D21*
X28431Y8393D02*
D03*
Y24534D02*
D03*
X28740Y56102D02*
D03*
Y39961D02*
D03*
D22*
X8268Y23622D02*
D03*
Y36220D02*
D03*
D23*
X26969Y108843D02*
D03*
X19489D02*
D03*
X26969Y98213D02*
D03*
X23229D02*
D03*
X19489D02*
D03*
X263386Y67323D02*
D03*
X259646D02*
D03*
X255906D02*
D03*
X263386Y56693D02*
D03*
X255906D02*
D03*
D24*
X101181Y170079D02*
D03*
X94882D02*
D03*
Y153150D02*
D03*
X101181D02*
D03*
X94882Y161417D02*
D03*
X101181D02*
D03*
X231890Y149213D02*
D03*
X238189D02*
D03*
D25*
X159646Y90551D02*
D03*
X167126D02*
D03*
X58135Y83903D02*
D03*
X50655D02*
D03*
X108733Y177978D02*
D03*
X116213D02*
D03*
X109178Y168092D02*
D03*
X116659D02*
D03*
X40945Y140945D02*
D03*
X33465D02*
D03*
X34252Y86221D02*
D03*
X41732D02*
D03*
X34252Y76772D02*
D03*
X41732D02*
D03*
X34449Y67716D02*
D03*
X41929D02*
D03*
X154921Y38976D02*
D03*
X147441D02*
D03*
X239370Y88583D02*
D03*
X246850D02*
D03*
X101378Y178347D02*
D03*
X93898D02*
D03*
X238583Y140157D02*
D03*
X231102D02*
D03*
X3543Y100000D02*
D03*
X11024D02*
D03*
X110885Y34566D02*
D03*
X103405D02*
D03*
D26*
X180311Y112205D02*
D03*
X161811D02*
D03*
D27*
X129921Y26378D02*
D03*
Y18898D02*
D03*
X68898Y154921D02*
D03*
Y162402D02*
D03*
X35039Y111024D02*
D03*
Y103543D02*
D03*
X85433Y103740D02*
D03*
Y111221D02*
D03*
X238583Y178937D02*
D03*
Y186417D02*
D03*
X227165Y178937D02*
D03*
Y186417D02*
D03*
X250394Y163189D02*
D03*
Y170669D02*
D03*
X263844Y74133D02*
D03*
Y81613D02*
D03*
X10236Y108661D02*
D03*
Y116142D02*
D03*
X264181Y95319D02*
D03*
Y87839D02*
D03*
X104243Y27059D02*
D03*
Y19579D02*
D03*
X98992Y56069D02*
D03*
Y63550D02*
D03*
X255887Y95473D02*
D03*
Y87993D02*
D03*
X129921Y26378D02*
D03*
Y33858D02*
D03*
D28*
X99606Y122098D02*
D03*
Y103598D02*
D03*
D29*
X77165Y107087D02*
D03*
Y110236D02*
D03*
Y113386D02*
D03*
Y116535D02*
D03*
Y119685D02*
D03*
Y122835D02*
D03*
Y125984D02*
D03*
Y129134D02*
D03*
X44094D02*
D03*
Y125984D02*
D03*
Y122835D02*
D03*
Y119685D02*
D03*
Y116535D02*
D03*
Y113386D02*
D03*
Y110236D02*
D03*
Y107087D02*
D03*
D30*
X71653Y134646D02*
D03*
X68504D02*
D03*
X65354D02*
D03*
X62205D02*
D03*
X59055D02*
D03*
X55905D02*
D03*
X52756D02*
D03*
X49606D02*
D03*
Y101575D02*
D03*
X52756D02*
D03*
X55905D02*
D03*
X59055D02*
D03*
X62205Y101575D02*
D03*
X65354Y101575D02*
D03*
X68504D02*
D03*
X71653D02*
D03*
D31*
X2756Y107798D02*
D03*
Y117398D02*
D03*
D32*
X247618Y95888D02*
D03*
X238018D02*
D03*
D33*
X27165Y83465D02*
D03*
Y89370D02*
D03*
Y77559D02*
D03*
Y71653D02*
D03*
M02*
