G04*
G04 #@! TF.GenerationSoftware,Altium Limited,Altium Designer,22.1.2 (22)*
G04*
G04 Layer_Physical_Order=1*
G04 Layer_Color=255*
%FSLAX25Y25*%
%MOIN*%
G70*
G04*
G04 #@! TF.SameCoordinates,CB3FAF70-DFB5-4037-BA8D-DCE23A76FFA9*
G04*
G04*
G04 #@! TF.FilePolarity,Positive*
G04*
G01*
G75*
%ADD12C,0.01575*%
%ADD13R,0.03543X0.05118*%
%ADD14R,0.05118X0.03543*%
%ADD15R,0.05512X0.06299*%
%ADD16R,0.07480X0.07480*%
%ADD17R,0.05315X0.01575*%
%ADD18R,0.13780X0.08661*%
%ADD19R,0.02362X0.08661*%
%ADD20R,0.03937X0.02165*%
%ADD21R,0.06299X0.11811*%
%ADD22R,0.10630X0.07874*%
%ADD23R,0.02165X0.03937*%
%ADD24R,0.03150X0.03150*%
%ADD25R,0.02756X0.05118*%
%ADD26R,0.10236X0.09843*%
%ADD27R,0.05118X0.02756*%
%ADD28R,0.09843X0.10236*%
%ADD29R,0.05906X0.02165*%
%ADD30R,0.02165X0.05906*%
%ADD31R,0.02700X0.02200*%
%ADD32R,0.02200X0.02700*%
%ADD33R,0.03543X0.02362*%
%ADD61C,0.07480*%
%ADD62R,0.07480X0.07480*%
%ADD68C,0.04000*%
%ADD69C,0.01181*%
%ADD70O,0.06299X0.07874*%
%ADD71R,0.06299X0.07874*%
%ADD72C,0.12598*%
%ADD73O,0.07874X0.06299*%
%ADD74R,0.07874X0.06299*%
%ADD75C,0.06693*%
%ADD76R,0.06693X0.06693*%
G04:AMPARAMS|DCode=77|XSize=78.74mil|YSize=47.24mil|CornerRadius=11.81mil|HoleSize=0mil|Usage=FLASHONLY|Rotation=0.000|XOffset=0mil|YOffset=0mil|HoleType=Round|Shape=RoundedRectangle|*
%AMROUNDEDRECTD77*
21,1,0.07874,0.02362,0,0,0.0*
21,1,0.05512,0.04724,0,0,0.0*
1,1,0.02362,0.02756,-0.01181*
1,1,0.02362,-0.02756,-0.01181*
1,1,0.02362,-0.02756,0.01181*
1,1,0.02362,0.02756,0.01181*
%
%ADD77ROUNDEDRECTD77*%
%ADD78C,0.15748*%
%ADD79C,0.29134*%
%ADD80C,0.02362*%
G36*
X36282Y36282D02*
X32552Y32552D01*
X23684D01*
Y31102D01*
X1243D01*
Y40157D01*
X15936D01*
X22235Y46457D01*
X36282D01*
Y36282D01*
D02*
G37*
%LPC*%
G36*
X28740Y41968D02*
X27972Y41815D01*
X27321Y41380D01*
X26886Y40729D01*
X26733Y39961D01*
Y39414D01*
X24959Y37640D01*
X24524Y36988D01*
X24371Y36220D01*
X24524Y35452D01*
X24959Y34801D01*
X25610Y34366D01*
X26378Y34213D01*
X27146Y34366D01*
X27797Y34801D01*
X29496Y36500D01*
X29744Y36335D01*
X30512Y36182D01*
X31280Y36335D01*
X31931Y36770D01*
X32366Y37421D01*
X32519Y38189D01*
X32366Y38957D01*
X31931Y39608D01*
X30159Y41380D01*
X29508Y41815D01*
X28740Y41968D01*
D02*
G37*
%LPD*%
D12*
X182677Y164961D02*
X204921Y187205D01*
X205755Y194337D02*
X205906Y194488D01*
X204921Y190141D02*
X205755Y190975D01*
Y194337D01*
X204921Y187205D02*
Y190141D01*
X182677Y149348D02*
Y164961D01*
X183600Y148425D02*
X195276D01*
X182677Y149348D02*
X183600Y148425D01*
X105868Y95239D02*
X107329D01*
X102756Y92126D02*
X105868Y95239D01*
X182777Y99405D02*
X186413D01*
X189370Y102362D01*
X26378Y36220D02*
X28740Y38583D01*
Y39961D02*
X30512Y38189D01*
X28740Y38583D02*
Y39961D01*
X109449Y29921D02*
X109485Y29885D01*
Y20559D02*
Y29885D01*
X225197Y135433D02*
Y150401D01*
X231597Y156801D01*
X85630Y125591D02*
X86614Y126575D01*
X85433Y125591D02*
X85630D01*
X86614Y126575D02*
Y129921D01*
X103150Y133858D02*
X107283D01*
X108465Y132677D02*
X108661D01*
X107283Y133858D02*
X108465Y132677D01*
X36961Y170276D02*
X37883Y169353D01*
X9055Y170276D02*
X36961D01*
X37883Y162222D02*
Y169353D01*
X35965Y160304D02*
X37883Y162222D01*
X35965Y154069D02*
Y160304D01*
Y154069D02*
X38232Y151803D01*
X46071D01*
X50243Y155975D01*
Y159298D01*
X52761Y162841D02*
X54736Y160866D01*
X60459D01*
X61994Y162402D01*
X68898D01*
X50544Y162841D02*
X52761D01*
X10000Y162000D02*
Y169331D01*
X50243Y159298D02*
X50394Y159449D01*
X90209Y78937D02*
X92172Y76974D01*
X85827Y78937D02*
X90209D01*
X90945Y52543D02*
X91339Y52149D01*
X90945Y52543D02*
Y52756D01*
X91339Y47638D02*
Y52149D01*
X82109Y47812D02*
X82284Y47638D01*
X82109Y47812D02*
Y54226D01*
X54431Y89127D02*
X57395Y92092D01*
X53300Y89127D02*
X54431D01*
X53150Y88976D02*
X53300Y89127D01*
X40762Y99353D02*
Y99566D01*
X41142Y96260D02*
X42126Y95276D01*
X41142Y96260D02*
Y98974D01*
X40762Y99353D02*
X41142Y98974D01*
X32812Y90945D02*
X37402D01*
X31299Y89432D02*
X32812Y90945D01*
X26969Y98213D02*
X30283D01*
X30889Y98819D01*
X31102D01*
X85486Y94473D02*
X85536Y94523D01*
Y100213D01*
X31822Y116376D02*
X32035D01*
X31055Y115609D02*
X31822Y116376D01*
X25543Y115609D02*
X31055D01*
X174980Y90531D02*
X175000Y90551D01*
X174980Y87906D02*
Y90531D01*
X174961Y87887D02*
X174980Y87906D01*
X193898Y37446D02*
Y42484D01*
Y37446D02*
X194966Y36377D01*
Y33969D02*
Y36377D01*
X192060Y34960D02*
X192210Y35110D01*
X194882Y33884D02*
X194966Y33969D01*
X194882Y30906D02*
Y33884D01*
X190668Y34960D02*
X192060D01*
X193898Y29921D02*
X194882Y30906D01*
X186417Y30709D02*
X190668Y34960D01*
X184798Y39693D02*
X185498Y38993D01*
X184798Y39693D02*
Y41333D01*
X184648Y41484D02*
X184798Y41333D01*
X162450Y39116D02*
X163098Y39764D01*
X162450Y38434D02*
Y39116D01*
X163098Y39764D02*
X165748D01*
X161991Y37976D02*
X162450Y38434D01*
X162061Y29581D02*
Y37906D01*
X161991Y37976D02*
X162061Y37906D01*
X159055Y41732D02*
X159206Y41582D01*
X162114Y38770D02*
Y39558D01*
X160090Y41582D02*
X162114Y39558D01*
X159206Y41582D02*
X160090D01*
X77756Y173819D02*
X81299D01*
X85039Y170079D01*
X152084Y99606D02*
X159252D01*
X251000Y74016D02*
X255906D01*
X250607Y73622D02*
X251000Y74016D01*
X250394Y73622D02*
X250607D01*
X249430Y69629D02*
X249643D01*
X251948Y67323D01*
X255906D01*
X21441Y205512D02*
X22228Y204724D01*
X22441D01*
X15748Y205512D02*
X21441D01*
X165748Y26710D02*
Y31890D01*
X166142Y21821D02*
Y26316D01*
X165748Y26710D02*
X166142Y26316D01*
X163218Y18898D02*
X166142Y21821D01*
X52756Y50433D02*
X54370Y48819D01*
X104243Y19579D02*
X108505D01*
X109485Y20559D01*
X86286Y187336D02*
X88976Y184646D01*
X86286Y187336D02*
Y191499D01*
X120259Y167717D02*
X120472D01*
X116659Y168092D02*
X119884D01*
X120259Y167717D01*
X116436Y168315D02*
X116659Y168092D01*
X85827Y177559D02*
X90205D01*
X90993Y178347D01*
X85827Y177559D02*
Y179528D01*
X85630Y177756D02*
X85827Y177559D01*
X90993Y178347D02*
X93898D01*
X116436Y168315D02*
Y177755D01*
X50394Y162992D02*
X50544Y162841D01*
X237705Y96125D02*
X238018Y95813D01*
X255984Y49567D02*
Y50354D01*
Y48779D02*
Y49567D01*
X171896Y23031D02*
X177953D01*
X3319Y117086D02*
X4263Y116142D01*
X3319Y115202D02*
Y117086D01*
Y115202D02*
X4641Y113880D01*
X3006Y117398D02*
X3319Y117086D01*
X239370Y22441D02*
Y32198D01*
X253314Y46142D01*
X63386Y48622D02*
X72835Y58071D01*
X63386Y45472D02*
Y48622D01*
X72835Y58071D02*
Y58268D01*
X52756Y52716D02*
X58847Y58808D01*
X60382Y56445D02*
X66738D01*
X58847Y58808D02*
X65759D01*
X55512Y51575D02*
X60382Y56445D01*
X66738D02*
X75300Y65008D01*
X65759Y58808D02*
X71850Y64899D01*
X58386Y45472D02*
Y48425D01*
X75300Y65008D02*
Y70601D01*
X76284Y71585D02*
X77072D01*
X52756Y50433D02*
Y52716D01*
X54370Y48819D02*
X57992D01*
X75300Y70601D02*
X76284Y71585D01*
X71850Y64899D02*
Y88955D01*
X57992Y48819D02*
X58386Y48425D01*
X67515Y91431D02*
X68651Y90294D01*
X70512D02*
X71850Y88955D01*
X67515Y91431D02*
Y94214D01*
X68651Y90294D02*
X70512D01*
X162008Y29528D02*
X162061Y29581D01*
X140945Y38370D02*
Y38583D01*
X139803Y41339D02*
X142086D01*
X139541Y36965D02*
X140945Y38370D01*
X142086Y41339D02*
X143701Y39724D01*
X137178Y36153D02*
Y38714D01*
X143517Y34781D02*
Y37161D01*
X143701Y37344D01*
X144440Y33858D02*
X148781D01*
X143517Y34781D02*
X144440Y33858D01*
X134884D02*
X137178Y36153D01*
Y38714D02*
X139803Y41339D01*
X143701Y37344D02*
Y39724D01*
X139541Y27533D02*
Y36965D01*
X120472Y37189D02*
Y37402D01*
X120079Y26969D02*
Y36795D01*
X120472Y37189D01*
X25162Y70472D02*
X31102D01*
X25378Y179134D02*
X25591D01*
X24000Y177756D02*
X25378Y179134D01*
X9055Y177756D02*
X24000D01*
X112992Y22700D02*
X113915Y23622D01*
X123290D01*
X112992Y19751D02*
Y22700D01*
X112411Y19170D02*
X112992Y19751D01*
X123290Y23622D02*
X124213Y24544D01*
Y24702D02*
X125102Y25591D01*
X124213Y24544D02*
Y24702D01*
X27165Y89370D02*
X27227Y89432D01*
X31299D01*
X23890Y71745D02*
X25162Y70472D01*
X17911Y66142D02*
X18305Y66535D01*
X38888Y51968D02*
X38977Y51880D01*
Y34369D02*
Y51880D01*
X68386Y38780D02*
Y45472D01*
X65748Y34646D02*
Y36142D01*
X68386Y38780D01*
X19191Y71745D02*
X23890D01*
X18305Y66142D02*
Y66535D01*
X19285Y67515D01*
Y71650D01*
X19191Y71745D02*
Y74016D01*
Y71745D02*
X19285Y71650D01*
X235368Y120901D02*
Y122376D01*
X238779Y125787D02*
Y130709D01*
X235368Y122376D02*
X238779Y125787D01*
X231597Y149505D02*
X231890Y149213D01*
X231597Y149505D02*
Y156801D01*
X57395Y92092D02*
Y92879D01*
X59055Y107363D02*
X59113Y107421D01*
X59055Y101575D02*
Y107363D01*
X67515Y82123D02*
X67557Y82081D01*
X67515Y82123D02*
Y86734D01*
X76391Y82833D02*
X76427Y82868D01*
Y86713D01*
X102756Y91339D02*
Y92126D01*
X76907Y94194D02*
X77214D01*
X76427D02*
X76907D01*
X78997Y81291D02*
X84699Y86993D01*
X77214Y94194D02*
X83431Y87977D01*
X84502D01*
X85486Y86993D01*
X76907Y94194D02*
X77891Y95178D01*
Y99409D01*
X71653Y101575D02*
Y106890D01*
Y99705D02*
X71949Y99409D01*
X77891D01*
X71653Y99705D02*
Y101575D01*
X68504Y95198D02*
Y101575D01*
X67520Y94214D02*
X68504Y95198D01*
X67515Y94214D02*
X67520D01*
X69114Y109429D02*
X71653Y106890D01*
X68728Y116535D02*
X77165D01*
X66444Y111968D02*
X68983Y109429D01*
X66444Y114251D02*
X68728Y116535D01*
X68983Y109429D02*
X69114D01*
X66444Y111968D02*
Y114251D01*
X69200Y113110D02*
X76889D01*
X77165Y113386D01*
X103347Y188976D02*
X103673Y189303D01*
Y199673D02*
X104000Y200000D01*
X103673Y189303D02*
Y199673D01*
X85039Y170079D02*
X85827D01*
X68209Y170472D02*
X72151Y166530D01*
Y166215D02*
Y166530D01*
X67323Y170472D02*
X68209D01*
X231597Y156801D02*
X232902D01*
X233824Y157724D02*
Y162267D01*
X232902Y156801D02*
X233824Y157724D01*
Y162267D02*
X234747Y163189D01*
X250394D01*
Y154335D02*
X260000Y144729D01*
X250394Y154335D02*
Y163189D01*
X260000Y140000D02*
Y144729D01*
X260457Y121499D02*
X260914Y121043D01*
X260457Y121499D02*
Y139543D01*
X260000Y140000D02*
X260457Y139543D01*
X260843Y120972D02*
X260914Y121043D01*
X235439Y120972D02*
X260843D01*
X235368Y120901D02*
X235439Y120972D01*
X263465Y49567D02*
X268037D01*
X268084Y49520D01*
X186417Y29921D02*
Y30709D01*
X158268Y18898D02*
X163218D01*
X158268Y18110D02*
X160000Y16378D01*
X158268Y18110D02*
Y18898D01*
X160000Y10000D02*
Y16378D01*
Y10000D02*
X170000D01*
X129921Y33858D02*
X134884D01*
X139370Y27362D02*
X139541Y27533D01*
X148781Y33858D02*
X150787Y31852D01*
X77564Y56128D02*
X81103D01*
X77508Y56185D02*
X77564Y56128D01*
X75520Y19494D02*
Y31327D01*
Y5923D02*
Y19494D01*
X59954Y10000D02*
X69448Y19494D01*
X75520D01*
X55000Y10000D02*
X59954D01*
X75520Y5923D02*
X75590Y5852D01*
X75449Y31398D02*
X75520Y31327D01*
X38977Y26023D02*
X55000Y10000D01*
X38977Y26023D02*
Y34369D01*
X38888Y51968D02*
X43701D01*
X31102D02*
X38888D01*
X34261Y29652D02*
X38977Y34369D01*
X30794Y29652D02*
X34261D01*
X28431Y24534D02*
Y27290D01*
X30794Y29652D01*
X9053Y74016D02*
X19191D01*
X8659Y74410D02*
X9053Y74016D01*
X61221Y67716D02*
X63386Y69882D01*
X41929Y67716D02*
X61221D01*
X41929Y53740D02*
X43701Y51968D01*
X44488D01*
X41929Y53740D02*
Y67716D01*
X28740Y54331D02*
X31102Y51968D01*
X28740Y54331D02*
Y56102D01*
X20667Y64173D02*
X23620Y61221D01*
X26378D02*
X28740Y58858D01*
X18305Y66142D02*
X20274Y64173D01*
X20667D01*
X23620Y61221D02*
X26378D01*
X28740Y56102D02*
Y58858D01*
X8659Y66142D02*
X8661Y66140D01*
Y50787D02*
Y66140D01*
X8659Y66142D02*
Y74410D01*
Y83858D01*
X17911Y92126D02*
X18305Y91732D01*
X8659Y92126D02*
X17911D01*
X8268Y199117D02*
X10000Y197385D01*
X8268Y199117D02*
Y205512D01*
X10000Y196000D02*
Y197385D01*
X116213Y177978D02*
X116436Y177755D01*
X78150Y177756D02*
X85630D01*
X77953Y177953D02*
X78150Y177756D01*
X9055Y170276D02*
X10000Y169331D01*
X4263Y116142D02*
X10236D01*
X2756Y117398D02*
X3006D01*
X14748Y110946D02*
X18063D01*
X14656Y111038D02*
X14748Y110946D01*
X18985Y110024D02*
X19194D01*
X18063Y110946D02*
Y115609D01*
Y110946D02*
X18985Y110024D01*
X19194D02*
X19489Y109728D01*
Y108843D02*
Y109728D01*
X19422Y108775D02*
X19489Y108843D01*
X19422Y104466D02*
Y108775D01*
Y104466D02*
X20344Y103543D01*
X35039D01*
X77136Y71521D02*
X85763D01*
X85827Y71457D01*
X77072Y71585D02*
X77136Y71521D01*
X85827Y71457D02*
X86614D01*
X91313Y63609D02*
X91733D01*
X91017Y63904D02*
X91313Y63609D01*
X91017Y63904D02*
Y67054D01*
X86614Y71457D02*
X91017Y67054D01*
X129331Y25787D02*
X129921Y26378D01*
X125512Y25787D02*
X129331D01*
X125315Y25591D02*
X125512Y25787D01*
X125102Y25591D02*
X125315D01*
X128150Y19488D02*
X128740Y18898D01*
X120000Y19410D02*
X120079Y19488D01*
X119761Y19170D02*
X120000Y19410D01*
X112411Y19170D02*
X119761D01*
X120000Y10000D02*
Y19410D01*
X131693Y20669D02*
X133337Y22313D01*
X136676D01*
X131102Y18898D02*
X131693Y19488D01*
X128740Y18898D02*
X131102D01*
X131693Y19488D02*
Y20669D01*
X136676Y22313D02*
X137598Y21391D01*
Y20866D02*
Y21391D01*
Y20866D02*
X138583Y19882D01*
X139370D01*
Y16176D02*
Y19882D01*
X129874Y30512D02*
X129921Y30465D01*
Y26378D02*
Y30465D01*
X170973Y23954D02*
X171896Y23031D01*
X186614Y20472D02*
Y25097D01*
X186911Y25394D01*
X253346Y46142D02*
X255984Y48779D01*
X253314Y46142D02*
X253346D01*
X268202Y81488D02*
Y87458D01*
Y62395D02*
Y81488D01*
X263844Y81613D02*
X268077D01*
X268202Y81488D01*
Y87458D02*
Y93177D01*
X264561Y87458D02*
X268202D01*
X264181Y87839D02*
X264561Y87458D01*
X255984Y50354D02*
X259331Y53701D01*
X263386Y55807D02*
Y56693D01*
X261280Y53701D02*
X263386Y55807D01*
X259331Y53701D02*
X261280D01*
X267280Y111528D02*
X268315Y110494D01*
X268202Y93177D02*
X268315Y93289D01*
Y110494D01*
X227130Y112451D02*
X228053Y111528D01*
X227130Y112451D02*
Y122472D01*
X231299Y126641D01*
Y130709D01*
X228053Y111528D02*
X267280D01*
X224824Y124233D02*
X231299Y130709D01*
X224824Y97048D02*
Y124233D01*
Y97048D02*
X225746Y96125D01*
X237705D01*
X238018Y95638D02*
Y95813D01*
X263386Y57579D02*
X268202Y62395D01*
X263386Y56693D02*
Y57579D01*
X231201Y130807D02*
Y140059D01*
X231102Y140157D02*
X231201Y140059D01*
Y130807D02*
X231299Y130709D01*
X246850Y88583D02*
Y89764D01*
X241289Y95325D02*
X246850Y89764D01*
X238331Y95325D02*
X241289D01*
X238018Y95638D02*
X238331Y95325D01*
X55610Y98167D02*
Y101279D01*
X50899Y94651D02*
X52094D01*
X49915Y92879D02*
Y93666D01*
X55610Y101279D02*
X55905Y101575D01*
X52094Y94651D02*
X55610Y98167D01*
X49915Y93666D02*
X50899Y94651D01*
X50285Y84273D02*
X50655Y83903D01*
X50285Y84273D02*
Y92509D01*
X49915Y92879D02*
X50285Y92509D01*
X169541Y29581D02*
X170472Y30512D01*
X169488Y29528D02*
X169541Y29581D01*
X170472Y30512D02*
X177953D01*
X169541Y29581D02*
Y38717D01*
X169594Y38770D01*
X164350Y48935D02*
X169594Y43692D01*
X164350Y48935D02*
Y49500D01*
X169594Y38770D02*
Y43692D01*
X193996Y20571D02*
X194095Y20472D01*
X193898Y29921D02*
X193996Y29823D01*
Y20571D02*
Y29823D01*
X189626Y46756D02*
X193898Y42484D01*
X185408Y57297D02*
X189626Y53078D01*
Y46756D02*
Y53078D01*
X205938Y59772D02*
X227543D01*
X205658Y60052D02*
X205938Y59772D01*
X183112Y60052D02*
X205658D01*
X174350Y51291D02*
X183112Y60052D01*
X176279Y57235D02*
X176953D01*
X184350Y64631D01*
X174350Y43201D02*
Y51291D01*
X184350Y64631D02*
Y79500D01*
X182480Y90551D02*
X183446Y89585D01*
Y80404D02*
Y89585D01*
Y80404D02*
X184350Y79500D01*
X58135Y77038D02*
X58992Y76181D01*
X58135Y77038D02*
Y83903D01*
X84699Y86993D02*
X85486D01*
X82776Y117126D02*
X84449D01*
X77461Y116831D02*
X82480D01*
X84449Y117126D02*
X85433Y118110D01*
X82480Y116831D02*
X82776Y117126D01*
X77165Y116535D02*
X77461Y116831D01*
X139139Y15945D02*
X139370Y16176D01*
X80512Y39173D02*
X81496Y40157D01*
X82284D01*
X73386Y45472D02*
X76929D01*
X80512Y41890D01*
Y41142D02*
Y41890D01*
Y41142D02*
X81496Y40157D01*
X68386Y45472D02*
X73386D01*
X139139Y10861D02*
X140000Y10000D01*
X139139Y10861D02*
Y15945D01*
X65748Y34646D02*
X66063D01*
X44488Y44488D02*
X52992D01*
X53386Y44882D01*
Y45472D01*
X44488Y35906D02*
Y44488D01*
Y35906D02*
X45748Y34646D01*
X53386Y45472D02*
X58386D01*
X150787Y18898D02*
Y31852D01*
X150000Y10000D02*
X150394Y10394D01*
Y18504D01*
X150787Y18898D01*
X8268Y8661D02*
Y23622D01*
Y8661D02*
X28163D01*
X28431Y8393D01*
X23132Y87350D02*
Y91068D01*
X23084Y86274D02*
Y87097D01*
X23132Y87350D02*
X23234Y87248D01*
X23030Y91171D02*
X23132Y91068D01*
X21061Y84252D02*
X23084Y86274D01*
Y87097D02*
X23234Y87248D01*
X19191Y84252D02*
X21061D01*
X86286Y191499D02*
X94000Y199213D01*
X174350Y43201D02*
X176786Y40765D01*
X177033D01*
X178017Y39781D01*
Y38993D02*
Y39781D01*
X94000Y199213D02*
Y200000D01*
Y191630D02*
Y199213D01*
Y191630D02*
X95866Y189764D01*
Y188976D02*
Y189764D01*
D13*
X182777Y99405D02*
D03*
X175296D02*
D03*
X8268Y205512D02*
D03*
X15748D02*
D03*
X182480Y90551D02*
D03*
X175000D02*
D03*
X166732Y99606D02*
D03*
X159252D02*
D03*
X255984Y49567D02*
D03*
X263465D02*
D03*
X178017Y38993D02*
D03*
X185498D02*
D03*
X169594Y38770D02*
D03*
X162114D02*
D03*
X186417Y29921D02*
D03*
X193898D02*
D03*
X194095Y20472D02*
D03*
X186614D02*
D03*
X57395Y92879D02*
D03*
X49915D02*
D03*
X103150Y133858D02*
D03*
X95669D02*
D03*
X102756Y91339D02*
D03*
X95276D02*
D03*
X158268Y18898D02*
D03*
X150787D02*
D03*
X103347Y188976D02*
D03*
X95866D02*
D03*
X169488Y29528D02*
D03*
X162008D02*
D03*
X25543Y115609D02*
D03*
X18063D02*
D03*
X42126Y95276D02*
D03*
X34646D02*
D03*
X238779Y130709D02*
D03*
X231299D02*
D03*
D14*
X44488Y44488D02*
D03*
Y51968D02*
D03*
X9055Y170276D02*
D03*
Y177756D02*
D03*
X76427Y94194D02*
D03*
Y86713D02*
D03*
X85486Y86993D02*
D03*
Y94473D02*
D03*
X82284Y47638D02*
D03*
X67515Y94214D02*
D03*
Y86734D02*
D03*
X177953Y30512D02*
D03*
Y23031D02*
D03*
X85433Y118110D02*
D03*
Y125591D02*
D03*
X250394Y178937D02*
D03*
Y186417D02*
D03*
X82284Y40157D02*
D03*
X120079Y26969D02*
D03*
Y19488D02*
D03*
X139370Y27362D02*
D03*
Y19882D02*
D03*
X85827Y177559D02*
D03*
Y170079D02*
D03*
Y78937D02*
D03*
Y71457D02*
D03*
X255906Y74016D02*
D03*
Y81496D02*
D03*
X91339Y47638D02*
D03*
Y40157D02*
D03*
X77072Y79065D02*
D03*
Y71585D02*
D03*
D15*
X18305Y66535D02*
D03*
Y91732D02*
D03*
D16*
X8659Y83858D02*
D03*
Y74410D02*
D03*
X93449Y31398D02*
D03*
D17*
X19191Y84252D02*
D03*
Y81693D02*
D03*
Y79134D02*
D03*
Y76575D02*
D03*
Y74016D02*
D03*
D18*
X63386Y69882D02*
D03*
D19*
X73386Y45472D02*
D03*
X68386D02*
D03*
X63386D02*
D03*
X58386D02*
D03*
X53386D02*
D03*
D20*
X77953Y170472D02*
D03*
Y177953D02*
D03*
X67323Y170472D02*
D03*
Y174213D02*
D03*
Y177953D02*
D03*
X91733Y56128D02*
D03*
Y63609D02*
D03*
X81103Y56128D02*
D03*
Y59869D02*
D03*
Y63609D02*
D03*
D21*
X28431Y8393D02*
D03*
Y24534D02*
D03*
X28740Y56102D02*
D03*
Y39961D02*
D03*
D22*
X8268Y23622D02*
D03*
Y36220D02*
D03*
D23*
X26969Y108843D02*
D03*
X19489D02*
D03*
X26969Y98213D02*
D03*
X23229D02*
D03*
X19489D02*
D03*
X263386Y67323D02*
D03*
X259646D02*
D03*
X255906D02*
D03*
X263386Y56693D02*
D03*
X255906D02*
D03*
D24*
X101181Y170079D02*
D03*
X94882D02*
D03*
Y153150D02*
D03*
X101181D02*
D03*
X94882Y161417D02*
D03*
X101181D02*
D03*
X231890Y149213D02*
D03*
X238189D02*
D03*
D25*
X159646Y90551D02*
D03*
X167126D02*
D03*
X58135Y83903D02*
D03*
X50655D02*
D03*
X108733Y177978D02*
D03*
X116213D02*
D03*
X109178Y168092D02*
D03*
X116659D02*
D03*
X40945Y140945D02*
D03*
X33465D02*
D03*
X34252Y86221D02*
D03*
X41732D02*
D03*
X34252Y76772D02*
D03*
X41732D02*
D03*
X34449Y67716D02*
D03*
X41929D02*
D03*
X154921Y38976D02*
D03*
X147441D02*
D03*
X239370Y88583D02*
D03*
X246850D02*
D03*
X101378Y178347D02*
D03*
X93898D02*
D03*
X238583Y140157D02*
D03*
X231102D02*
D03*
X3543Y100000D02*
D03*
X11024D02*
D03*
X110885Y34566D02*
D03*
X103405D02*
D03*
D26*
X180311Y112205D02*
D03*
X161811D02*
D03*
D27*
X129921Y26378D02*
D03*
Y18898D02*
D03*
X68898Y154921D02*
D03*
Y162402D02*
D03*
X35039Y111024D02*
D03*
Y103543D02*
D03*
X85433Y103740D02*
D03*
Y111221D02*
D03*
X238583Y178937D02*
D03*
Y186417D02*
D03*
X227165Y178937D02*
D03*
Y186417D02*
D03*
X250394Y163189D02*
D03*
Y170669D02*
D03*
X263844Y74133D02*
D03*
Y81613D02*
D03*
X10236Y108661D02*
D03*
Y116142D02*
D03*
X264181Y95319D02*
D03*
Y87839D02*
D03*
X104243Y27059D02*
D03*
Y19579D02*
D03*
X98992Y56069D02*
D03*
Y63550D02*
D03*
X255887Y95473D02*
D03*
Y87993D02*
D03*
X129921Y26378D02*
D03*
Y33858D02*
D03*
D28*
X99606Y122098D02*
D03*
Y103598D02*
D03*
D29*
X77165Y107087D02*
D03*
Y110236D02*
D03*
Y113386D02*
D03*
Y116535D02*
D03*
Y119685D02*
D03*
Y122835D02*
D03*
Y125984D02*
D03*
Y129134D02*
D03*
X44094D02*
D03*
Y125984D02*
D03*
Y122835D02*
D03*
Y119685D02*
D03*
Y116535D02*
D03*
Y113386D02*
D03*
Y110236D02*
D03*
Y107087D02*
D03*
D30*
X71653Y134646D02*
D03*
X68504D02*
D03*
X65354D02*
D03*
X62205D02*
D03*
X59055D02*
D03*
X55905D02*
D03*
X52756D02*
D03*
X49606D02*
D03*
Y101575D02*
D03*
X52756D02*
D03*
X55905D02*
D03*
X59055D02*
D03*
X62205Y101575D02*
D03*
X65354Y101575D02*
D03*
X68504D02*
D03*
X71653D02*
D03*
D31*
X2756Y107798D02*
D03*
Y117398D02*
D03*
D32*
X247618Y95888D02*
D03*
X238018D02*
D03*
D33*
X27165Y83465D02*
D03*
Y89370D02*
D03*
Y77559D02*
D03*
Y71653D02*
D03*
D61*
X235368Y120901D02*
D03*
Y103184D02*
D03*
X260914Y121043D02*
D03*
X75590Y5852D02*
D03*
X93307D02*
D03*
X75449Y31398D02*
D03*
D62*
X260914Y103042D02*
D03*
D68*
X41850Y203228D02*
D03*
X83976Y17677D02*
D03*
X263032Y7205D02*
D03*
Y200866D02*
D03*
D69*
X233465Y174803D02*
Y175000D01*
X237402Y178937D01*
X238583D01*
X127559Y161024D02*
Y171260D01*
X127165Y171654D02*
Y174803D01*
Y171654D02*
X127559Y171260D01*
X207087Y92236D02*
Y189083D01*
X194350Y79500D02*
X207087Y92236D01*
Y189083D02*
X210000Y191997D01*
X177165Y166535D02*
X199016Y188386D01*
Y192125D02*
X200000Y193109D01*
X199016Y188386D02*
Y192125D01*
X177165Y142126D02*
Y166535D01*
X200000Y193109D02*
Y200000D01*
X143307Y108268D02*
X177165Y142126D01*
X143307Y83538D02*
Y108268D01*
X135129Y191387D02*
X138189Y188327D01*
Y164173D02*
Y188327D01*
X111811Y137795D02*
X138189Y164173D01*
X128740Y116142D02*
X161417Y148819D01*
Y197417D01*
X128740Y96529D02*
Y116142D01*
X156299Y151969D02*
Y186226D01*
X125175Y96249D02*
Y120844D01*
X156299Y151969D01*
X123207Y97899D02*
Y127931D01*
X151082Y155806D02*
Y192340D01*
X123207Y127931D02*
X151082Y155806D01*
X121023Y134015D02*
X148732Y161724D01*
X121023Y98499D02*
Y134015D01*
X148732Y161724D02*
Y190336D01*
X109059Y89319D02*
X116535Y96796D01*
Y136221D02*
X144249Y163934D01*
X116535Y96796D02*
Y136221D01*
X144249Y163934D02*
Y188014D01*
X107090Y90135D02*
X111811Y94855D01*
Y137795D01*
X166732Y99606D02*
Y107480D01*
X161811Y112205D02*
X162008D01*
X166732Y107480D01*
X159646Y91732D02*
X166732Y98819D01*
X159646Y90551D02*
Y91732D01*
X166732Y98819D02*
Y99606D01*
X154350Y79500D02*
Y85209D01*
X158858Y88583D02*
X159646Y89370D01*
Y90551D01*
X154350Y85209D02*
X157724Y88583D01*
X158858D01*
X131496Y110236D02*
X165748Y144488D01*
Y169685D01*
X134350Y106412D02*
X171260Y143321D01*
X134350Y79500D02*
Y106412D01*
X131496Y96501D02*
Y110236D01*
X171260Y143321D02*
Y167323D01*
X154000Y188525D02*
X156299Y186226D01*
X161417Y197417D02*
X164000Y200000D01*
X165748Y169685D02*
X180000Y183937D01*
X114350Y79500D02*
Y80287D01*
X121699Y88988D02*
X122375Y88312D01*
X121699Y88988D02*
Y89488D01*
X114350Y80287D02*
X122375Y88312D01*
X121699Y89488D02*
X128740Y96529D01*
X111027Y88504D02*
X121023Y98499D01*
X104248Y85744D02*
X107090Y88586D01*
X109059Y87771D02*
Y89319D01*
X104248Y55252D02*
Y85744D01*
X107090Y88586D02*
Y90135D01*
X106217Y54437D02*
Y84929D01*
X108185Y84113D02*
X111027Y86956D01*
X108185Y44589D02*
Y84113D01*
X106217Y84929D02*
X109059Y87771D01*
X111027Y86956D02*
Y88504D01*
X102342Y50563D02*
X106217Y54437D01*
X108877Y43898D02*
X123163D01*
X108185Y44589D02*
X108877Y43898D01*
X143307Y83538D02*
X143371Y83474D01*
X180000Y183937D02*
Y200000D01*
X143371Y80479D02*
Y83474D01*
Y80479D02*
X144350Y79500D01*
X210732Y85882D02*
Y189945D01*
X204350Y79500D02*
X210732Y85882D01*
Y189945D02*
X220000Y199213D01*
X214350Y79500D02*
Y183039D01*
X210000Y191997D02*
Y200000D01*
X214350Y183039D02*
X230000Y198689D01*
X110098Y32597D02*
X110885Y33385D01*
X106211Y30303D02*
X108506Y32597D01*
X110098D01*
X106211Y27847D02*
Y30303D01*
X222047Y96762D02*
X224850Y93960D01*
X222047Y96762D02*
Y148031D01*
X219488Y156405D02*
X222569Y159486D01*
X219488Y96537D02*
X225753Y90272D01*
X219488Y96537D02*
Y156405D01*
X109449Y187403D02*
Y194882D01*
X107085Y185039D02*
X109449Y187403D01*
X107680Y141145D02*
X127559Y161024D01*
X28150Y175889D02*
Y180194D01*
Y175889D02*
X28842Y175197D01*
X48031D01*
X52165Y171063D01*
X61988D01*
X44806Y167717D02*
X53442D01*
X55568Y165591D01*
X57480D01*
X42520Y165430D02*
X44806Y167717D01*
X42520Y155903D02*
Y165430D01*
X38721Y155211D02*
X41828D01*
X42520Y155903D01*
X73561Y141145D02*
X107680D01*
X113874Y88567D02*
X123207Y97899D01*
X154000Y188525D02*
Y200000D01*
X144000Y199422D02*
X151082Y192340D01*
X124350Y89355D02*
X131496Y96501D01*
X190000Y186063D02*
Y200000D01*
X171260Y167323D02*
X190000Y186063D01*
X61247Y97520D02*
X62205Y98477D01*
Y101575D01*
X32318Y119711D02*
X35494Y116535D01*
X32318Y119711D02*
Y122207D01*
X35494Y116535D02*
X44094D01*
X255906Y55807D02*
Y60433D01*
X246870Y68568D02*
X250938Y64501D01*
X251838D01*
X246870Y70900D02*
X246909Y70939D01*
X251838Y64501D02*
X255906Y60433D01*
X246870Y68568D02*
Y70900D01*
X246909Y70939D02*
Y76941D01*
X224850Y93960D02*
X235174D01*
X64862Y98248D02*
Y101083D01*
X63216Y96601D02*
X64862Y98248D01*
X61247Y78062D02*
Y97520D01*
X12597Y140945D02*
X24935D01*
X10000Y143542D02*
X12597Y140945D01*
X24935D02*
X25627Y140253D01*
Y134438D02*
Y140253D01*
X84154Y207345D02*
X133256D01*
X110400Y182283D02*
X114000Y185884D01*
Y200000D01*
X133256Y207345D02*
X134000Y206600D01*
X79472Y202663D02*
X84154Y207345D01*
X118096Y193644D02*
Y204684D01*
X117405Y205376D02*
X118096Y204684D01*
X114933Y200933D02*
Y205376D01*
X95875Y205315D02*
X99016Y202175D01*
X114000Y200000D02*
X114933Y200933D01*
X99016Y187028D02*
X101004Y185039D01*
X88528Y201718D02*
X92125Y205315D01*
X95875D01*
X99016Y187028D02*
Y202175D01*
X114933Y205376D02*
X117405D01*
X101004Y185039D02*
X107085D01*
X91949Y182283D02*
X110400D01*
X120353Y191387D02*
X135129D01*
X84419Y182087D02*
X91752D01*
X83041Y180709D02*
X84419Y182087D01*
X91752D02*
X91949Y182283D01*
X75709Y180709D02*
X83041D01*
X51303Y182677D02*
X79596D01*
X83727Y186808D01*
Y192002D01*
X88528Y196802D01*
X79472Y185338D02*
Y202663D01*
X52119Y184646D02*
X78781D01*
X79472Y185338D01*
X88528Y196802D02*
Y201718D01*
X42895Y191085D02*
X51303Y182677D01*
X30000Y152000D02*
X30145Y151855D01*
X56693Y155591D02*
X57480D01*
X35118Y151855D02*
X37335Y149638D01*
X30145Y151855D02*
X35118D01*
X37335Y149638D02*
X50740D01*
X56693Y155591D01*
X61988Y171063D02*
X64646Y173721D01*
X238310Y19882D02*
X240905D01*
X250000Y10000D02*
Y10787D01*
X236811Y21381D02*
Y32701D01*
X237795Y17913D02*
X240000Y15709D01*
X236811Y32701D02*
X244350Y40240D01*
X234350Y21058D02*
Y49500D01*
X237495Y17913D02*
X237795D01*
X234350Y21058D02*
X237495Y17913D01*
X240905Y19882D02*
X250000Y10787D01*
X236811Y21381D02*
X238310Y19882D01*
X240000Y10000D02*
Y15709D01*
X105424Y27059D02*
X106211Y27847D01*
X134565Y39162D02*
X138906Y43504D01*
X144095D01*
X133750Y41131D02*
X138091Y45472D01*
X100374Y41806D02*
Y51378D01*
X132934Y43099D02*
X133626Y43791D01*
X100374Y41806D02*
X102219Y39961D01*
X121532D01*
X147441Y38976D02*
Y40157D01*
X140631Y45472D02*
X144350Y49192D01*
X138091Y45472D02*
X140631D01*
X133626Y43791D02*
Y48776D01*
X122331Y39162D02*
X134565D01*
X133626Y48776D02*
X134350Y49500D01*
X144350Y49192D02*
Y49500D01*
X144095Y43504D02*
X147441Y40157D01*
X121532Y39961D02*
X122331Y39162D01*
X123146Y41131D02*
X133750D01*
X123961Y43099D02*
X132934D01*
X102342Y42621D02*
X103034Y41929D01*
X102342Y42621D02*
Y50563D01*
X103034Y41929D02*
X122348D01*
X123163Y43898D02*
X123961Y43099D01*
X122348Y41929D02*
X123146Y41131D01*
X54921Y178150D02*
X57480Y175591D01*
X30000Y186000D02*
X38888D01*
X46738Y178150D01*
X54921D01*
X20000Y186000D02*
X20377D01*
X23808Y182570D02*
X25774D01*
X28150Y180194D01*
X20377Y186000D02*
X23808Y182570D01*
X103062Y27059D02*
X105424D01*
X110885Y33385D02*
Y34566D01*
X31969Y73032D02*
X32162D01*
X33661Y71532D01*
Y68504D02*
Y71532D01*
Y68504D02*
X34449Y67716D01*
X30197Y74803D02*
X31969Y73032D01*
X93234Y18001D02*
X93334Y17901D01*
X24016Y75807D02*
Y75883D01*
X23324Y76575D02*
X24016Y75883D01*
X25020Y74803D02*
X30197D01*
X19191Y76575D02*
X23324D01*
X24016Y75807D02*
X25020Y74803D01*
X28543Y76772D02*
X34252D01*
X27756Y77559D02*
X28543Y76772D01*
X27165Y77559D02*
X27756D01*
X99465Y103740D02*
X99606Y103598D01*
X85433Y103740D02*
X99465D01*
X66831Y173721D02*
X67323Y174213D01*
Y177953D01*
X147205Y191863D02*
X148732Y190336D01*
X82996Y133095D02*
Y138585D01*
X79035Y129134D02*
X82996Y133095D01*
X71718Y139302D02*
X73561Y141145D01*
X63216Y81059D02*
Y96601D01*
X62331Y76780D02*
Y76979D01*
X63216Y81059D02*
X66339Y77935D01*
X61247Y78062D02*
X62331Y76979D01*
X64646Y173721D02*
X66831D01*
X244350Y40240D02*
Y49500D01*
X260914Y103096D02*
X264919D01*
X234350Y79500D02*
Y85209D01*
X225753Y90272D02*
X229287D01*
X234350Y85209D01*
X222569Y169678D02*
X229073Y176181D01*
X222569Y159486D02*
Y169678D01*
X217448Y86402D02*
Y177574D01*
X217448Y177575D01*
X217448Y86402D02*
X224350Y79500D01*
X235174Y93960D02*
X239370Y89764D01*
Y87402D02*
Y89764D01*
X26095Y130761D02*
X37837D01*
X36299Y128793D02*
X37715Y127377D01*
X25627Y134438D02*
X26632Y133433D01*
X27596Y136093D02*
X28288Y135402D01*
X37715Y123527D02*
Y127377D01*
X28288Y135402D02*
X42822D01*
X26632Y133433D02*
X42007D01*
X43662Y134562D02*
X49114D01*
X42007Y133433D02*
X43402Y132038D01*
X27596Y136093D02*
Y142641D01*
X42822Y135402D02*
X43662Y134562D01*
X23476Y128793D02*
X36299D01*
X40186Y146461D02*
X40364Y146282D01*
X46372D01*
X47064Y145591D02*
X57480D01*
X46372Y146282D02*
X47064Y145591D01*
X100374Y51378D02*
X104248Y55252D01*
X98992Y66193D02*
X101689Y68890D01*
Y78900D01*
X98992Y63550D02*
Y66193D01*
X98963Y56099D02*
X98992Y56069D01*
X91733Y56128D02*
X91763Y56099D01*
X98963D01*
X81103Y59869D02*
Y63609D01*
Y59869D02*
X85883D01*
X86716Y59036D01*
Y40849D02*
Y59036D01*
Y40849D02*
X87408Y40157D01*
X91339D01*
X96151D02*
X99774Y36534D01*
X102618D01*
X103405Y34566D02*
Y35747D01*
X91339Y40157D02*
X96151D01*
X102618Y36534D02*
X103405Y35747D01*
X102274Y27847D02*
Y28084D01*
X93449Y31398D02*
X98961D01*
X102274Y28084D01*
Y27847D02*
X103062Y27059D01*
X93234Y31182D02*
X93449Y31398D01*
X93234Y18001D02*
Y31182D01*
X93307Y17875D02*
X93334Y17901D01*
X93307Y5852D02*
Y17875D01*
X154636Y39262D02*
X154921Y38976D01*
X154350Y49500D02*
X154636Y49215D01*
Y39262D02*
Y49215D01*
X194350Y49500D02*
X195330Y48521D01*
X196063Y38343D02*
Y43381D01*
X195330Y44114D02*
Y48521D01*
X196063Y38343D02*
X200000Y34406D01*
X195330Y44114D02*
X196063Y43381D01*
X217448Y177575D02*
Y177882D01*
X225984Y186417D01*
X220000Y199213D02*
Y200000D01*
X130000Y3456D02*
Y10000D01*
X205298Y3456D02*
Y31891D01*
X204607Y2764D02*
X205298Y3456D01*
X130000D02*
X130692Y2764D01*
X204607D01*
X22222Y81890D02*
X23797Y83465D01*
X27165D02*
X27756D01*
X19388Y81890D02*
X22222D01*
X23797Y83465D02*
X27165D01*
X19191Y81693D02*
X19388Y81890D01*
X105519Y166928D02*
Y177286D01*
X106721Y164453D02*
X109178Y166911D01*
X104572Y163198D02*
X105828Y164453D01*
X101873Y165950D02*
X104541D01*
X105519Y166928D01*
X109178Y166911D02*
Y168092D01*
X105828Y164453D02*
X106721D01*
X104572Y158770D02*
Y163198D01*
X101948Y158078D02*
X103881D01*
X104572Y158770D01*
X101181Y157311D02*
X101948Y158078D01*
X101181Y153150D02*
Y157311D01*
X105519Y177286D02*
X106211Y177978D01*
X108733D01*
X101181Y161417D02*
Y165259D01*
X101873Y165950D01*
X86046Y161417D02*
X94882D01*
X41732Y76772D02*
X41950Y76554D01*
X44786D01*
X41732Y86221D02*
X41782Y86270D01*
X44885D01*
X26575Y77559D02*
X27165D01*
X19191Y79134D02*
X25000D01*
X26575Y77559D01*
X30512Y86221D02*
X34252D01*
X27756Y83465D02*
X30512Y86221D01*
X11024Y100000D02*
X18587D01*
X19489Y99098D01*
Y98213D02*
Y99098D01*
Y98213D02*
X23229D01*
Y97327D02*
X24509Y96047D01*
X23229Y97327D02*
Y98213D01*
X24509Y95673D02*
Y96047D01*
Y95673D02*
X25316Y94866D01*
X29186D01*
X29595Y95276D01*
X34646D01*
X2756Y107798D02*
X3006D01*
X3543Y100000D02*
Y107261D01*
X3006Y107798D02*
X3543Y107261D01*
X3869Y108661D02*
X10236D01*
X3006Y107798D02*
X3869Y108661D01*
X26969Y109728D02*
X28265Y111024D01*
X26969Y108843D02*
Y109728D01*
X28265Y111024D02*
X35039D01*
X37008Y109449D02*
Y110236D01*
X35039Y111024D02*
X36220D01*
X37008Y109449D02*
X39370Y107087D01*
X36220Y111024D02*
X37008Y110236D01*
X95276Y91339D02*
Y92126D01*
X99606Y96457D02*
Y103598D01*
X95276Y92126D02*
X99606Y96457D01*
X81890Y107087D02*
X83465Y105512D01*
Y104528D02*
X84252Y103740D01*
X85433D01*
X77165Y107087D02*
X81890D01*
X83465Y104528D02*
Y105512D01*
X95669Y125839D02*
X99606Y121902D01*
X95669Y125839D02*
Y133858D01*
X86614Y111221D02*
X92965Y117571D01*
X95276D02*
X99606Y121902D01*
X85433Y111221D02*
X86614D01*
X92965Y117571D02*
X95276D01*
X77165Y110236D02*
X83268D01*
X84252Y111221D01*
X85433D01*
X65354Y138724D02*
X66535Y139905D01*
X77953Y167031D02*
Y170472D01*
X97027Y164370D02*
X98036Y163362D01*
X72963Y143830D02*
X85562D01*
X98036Y151197D02*
Y163362D01*
X68504Y139370D02*
X72963Y143830D01*
X98036Y151197D02*
X99270Y149962D01*
X109841D01*
X66535Y139905D02*
Y141906D01*
X94190Y166339D02*
X94882Y167031D01*
X77953D02*
X78645Y166339D01*
X72879Y157724D02*
X79525Y164370D01*
X68504Y134646D02*
Y139370D01*
X94882Y167031D02*
Y170079D01*
X78645Y166339D02*
X94190D01*
X79525Y164370D02*
X97027D01*
X66535Y141906D02*
X86046Y161417D01*
X65354Y134646D02*
Y138724D01*
X64082Y157032D02*
X64774Y157724D01*
X71718Y134710D02*
Y139302D01*
X64774Y157724D02*
X72879D01*
X64774Y154921D02*
X67716D01*
X64082Y155613D02*
X64774Y154921D01*
X64082Y155613D02*
Y157032D01*
X71653Y134646D02*
X71718Y134710D01*
X85562Y143830D02*
X94882Y153150D01*
X67716Y154921D02*
X68898D01*
X101279Y170177D02*
Y178248D01*
X101181Y170079D02*
X101279Y170177D01*
Y178248D02*
X101378Y178347D01*
X10000Y124646D02*
X10692Y123954D01*
Y119921D02*
X25299D01*
X10692D02*
Y123954D01*
X25299Y119921D02*
X28277Y122899D01*
X31626D01*
X32318Y122207D01*
X20000Y124646D02*
X27239D01*
X28770Y126176D01*
X34518D02*
X35210Y125485D01*
Y121357D02*
Y125485D01*
X28770Y126176D02*
X34518D01*
X35210Y121357D02*
X36882Y119685D01*
X44094D01*
X10000Y134646D02*
X10168Y134477D01*
Y129550D02*
X22720D01*
X10168D02*
Y134477D01*
X22720Y129550D02*
X23476Y128793D01*
X38407Y122835D02*
X44094D01*
X43602Y126476D02*
X44094Y125984D01*
X38759Y130761D02*
X39763Y129757D01*
X40768Y126476D02*
X43602D01*
X39763Y127481D02*
X40768Y126476D01*
X39763Y127481D02*
Y129757D01*
X37715Y123527D02*
X38407Y122835D01*
X20000Y134646D02*
X22756Y131890D01*
X24967D01*
X26095Y130761D01*
X43894Y129134D02*
X44094D01*
X43402Y129626D02*
Y132038D01*
Y129626D02*
X43894Y129134D01*
X49114Y134562D02*
X49198Y134646D01*
X49606D01*
X10000Y143542D02*
Y152000D01*
X17763Y143333D02*
X26904D01*
X19902Y145302D02*
X28710D01*
X19210Y145993D02*
Y151210D01*
X20000Y152000D01*
X14969Y146128D02*
X17763Y143333D01*
X19210Y145993D02*
X19902Y145302D01*
X14969Y146128D02*
Y161145D01*
X28710Y145302D02*
X29564Y144448D01*
Y141637D02*
Y144448D01*
Y141637D02*
X30256Y140945D01*
X33465D01*
X26904Y143333D02*
X27596Y142641D01*
X40945Y140945D02*
X45312D01*
X46003Y140169D02*
Y140253D01*
X45312Y140945D02*
X46003Y140253D01*
Y140169D02*
X46695Y139477D01*
X52064D01*
X52756Y134646D02*
Y138785D01*
X52064Y139477D02*
X52756Y138785D01*
X14969Y161145D02*
X15661Y161837D01*
X19837D01*
X20000Y162000D01*
X118096Y193644D02*
X120353Y191387D01*
X71576Y178921D02*
X73921D01*
X75709Y180709D01*
X134000Y200000D02*
X142137Y191863D01*
X35825Y200940D02*
X52119Y184646D01*
X70608Y177953D02*
X71576Y178921D01*
X67323Y177953D02*
X70608D01*
X124000Y193507D02*
X135906D01*
X124000D02*
Y200000D01*
X135906Y193507D02*
X140708Y188706D01*
X41368Y191085D02*
X42895D01*
X34593Y200940D02*
X35825D01*
X41122Y190839D02*
X41368Y191085D01*
X10281Y190839D02*
X41122D01*
X9589Y186411D02*
Y190147D01*
X10281Y190839D01*
X9589Y186411D02*
X10000Y186000D01*
X134000Y200000D02*
Y206600D01*
X20000Y200371D02*
X20692Y201063D01*
X20000Y196000D02*
Y200371D01*
X20692Y201063D02*
X34470D01*
X34593Y200940D01*
X164350Y79500D02*
Y86594D01*
X167126Y89370D02*
Y90551D01*
X164350Y86594D02*
X167126Y89370D01*
X172830Y97436D02*
X174115D01*
X175296Y98617D01*
X167126Y90551D02*
Y91732D01*
X172830Y97436D01*
X175296Y98617D02*
Y99405D01*
X175784Y107677D02*
Y107874D01*
X175296Y107190D02*
X175784Y107677D01*
X175296Y99405D02*
Y107190D01*
X180114Y112205D02*
X180311D01*
X175784Y107874D02*
X180114Y112205D01*
X259842Y71673D02*
Y78347D01*
X259646Y67323D02*
Y71477D01*
X259842Y71673D01*
X256693Y81496D02*
X259842Y78347D01*
X255906Y81496D02*
X256693D01*
X255887Y81515D02*
X255906Y81496D01*
X255887Y81515D02*
Y87993D01*
X265170Y95369D02*
Y102845D01*
X265061Y102954D02*
X265170Y102845D01*
X255939Y95421D02*
X265118D01*
X265170Y95369D01*
X255887Y95473D02*
X255939Y95421D01*
X255679Y95680D02*
X255887Y95473D01*
X247618Y95888D02*
X247826Y95680D01*
X255679D01*
X239516Y103096D02*
X260914D01*
X264919D02*
X265061Y102954D01*
X238189Y149213D02*
X238386Y149016D01*
Y140354D02*
Y149016D01*
Y140354D02*
X238583Y140157D01*
X250394Y170669D02*
X254606D01*
X260630Y164646D01*
X258858Y186417D02*
X260630Y184646D01*
X250394Y186417D02*
X258858D01*
X220007Y160543D02*
Y160545D01*
X220601Y161139D02*
Y173554D01*
X220007Y160545D02*
X220601Y161139D01*
Y173554D02*
X225984Y178937D01*
X236614Y185630D02*
X237402Y186417D01*
X231102Y176988D02*
Y178937D01*
X238583Y186417D02*
X239764D01*
X231102Y178937D02*
X236614Y184449D01*
X230295Y176181D02*
X231102Y176988D01*
X229073Y176181D02*
X230295D01*
X236614Y184449D02*
Y185630D01*
X237402Y186417D02*
X238583D01*
X239370Y87402D02*
X241791Y84980D01*
Y82059D02*
Y84980D01*
Y82059D02*
X244350Y79500D01*
X246909Y76941D01*
X199823Y37367D02*
X205298Y31891D01*
X199823Y52163D02*
X202975Y55315D01*
X199823Y37367D02*
Y52163D01*
X202975Y55315D02*
X255413D01*
X255906Y55807D01*
X204229Y39359D02*
X210000Y33588D01*
X204350Y41357D02*
Y49500D01*
X204229Y41236D02*
X204350Y41357D01*
X204229Y39359D02*
Y41236D01*
X210000Y10000D02*
Y33588D01*
X59055Y134646D02*
X59547Y135138D01*
Y139105D02*
X59747Y139305D01*
X63152D01*
X59547Y135138D02*
Y139105D01*
X63152Y139305D02*
X63844Y139997D01*
Y149867D01*
X66929Y154134D02*
X67716Y154921D01*
X66929Y152953D02*
Y154134D01*
X63844Y149867D02*
X66929Y152953D01*
X226230Y168740D02*
X226534Y168436D01*
X233227D01*
X235561Y170770D02*
Y172291D01*
X233227Y168436D02*
X235561Y170770D01*
Y172291D02*
X237915Y174646D01*
X260630D01*
X77165Y129134D02*
X79035D01*
X225984Y178937D02*
X227165D01*
X140708Y188706D02*
X143557D01*
X144249Y188014D01*
X142137Y191863D02*
X147205D01*
X263844Y74148D02*
X264068D01*
X263794Y74084D02*
X263900Y73978D01*
X264173Y74016D02*
X265354D01*
X263386Y73228D02*
X264173Y74016D01*
X263386Y67323D02*
Y73228D01*
X263900Y73978D02*
Y74077D01*
X264068Y74148D02*
X264238Y73978D01*
X263844Y74133D02*
X263900Y74077D01*
X263187Y63247D02*
Y67124D01*
X262989Y63048D02*
X263187Y63247D01*
Y67124D02*
X263386Y67323D01*
X244742Y178835D02*
X244845Y178937D01*
X250394D01*
X120075Y54563D02*
X124350Y50287D01*
X120075Y54563D02*
Y58564D01*
X124350Y49500D02*
Y50287D01*
X113874Y87641D02*
Y88567D01*
X117298Y88371D02*
X125175Y96249D01*
X124350Y79500D02*
Y89355D01*
X144000Y199422D02*
Y200000D01*
X114350Y69003D02*
X114382Y69035D01*
X114350Y49500D02*
Y69003D01*
X219143Y10857D02*
X220000Y10000D01*
X219143Y10857D02*
Y33033D01*
X214350Y37825D02*
X219143Y33033D01*
X214350Y37825D02*
Y49500D01*
X230000Y10000D02*
Y34878D01*
X224350Y40528D02*
X230000Y34878D01*
X224350Y40528D02*
Y49500D01*
X200000Y10000D02*
Y34406D01*
X247441Y197441D02*
X250000Y200000D01*
X247441Y194095D02*
Y197441D01*
X239764Y186417D02*
X247441Y194095D01*
X227165Y186417D02*
X228346D01*
X240000Y198071D02*
Y200000D01*
X228346Y186417D02*
X240000Y198071D01*
X225984Y186417D02*
X227165D01*
X230000Y198689D02*
Y200000D01*
D70*
X114350Y49500D02*
D03*
X124350D02*
D03*
X134350D02*
D03*
X144350D02*
D03*
X154350D02*
D03*
X164350D02*
D03*
X174350D02*
D03*
X184350D02*
D03*
X194350D02*
D03*
X204350D02*
D03*
X214350D02*
D03*
X224350D02*
D03*
X234350D02*
D03*
X244350D02*
D03*
X114350Y79500D02*
D03*
X124350D02*
D03*
X134350D02*
D03*
X144350D02*
D03*
X154350D02*
D03*
X164350D02*
D03*
X174350D02*
D03*
X184350D02*
D03*
X194350D02*
D03*
X204350D02*
D03*
X214350D02*
D03*
X224350D02*
D03*
X234350D02*
D03*
X65748Y34646D02*
D03*
X55748D02*
D03*
X74000Y200000D02*
D03*
X84000D02*
D03*
X94000D02*
D03*
X104000D02*
D03*
X114000D02*
D03*
X124000D02*
D03*
X134000D02*
D03*
X144000D02*
D03*
X154000D02*
D03*
X190000D02*
D03*
X180000D02*
D03*
X200000D02*
D03*
X210000D02*
D03*
X220000D02*
D03*
X230000D02*
D03*
X240000D02*
D03*
X250000Y10000D02*
D03*
X240000D02*
D03*
X230000D02*
D03*
X220000D02*
D03*
X210000D02*
D03*
X170000D02*
D03*
X180000D02*
D03*
X160000D02*
D03*
X150000D02*
D03*
X140000D02*
D03*
X130000D02*
D03*
X120000D02*
D03*
D71*
X244350Y79500D02*
D03*
X45748Y34646D02*
D03*
X164000Y200000D02*
D03*
X250000D02*
D03*
X200000Y10000D02*
D03*
X110000D02*
D03*
D72*
X60236Y199213D02*
D03*
D73*
X57480Y145591D02*
D03*
Y155591D02*
D03*
Y165591D02*
D03*
X260630Y164646D02*
D03*
Y174646D02*
D03*
D74*
X57480Y175591D02*
D03*
X260630Y184646D02*
D03*
D75*
X10000Y124646D02*
D03*
X20000D02*
D03*
X10000Y134646D02*
D03*
X30000Y162000D02*
D03*
X20000D02*
D03*
X10000D02*
D03*
X30000Y152000D02*
D03*
X20000D02*
D03*
X30000Y196000D02*
D03*
X20000D02*
D03*
X10000D02*
D03*
X30000Y186000D02*
D03*
X20000D02*
D03*
D76*
Y134646D02*
D03*
X10000Y152000D02*
D03*
Y186000D02*
D03*
D77*
X8659Y66142D02*
D03*
Y92126D02*
D03*
D78*
X8268Y8661D02*
D03*
X8661Y50787D02*
D03*
D79*
X55000Y10000D02*
D03*
X260000Y30000D02*
D03*
Y140000D02*
D03*
D80*
X233465Y174803D02*
D03*
X127165D02*
D03*
X189370Y102362D02*
D03*
X109449Y29921D02*
D03*
X222047Y148031D02*
D03*
X109449Y194882D02*
D03*
X195276Y148425D02*
D03*
X86614Y129921D02*
D03*
X108661Y132677D02*
D03*
X34252Y38189D02*
D03*
X33858Y41339D02*
D03*
X92172Y76974D02*
D03*
X90945Y52756D02*
D03*
X82109Y54226D02*
D03*
X53150Y88976D02*
D03*
X40762Y99566D02*
D03*
X37402Y90945D02*
D03*
X31102Y98819D02*
D03*
X85536Y100213D02*
D03*
X32035Y116376D02*
D03*
X174961Y87887D02*
D03*
X192210Y35110D02*
D03*
X184648Y41484D02*
D03*
X165748Y39764D02*
D03*
X159055Y41732D02*
D03*
X77756Y173819D02*
D03*
X152084Y99606D02*
D03*
X250394Y73622D02*
D03*
X249430Y69629D02*
D03*
X22441Y204724D02*
D03*
X165748Y31890D02*
D03*
X225197Y135433D02*
D03*
X205906Y194488D02*
D03*
X88976Y184646D02*
D03*
X120472Y167717D02*
D03*
X85827Y179528D02*
D03*
X50394Y162992D02*
D03*
Y159449D02*
D03*
X4641Y113880D02*
D03*
X239370Y22441D02*
D03*
X173228Y23622D02*
D03*
X72835Y58268D02*
D03*
X55512Y51575D02*
D03*
X140945Y38583D02*
D03*
X120472Y37402D02*
D03*
X25591Y179134D02*
D03*
X31102Y70472D02*
D03*
X82996Y138585D02*
D03*
X59113Y107421D02*
D03*
X67557Y82081D02*
D03*
X76391Y82833D02*
D03*
X108241Y96037D02*
D03*
X69200Y113110D02*
D03*
X72151Y166215D02*
D03*
X268084Y49520D02*
D03*
X77508Y56185D02*
D03*
X14656Y111038D02*
D03*
X129874Y30512D02*
D03*
X186911Y25394D02*
D03*
X37837Y130874D02*
D03*
X38721Y155211D02*
D03*
X40186Y106941D02*
D03*
Y146461D02*
D03*
X101689Y78900D02*
D03*
X185408Y57297D02*
D03*
X176279Y57235D02*
D03*
X79176Y81113D02*
D03*
X58992Y76181D02*
D03*
X23118Y87684D02*
D03*
X23030Y91171D02*
D03*
X44786Y76554D02*
D03*
X44885Y86270D02*
D03*
X66339Y77935D02*
D03*
X62331Y76780D02*
D03*
X227543Y59772D02*
D03*
X109841Y149962D02*
D03*
X226230Y168740D02*
D03*
X220007Y160543D02*
D03*
X262989Y63048D02*
D03*
X244742Y178835D02*
D03*
X120075Y58564D02*
D03*
X113874Y87641D02*
D03*
X114382Y69035D02*
D03*
X117298Y88371D02*
D03*
M02*
